<svg width="1378" height="1378" viewBox="0 0 1378 1378" fill="none" xmlns="http://www.w3.org/2000/svg">
<path d="M683.488 1358.32C1054.44 1358.32 1355.15 1190.4 1355.15 983.258C1355.15 776.116 1054.44 608.194 683.488 608.194C312.538 608.194 11.8232 776.116 11.8232 983.258C11.8232 1190.4 312.538 1358.32 683.488 1358.32Z" fill="#F5F5F5"/>
<path d="M278.962 1125.33C357.837 1125.33 421.778 1088.41 421.778 1042.87C421.778 997.329 357.837 960.411 278.962 960.411C200.087 960.411 136.146 997.329 136.146 1042.87C136.146 1088.41 200.087 1125.33 278.962 1125.33Z" fill="#E0E0E0"/>
<path d="M325.732 959.088C325.456 940.21 334.606 827.214 334.606 827.214L278.356 854.002C283.868 922.461 288.526 955.12 288.36 960.659C288.081 961.551 287.942 962.481 287.947 963.415C287.368 975.873 301.727 983.396 312.999 992.326C322.495 1000.19 332.636 1007.24 343.315 1013.41C351.583 1017.85 368.56 1019.14 370.875 1014.1C357.315 1003.07 341.606 991.141 330.996 978.877C326.007 972.868 325.952 972.207 325.732 959.088Z" fill="#9E6767"/>
<path d="M394.273 1028.73C394.99 1028.73 395.706 1036.39 391.517 1039.4C386.832 1042.84 373.273 1048.22 355.855 1045.13C338.437 1042.04 329.287 1036.26 322.452 1030.41C315.617 1024.57 306.274 1016.05 298.42 1013.88C291.144 1011.92 283.289 1008.37 281.029 1006.05C278.769 1003.74 279.596 994.145 279.596 994.145L394.273 1028.73Z" fill="black"/>
<path d="M342.378 983.727C341.303 982.569 340.256 981.412 339.264 980.254C336.655 977.113 334.595 973.554 333.173 969.726C332.433 968.118 331.78 966.471 331.216 964.793C330.61 962.478 330.279 960.053 329.81 957.71C329.608 956.562 329.294 955.436 328.873 954.348C328.615 953.622 328.08 953.028 327.385 952.694C326.957 952.611 326.518 952.611 326.09 952.694C319.524 952.91 313.064 954.408 307.073 957.104C305.503 957.82 304.317 958.675 304.125 960.439C304.271 962.479 303.98 964.528 303.27 966.447C303.12 966.803 302.871 967.109 302.554 967.329C302.321 967.457 302.061 967.524 301.796 967.524C301.531 967.524 301.27 967.457 301.038 967.329C300.564 967.066 300.166 966.687 299.88 966.226C298.144 963.773 297.731 960.494 295.746 958.206C294.645 957.006 293.185 956.194 291.585 955.891C290.813 955.726 288.195 955.671 288.029 954.568L287.533 949.47C287.533 949.47 285.962 948.726 284.943 951.757C284.225 954.907 283.819 958.119 283.73 961.348C283.399 964.848 282.931 967.577 282.325 971.049C281.58 975.183 280.891 979.317 280.23 983.451C279.265 987.417 278.885 991.502 279.1 995.578C279.301 997.376 280.178 999.031 281.553 1000.21C283.635 1002.3 286.082 1003.99 288.774 1005.2C292.412 1006.96 296.215 1008.39 299.963 1009.96C308.76 1014.16 316.886 1019.64 324.078 1026.22C334.643 1034.39 347.19 1039.59 360.43 1041.3C377.848 1042.46 390.415 1037.55 394.191 1031.76C394.797 1027.74 395.321 1023.5 393.639 1020.52C388.127 1010.71 374.816 1006.74 364.288 1000.81C359.71 998.116 355.318 995.115 351.142 991.83C348.003 989.374 345.072 986.664 342.378 983.727V983.727Z" fill="#37474F"/>
<path d="M332.291 1009.19C332.602 1009.38 332.966 1009.45 333.326 1009.41C333.685 1009.36 334.019 1009.2 334.275 1008.94C341.882 1001.48 356.323 997.038 361.064 998.747C361.064 998.747 360.485 996.432 355.552 995.027C355.552 995.027 342.901 993.814 330.389 1005.69C330.21 1005.87 330.074 1006.08 329.991 1006.31C329.907 1006.55 329.879 1006.8 329.908 1007.05C329.938 1007.3 330.024 1007.53 330.16 1007.74C330.296 1007.95 330.478 1008.13 330.692 1008.26L332.291 1009.19Z" fill="#FAFAFA"/>
<path d="M349.158 990.121C343.921 988.137 331.244 993.704 324.987 999.794C324.736 1000.06 324.393 1000.23 324.027 1000.26C323.661 1000.29 323.296 1000.18 323.003 999.96L321.432 998.775C321.26 998.635 321.12 998.459 321.025 998.259C320.929 998.058 320.879 997.839 320.879 997.617C320.879 997.395 320.929 997.176 321.025 996.976C321.12 996.776 321.26 996.599 321.432 996.46C324.96 993.208 335.212 984.912 344.968 986.263C344.858 986.263 348.772 988.192 349.158 990.121Z" fill="#FAFAFA"/>
<path d="M339.264 980.254C335.488 979.4 325.484 981.495 317.216 987.999C317.055 988.123 316.868 988.211 316.67 988.257C316.472 988.302 316.266 988.304 316.066 988.262C315.867 988.22 315.68 988.135 315.516 988.014C315.353 987.892 315.218 987.737 315.121 987.558L314.404 986.125C314.252 985.844 314.205 985.517 314.27 985.205C314.336 984.892 314.51 984.612 314.763 984.416C317.519 982.156 327.303 975.294 336.452 976.506C337.704 977.485 338.674 978.778 339.264 980.254V980.254Z" fill="#FAFAFA"/>
<path d="M370.737 1004.01C348.992 1008.61 340.614 1022.53 336.645 1033.97C344.087 1037.75 352.139 1040.19 360.43 1041.16C377.848 1042.32 390.415 1037.41 394.191 1031.63C394.797 1027.6 395.321 1023.36 393.639 1020.38C389.257 1012.5 379.749 1008.39 370.737 1004.01Z" fill="#FAFAFA"/>
<path d="M236.796 878.889L184.432 871.475C185.258 899.035 183.467 935.8 182.254 966.75C180.786 973.494 180.516 980.444 181.455 987.282C182.53 993.235 173.187 1035.71 175.943 1048.11C179.912 1066.74 209.015 1060.92 210.228 1049.68C211.44 1038.43 214.913 1015.92 218.716 986.29C221.775 960.935 236.547 880.653 236.796 878.889Z" fill="#9E6767"/>
<path d="M216.897 1056.73L199.452 1017.79C194.574 1015.03 188.786 1009.52 183.357 1012.55C181.443 1013.52 179.672 1014.74 178.093 1016.19C174.041 1020.22 173.655 1026.03 172.581 1031.27C171.506 1036.5 167.647 1041.3 166.821 1046.73C165.25 1056.95 164.836 1063.43 167.565 1072.83C170.293 1082.23 179.443 1087.55 188.565 1090.22C196.2 1092.45 205.901 1090.41 210.145 1083.91C215.409 1075.72 216.539 1067.73 216.897 1056.73Z" fill="black"/>
<path d="M216.677 1056.38C209.649 1046.89 175.695 1043.5 166.187 1052.02C166.187 1050.78 166.435 1049.43 166.6 1048.02C167.58 1038.75 169.548 1029.6 172.47 1020.74C174.303 1015.21 175.712 1009.54 176.687 1003.79C177.431 997.865 178.313 985.574 178.699 981.384C178.809 977.248 179.196 973.123 179.857 969.037C180.16 967.825 180.518 966.282 182.116 966.75C182.116 966.75 182.116 968.789 181.868 970.03C181.62 971.27 181.675 972.565 181.593 973.64C181.372 976.176 181.372 978.463 181.345 981.026C181.274 982.003 181.386 982.984 181.675 983.92C181.756 984.133 181.9 984.316 182.089 984.444C182.805 984.747 182.75 983.066 182.805 982.735L183.935 976.424C183.955 976.09 184.081 975.771 184.294 975.514C184.481 975.329 184.707 975.188 184.955 975.101C190.274 973.034 194.215 971.27 199.7 972.179C202.755 972.631 205.762 973.359 208.684 974.357C210.806 975.101 214.582 976.286 215.767 978.353C216.205 979.36 216.301 980.483 216.043 981.55C215.74 984.306 215.354 987.585 214.94 990.782C214.472 994.641 219.378 981.715 220.204 974.412C222.244 974.88 221.996 977.168 220.204 985.822C218.066 996.692 216.666 1007.7 216.015 1018.76C215.519 1027.58 215.519 1036.42 216.015 1045.24C216.401 1049.15 216.622 1052.79 216.677 1056.38Z" fill="#37474F"/>
<path d="M177.679 1034.99C188.533 1033.66 199.546 1034.8 209.897 1038.32C210.037 1038.38 210.189 1038.41 210.341 1038.39C210.492 1038.38 210.637 1038.33 210.764 1038.24C210.89 1038.16 210.993 1038.04 211.063 1037.91C211.133 1037.77 211.168 1037.62 211.165 1037.47V1034.46C211.163 1034.3 211.113 1034.13 211.02 1033.99C210.928 1033.85 210.796 1033.73 210.641 1033.67C200.293 1029.26 188.836 1028.18 177.845 1030.55C177.657 1030.59 177.484 1030.68 177.351 1030.82C177.218 1030.96 177.131 1031.13 177.1 1031.32L176.687 1034.08C176.682 1034.21 176.705 1034.33 176.754 1034.45C176.804 1034.57 176.878 1034.68 176.972 1034.76C177.067 1034.85 177.179 1034.92 177.301 1034.95C177.423 1034.99 177.552 1035 177.679 1034.99V1034.99Z" fill="#FAFAFA"/>
<path d="M180.849 1020.05C190.614 1018.66 200.574 1020.01 209.621 1023.94C209.753 1024 209.897 1024.02 210.041 1024.01C210.185 1024 210.324 1023.96 210.446 1023.88C210.569 1023.8 210.67 1023.7 210.743 1023.57C210.815 1023.45 210.856 1023.31 210.861 1023.17V1020.41C210.857 1020.25 210.804 1020.09 210.711 1019.96C210.618 1019.83 210.488 1019.72 210.338 1019.67C207.747 1018.51 198.597 1013.05 180.986 1016C180.805 1016.02 180.635 1016.1 180.501 1016.22C180.367 1016.35 180.277 1016.51 180.242 1016.69L179.856 1019.11C179.852 1019.24 179.875 1019.37 179.924 1019.49C179.973 1019.61 180.047 1019.72 180.141 1019.81C180.235 1019.9 180.346 1019.96 180.468 1020.01C180.59 1020.05 180.72 1020.06 180.849 1020.05V1020.05Z" fill="#FAFAFA"/>
<path d="M183.55 1006.41C192.685 1004.99 202.035 1006.25 210.476 1010.02C210.603 1010.07 210.741 1010.1 210.879 1010.08C211.017 1010.07 211.15 1010.03 211.265 1009.95C211.38 1009.87 211.474 1009.77 211.539 1009.65C211.603 1009.52 211.636 1009.39 211.633 1009.25V1006.49C211.622 1006.34 211.571 1006.19 211.483 1006.06C211.396 1005.94 211.276 1005.84 211.137 1005.77C208.739 1004.64 200.113 999.408 183.577 1002.38C183.404 1002.41 183.244 1002.49 183.12 1002.62C182.996 1002.74 182.915 1002.9 182.888 1003.07L182.53 1005.42C182.504 1005.55 182.513 1005.7 182.555 1005.83C182.598 1005.97 182.673 1006.09 182.774 1006.19C182.875 1006.28 182.998 1006.36 183.134 1006.39C183.269 1006.43 183.412 1006.44 183.55 1006.41V1006.41Z" fill="#FAFAFA"/>
<path d="M166.269 1052.13C165.966 1061.36 166.766 1067.65 171.616 1074.54C177.79 1083.36 200.609 1091.6 210.448 1078.53C215.326 1072.03 216.456 1064.42 216.897 1056.73C210.421 1046.98 175.695 1043.48 166.269 1052.13Z" fill="#FAFAFA"/>
<path d="M196.999 579.863C189.64 639.254 190.55 710.745 188.235 749.026C185.92 787.307 181.648 813.323 181.179 842.454C180.38 891.704 181.896 945.308 181.896 945.308C181.896 945.308 202.621 957.131 225.992 949.36C225.992 949.36 245.504 849.703 250.493 819.001C257.631 775.263 267.029 697.516 267.029 697.516L275.628 780.196C271.809 800.693 270.946 821.63 273.064 842.372C275.214 861.664 284.392 932.245 284.392 932.245C291.621 935.098 299.388 936.331 307.145 935.854C314.903 935.378 322.461 933.205 329.287 929.489C329.287 929.489 341.386 794.445 342.378 776.613C343.839 751.506 345.437 564.401 345.134 542.987L196.999 579.863Z" fill="#455A64"/>
<path d="M266.974 697.406L273.56 653.31C273.56 653.31 303.27 645.042 315.865 625.033C307.597 649.644 280.202 660.558 280.202 660.558L270.804 703.359L275.6 780.086L266.974 697.406Z" fill="#37474F"/>
<path d="M309.333 380.631C332.787 384.324 340.476 392.399 348.799 412.27C362.965 446.141 376.718 479.544 376.718 479.544L441.511 505.45L435.806 546.79C435.806 546.79 386.033 536.593 356.764 528.848C348.496 526.616 345.492 521.325 341.413 515.317C338.051 510.411 305.916 450.578 305.916 450.578L309.333 380.631Z" fill="#263238"/>
<path d="M341.11 434.483C335.047 403.23 332.236 389.368 311.924 382.395C291.612 375.422 256.804 375.698 256.804 375.698C246.331 378.454 213.645 386.281 199.396 390.525C185.148 394.769 188.097 427.896 191.404 449.035C195.408 473.176 197.949 497.538 199.011 521.986C198.459 555.665 195.428 578.402 194.105 597.666C224.421 616.958 313.137 613.54 345.299 594.166C346.043 578.153 346.291 535.904 346.016 515.179C345.492 476.292 343.646 447.657 341.11 434.483Z" fill="#37474F"/>
<path d="M209.18 386.859C197.082 388.954 181.786 392.371 174.923 403.395C169.962 411.388 143.643 473.205 144.304 498.395C154.391 526.974 206.507 474.528 206.507 474.528C212.515 440.436 219.901 404.966 209.18 386.859Z" fill="#263238"/>
<path d="M321.239 254.021C313.568 245.922 303.486 240.518 292.494 238.615C281.585 236.53 270.336 237.059 259.67 240.158C247.323 243.796 234.067 254.406 233.268 269.537C227.37 270.887 223.043 276.923 221.582 284.061C219.322 295.085 222.823 306.936 226.846 316.912C226.846 316.912 240.158 340.89 242.638 345.878C245.394 351.693 247.571 356.544 247.571 356.544L246.827 338.327C254.058 338.174 261.231 336.995 268.131 334.826C274.977 332.361 281.613 329.347 287.974 325.814C300.567 318.65 312.477 310.348 323.554 301.01C329.866 295.857 331.023 289.986 331.326 282.022C331.606 276.917 330.857 271.807 329.124 266.997C327.392 262.187 324.71 257.774 321.239 254.021V254.021Z" fill="#263238"/>
<path d="M262.454 273.258C260.748 280.945 256.577 287.864 250.576 292.963C251.898 300.247 251.973 307.702 250.796 315.011C250.521 316.578 249.94 318.077 249.087 319.421C248.643 320.081 248.06 320.638 247.38 321.052C246.699 321.465 245.937 321.727 245.146 321.818C243.024 321.818 242.17 320.633 241.536 319.062C240.612 316.921 239.554 314.841 238.366 312.834C237.852 311.953 237.232 311.139 236.52 310.408C233.323 307.377 223.76 303.601 219.185 313.743C214.61 323.885 222.74 338.354 230.429 340.614C243.713 344.528 246.717 335.488 246.717 335.488L248.619 383.084C255.757 390.746 283.262 401.963 291.006 411.03C294.644 404.994 302.719 394.935 295.498 381.541V365.969C300.776 366.234 306.066 365.883 311.263 364.922C318.18 363.682 324.877 357.453 328.129 347.036C334.441 326.696 331.299 298.668 328.901 286.045C327.661 278.385 324.235 271.246 319.035 265.486C318.789 265.217 318.485 265.009 318.145 264.878C317.806 264.746 317.441 264.694 317.079 264.726C316.716 264.758 316.366 264.873 316.055 265.062C315.745 265.251 315.481 265.509 315.286 265.816C313.536 268.135 311.325 270.067 308.793 271.49C306.26 272.913 303.46 273.796 300.569 274.084C292.301 275.187 278.88 273.037 268.765 269.757C268.122 269.535 267.439 269.451 266.761 269.51C266.083 269.569 265.424 269.77 264.829 270.1C264.234 270.43 263.715 270.882 263.305 271.426C262.896 271.97 262.606 272.594 262.454 273.258Z" fill="#9E6767"/>
<path d="M295.498 365.887C283.207 364.591 270.364 362.497 263.501 358.776C259.048 356.474 255.347 352.945 252.835 348.606C252.835 348.606 253.359 353.512 259.863 360.099C267.194 367.513 295.498 370.572 295.498 370.572V365.887Z" fill="#874C4C"/>
<path d="M282.903 308.893C282.882 309.723 282.616 310.53 282.141 311.211C281.665 311.893 281 312.419 280.227 312.726C279.455 313.033 278.609 313.106 277.795 312.937C276.982 312.767 276.236 312.363 275.65 311.773C275.064 311.184 274.664 310.435 274.5 309.62C274.336 308.805 274.414 307.96 274.726 307.19C275.038 306.42 275.569 305.757 276.253 305.286C276.938 304.815 277.746 304.555 278.576 304.538C279.727 304.545 280.827 305.007 281.638 305.823C282.448 306.639 282.903 307.742 282.903 308.893V308.893Z" fill="#263238"/>
<path d="M311.263 286.624C315.685 287.355 319.876 289.111 323.499 291.75C324.155 290.077 324.137 288.215 323.448 286.554C322.759 284.894 321.454 283.566 319.806 282.848C318.999 282.517 318.134 282.353 317.261 282.364C316.389 282.376 315.528 282.564 314.73 282.916C313.932 283.269 313.214 283.779 312.618 284.416C312.022 285.053 311.561 285.804 311.263 286.624Z" fill="#263238"/>
<path d="M282.71 333.834L297.868 338.161C297.631 339.176 297.192 340.132 296.576 340.973C295.961 341.814 295.182 342.521 294.287 343.054C293.391 343.587 292.397 343.933 291.365 344.073C290.332 344.212 289.282 344.142 288.278 343.866C286.232 343.239 284.509 341.844 283.471 339.973C282.433 338.102 282.16 335.902 282.71 333.834V333.834Z" fill="#874C4C"/>
<path d="M284.171 337.334C285.904 337.468 287.528 338.231 288.737 339.48C289.946 340.729 290.655 342.378 290.73 344.114C289.905 344.155 289.078 344.071 288.278 343.866C286.876 343.398 285.626 342.564 284.657 341.449C283.687 340.334 283.034 338.98 282.766 337.527C283.227 337.418 283.698 337.354 284.171 337.334V337.334Z" fill="#F28F8F"/>
<path d="M280.478 297.042C276.108 297.836 272.146 300.114 269.261 303.491C268.834 302.771 268.555 301.973 268.44 301.144C268.325 300.315 268.377 299.472 268.592 298.663C268.808 297.854 269.183 297.097 269.696 296.435C270.208 295.773 270.847 295.22 271.576 294.809C273.061 293.957 274.817 293.714 276.477 294.13C278.137 294.547 279.571 295.59 280.478 297.042V297.042Z" fill="#263238"/>
<path d="M320.468 305.585C320.451 306.423 320.189 307.237 319.713 307.927C319.238 308.617 318.57 309.151 317.793 309.464C317.016 309.777 316.164 309.855 315.343 309.688C314.522 309.52 313.768 309.115 313.176 308.523C312.584 307.93 312.179 307.177 312.011 306.356C311.844 305.535 311.921 304.683 312.234 303.906C312.547 303.129 313.082 302.461 313.772 301.985C314.461 301.51 315.276 301.247 316.113 301.231C317.268 301.231 318.376 301.69 319.192 302.506C320.009 303.323 320.468 304.431 320.468 305.585V305.585Z" fill="#263238"/>
<path d="M295.14 297.455L297.896 328.818L313.44 324.05C309.275 313.999 303.04 304.937 295.14 297.455V297.455Z" fill="#874C4C"/>
<path d="M291.006 410.947C285.494 407.585 274.801 399.703 269.454 406.455C264.107 413.207 260.166 421.089 256.253 419.904C252.339 418.719 239.496 406.455 234.646 395.872C232.2 390.079 230.926 383.859 230.898 377.572C230.898 377.572 235.555 372.446 239.414 368.477C243.686 364.067 244.402 362.965 247.682 362.689L248.123 374.43C248.482 376.76 249.301 378.994 250.531 381.005C251.761 383.016 253.378 384.762 255.288 386.143C264.934 393.116 284.144 395.624 291.006 410.947Z" fill="#263238"/>
<path d="M291.006 410.947C294.258 408.026 298.805 400.144 304.042 401.687C309.278 403.23 314.377 413.593 314.542 410.782C314.708 407.971 310.05 393.061 305.695 384.82C302.361 378.481 298.998 372.887 295.498 372.253V381.458C295.498 381.458 295.498 389.423 295.112 394.191C294.907 399.999 293.509 405.702 291.006 410.947Z" fill="#263238"/>
<path d="M208.574 409.128C213.822 402.556 217.71 395.005 220.011 386.915C222.354 377.49 229.795 368.808 232.331 365.253C234.866 361.698 240.323 356.434 244.485 351.473C248.646 346.512 249.997 345.051 255.867 344.059C264.135 342.654 270.556 341.303 273.781 342.351C277.005 343.398 276.895 345.437 274.112 348.276C271.328 351.115 265.403 351.831 263.584 352.382C261.765 352.934 257.741 354.697 257.741 354.697L250.107 365.914C255.343 366.807 260.51 368.069 265.568 369.69C268.104 371.068 270.281 377.6 269.151 381.238C269.151 381.238 273.891 384.435 271.907 389.092C271.907 389.092 274.801 392.868 272.816 395.982C270.575 399.104 267.996 401.969 265.127 404.526C263.556 405.876 257.328 406.207 257.328 406.207C254.581 410.391 251.302 414.198 247.571 417.534C243.134 420.814 240.24 420.593 235.39 427.483L208.574 409.128Z" fill="#9E6767"/>
<path d="M255.922 367.016C258.981 365.694 259.67 363.627 262.564 364.729C265.458 365.831 264.328 369.111 264.328 369.111L255.922 367.016Z" fill="#874C4C"/>
<path d="M269.068 381.458C267.157 379.843 265.045 378.482 262.785 377.407C260.662 376.36 256.308 374.816 256.308 374.816C259.391 375.077 262.419 375.792 265.293 376.939C266.763 377.508 268.175 378.219 269.509 379.061C269.501 379.778 269.399 380.492 269.206 381.183L269.068 381.458Z" fill="#874C4C"/>
<path d="M269.482 385.84C270.506 386.269 271.5 386.766 272.458 387.328C272.379 388.044 272.212 388.748 271.962 389.423C269.547 387.231 266.743 385.511 263.694 384.352C265.674 384.626 267.615 385.126 269.482 385.84Z" fill="#874C4C"/>
<path d="M256.308 407.888C258.082 404.313 260.196 400.917 262.619 397.746C263.4 396.867 264.485 396.316 265.656 396.203C266.826 396.091 267.996 396.426 268.93 397.14C269.73 398.38 265.541 398.215 264.328 398.766C261.196 401.37 258.49 404.448 256.308 407.888V407.888Z" fill="#874C4C"/>
<path d="M246.579 365.528C246.579 365.528 248.949 362.193 253.166 356.874C257.383 351.555 257.162 352.327 261.269 351.528C265.375 350.729 273.175 349.323 275.269 346.87C274.918 347.349 274.531 347.8 274.112 348.221C271.356 350.977 265.403 351.776 263.584 352.327C261.765 352.878 257.741 354.642 257.741 354.642L249.886 366.19L246.579 365.528Z" fill="#874C4C"/>
<path d="M208.574 409.128C194.766 425.802 157.533 465.764 148.824 481.832C142.871 492.856 141.383 518.514 147.446 527.829C153.509 537.145 170.9 533.341 184.983 520.884C197.109 510.219 207.251 484.56 216.07 466.288C224.89 448.016 235.362 427.428 235.362 427.428L208.574 409.128Z" fill="#9E6767"/>
<path d="M208.574 409.128C211.736 404.908 214.504 400.406 216.842 395.679C217.964 393.298 218.886 390.827 219.598 388.293C220.197 385.712 221.036 383.193 222.106 380.769C224.427 376.014 227.254 371.523 230.539 367.375C233.668 363.131 237.084 359.107 240.764 355.331C242.555 353.402 244.237 351.39 245.918 349.351C247.517 347.161 249.72 345.485 252.257 344.528C254.822 343.846 257.427 343.321 260.056 342.957C262.647 342.516 265.237 342.047 267.883 341.772C269.208 341.606 270.545 341.551 271.879 341.606C273.288 341.61 274.663 342.043 275.82 342.847C276.13 343.087 276.371 343.405 276.521 343.767C276.671 344.129 276.724 344.525 276.675 344.914C276.555 345.63 276.272 346.309 275.848 346.898C275.062 348.007 274.059 348.945 272.899 349.654C270.543 350.936 267.992 351.821 265.348 352.272C262.811 352.95 260.347 353.873 257.989 355.028L258.182 354.89L250.52 366.08L250.3 365.528C254.985 366.466 259.67 367.347 264.273 368.753C264.867 368.927 265.441 369.167 265.981 369.47C266.524 369.815 266.992 370.264 267.359 370.792C268.059 371.8 268.606 372.905 268.985 374.072C269.866 376.374 270.067 378.88 269.564 381.293V380.962C270.848 381.874 271.865 383.11 272.513 384.545C272.835 385.274 272.995 386.063 272.982 386.86C272.988 387.653 272.838 388.44 272.541 389.175V388.899C273.289 389.808 273.793 390.892 274.005 392.049C274.217 393.207 274.13 394.399 273.753 395.514C272.559 397.445 271.154 399.239 269.564 400.86C268.793 401.687 268.021 402.486 267.194 403.286C266.436 404.159 265.495 404.855 264.438 405.325C262.258 405.958 260.009 406.319 257.741 406.4H257.906C256.455 408.531 254.891 410.582 253.221 412.546C251.629 414.613 249.776 416.465 247.709 418.058C245.587 419.574 243.189 420.538 241.095 422.054C239.06 423.602 237.283 425.462 235.831 427.566C237.144 425.353 238.799 423.362 240.736 421.668C242.803 420.125 245.201 419.105 247.268 417.562C249.34 415.975 251.194 414.122 252.78 412.05C254.409 410.061 255.935 407.991 257.355 405.849V405.849C259.586 405.735 261.796 405.365 263.942 404.746C264.938 404.304 265.816 403.634 266.505 402.79C267.304 402.018 268.104 401.219 268.848 400.392C270.394 398.8 271.762 397.044 272.927 395.155C273.252 394.126 273.314 393.032 273.107 391.973C272.9 390.913 272.431 389.923 271.741 389.092V388.954C271.991 388.275 272.122 387.557 272.127 386.832C272.119 386.112 271.969 385.4 271.686 384.738C271.07 383.407 270.121 382.259 268.93 381.403H268.765V381.183C269.232 378.896 269.031 376.523 268.186 374.348C267.387 372.198 266.257 369.91 263.859 369.47C259.312 368.119 254.599 367.237 250.079 366.328H249.528L249.831 365.859L257.438 354.642C259.832 353.483 262.333 352.56 264.907 351.886C267.464 351.445 269.937 350.608 272.238 349.406C273.352 348.706 274.294 347.764 274.994 346.65C275.738 345.658 276.096 344.335 274.994 343.618C272.723 342.465 270.122 342.134 267.635 342.681C264.879 342.957 262.426 343.37 259.836 343.811C257.246 344.17 254.679 344.676 252.146 345.327C249.711 346.235 247.594 347.835 246.056 349.93C244.374 351.941 242.666 353.981 240.874 355.91C237.162 359.642 233.726 363.64 230.594 367.871C227.314 371.973 224.486 376.417 222.161 381.127C221.061 383.519 220.193 386.011 219.57 388.569C218.861 391.104 217.939 393.574 216.814 395.955C214.465 400.582 211.707 404.991 208.574 409.128Z" fill="#874C4C"/>
<path d="M476.843 450.579L365.969 491.478L337.197 624.537L339.732 627.156L445.094 586.064L479.379 453.169L476.843 450.579Z" fill="#008DB9"/>
<path opacity="0.25" d="M476.843 450.579L365.969 491.478L337.197 624.537L339.732 627.156L445.094 586.064L479.379 453.169L476.843 450.579Z" fill="white"/>
<path d="M368.505 494.096L339.732 627.155L337.197 624.537L365.969 491.478L368.505 494.096Z" fill="#008DB9"/>
<path opacity="0.35" d="M368.505 494.096L339.732 627.155L337.197 624.537L365.969 491.478L368.505 494.096Z" fill="black"/>
<path d="M479.379 453.169L368.505 494.096L339.732 627.155L445.094 586.063L479.379 453.169Z" fill="#008DB9"/>
<g opacity="0.2">
<path opacity="0.2" d="M428.145 559.468C429.219 562.058 437.846 567.736 450.193 566.468L452.177 558.779L428.145 559.468Z" fill="black"/>
</g>
<g opacity="0.1">
<path opacity="0.1" d="M446.196 480.812L447.051 476.375C447.519 473.894 440.988 475.272 432.471 479.461L412.463 485.828C403.947 490.017 395.927 493.131 395.403 495.584L394.549 500.049L446.196 480.812Z" fill="black"/>
</g>
<path d="M452.535 460.61C452.838 459.067 450.275 459.425 446.748 460.418L440.354 462.705C440.354 462.705 442.503 455.071 427.759 460.555C408.88 467.556 410.864 473.674 410.864 473.674C408.262 474.839 405.593 475.852 402.872 476.706C397.36 478.58 396.754 479.682 396.313 481.253L395.541 484.009L451.984 463.256C451.984 463.256 452.232 462.154 452.535 460.61Z" fill="#37474F"/>
<path d="M446.692 469.237C441.456 471.689 439.279 472.902 438.424 476.678C437.57 481.032 437.405 482.824 437.405 482.824L407.998 494.923C407.998 494.923 409.514 488.529 409.872 486.406C410.231 484.284 406.317 484.312 401.246 486.765L402.376 481.446L447.795 464.91L446.692 469.237Z" fill="#263238"/>
<path d="M447.712 480.867L448.567 476.43C449.035 473.95 442.531 475.328 434.015 479.517L413.979 485.883C405.463 490.045 397.443 493.186 396.919 495.639L396.065 500.104L447.712 480.867Z" fill="#263238"/>
<path d="M467.638 498.836C467.638 498.836 463.89 513.443 462.898 517.136C461.906 520.829 443.799 529.51 434.676 530.916C417.231 533.341 415.384 537.172 419.684 549.519C423.707 560.901 435.172 565.063 450.909 562.968C455.861 561.937 460.449 559.607 464.203 556.217C467.957 552.826 470.74 548.498 472.268 543.676C477.174 528.987 474.197 513.36 476.099 504.844C478.001 496.328 471.992 493.572 467.638 498.836Z" fill="#9E6767"/>
<path d="M508.84 661.44C510.246 658.133 513.856 655.735 519.313 655.074C525.328 654.666 531.354 655.69 536.897 658.061C542.44 660.432 547.341 664.084 551.2 668.716C554.507 673.098 555.306 677.37 553.956 680.677L463.146 918.024C461.409 923.04 456.283 926.65 448.263 927.642C432.995 929.489 413.124 921.028 403.892 908.736C399.041 902.287 398.132 896.058 400.502 891.346L508.84 661.44Z" fill="#455A64"/>
<path d="M551.2 668.716C557.814 677.507 554.314 685.72 543.4 687.043C537.418 687.437 531.426 686.418 525.91 684.067C520.395 681.716 515.51 678.1 511.651 673.511C505.037 664.719 508.537 656.506 519.451 655.184C525.434 654.785 531.427 655.802 536.943 658.153C542.46 660.504 547.344 664.123 551.2 668.716V668.716Z" fill="#37474F"/>
<path d="M553.432 592.54C557.073 592.294 560.72 592.915 564.073 594.352C567.427 595.79 570.392 598.002 572.724 600.808C573.617 601.756 574.238 602.926 574.524 604.196C574.81 605.466 574.75 606.789 574.35 608.028V608.028L544.971 676.928C544.355 678.076 543.441 679.037 542.326 679.711C541.211 680.385 539.935 680.747 538.633 680.759C534.992 681.007 531.345 680.387 527.99 678.95C524.636 677.512 521.672 675.299 519.341 672.491C518.449 671.537 517.827 670.363 517.542 669.088C517.256 667.814 517.315 666.486 517.715 665.243L547.094 596.343C547.718 595.204 548.635 594.252 549.748 593.584C550.862 592.916 552.134 592.555 553.432 592.54V592.54Z" fill="#008DB9"/>
<path opacity="0.2" d="M553.432 592.54C557.073 592.294 560.72 592.915 564.073 594.352C567.427 595.79 570.392 598.002 572.724 600.808C573.617 601.756 574.238 602.926 574.524 604.196C574.81 605.466 574.75 606.789 574.35 608.028V608.028L544.971 676.928C544.355 678.076 543.441 679.037 542.326 679.711C541.211 680.385 539.935 680.747 538.633 680.759C534.992 681.007 531.345 680.387 527.99 678.95C524.636 677.512 521.672 675.299 519.341 672.491C518.449 671.537 517.827 670.363 517.542 669.088C517.256 667.814 517.315 666.486 517.715 665.243L547.094 596.343C547.718 595.204 548.635 594.252 549.748 593.584C550.862 592.916 552.134 592.555 553.432 592.54V592.54Z" fill="black"/>
<path opacity="0.2" d="M533.562 628.175L535.601 629.36L535.904 629.553L536.29 629.774L536.731 629.994C538.025 630.763 539.359 631.462 540.727 632.089C542.376 632.923 544.069 633.668 545.798 634.321C547.319 634.981 548.874 635.56 550.456 636.057C551.258 636.347 552.077 636.586 552.909 636.774C553.804 637.113 554.726 637.381 555.665 637.573C556.602 637.849 557.456 638.069 558.421 638.262C559.079 638.452 559.752 638.591 560.433 638.675H561.122L574.268 607.808C574.667 606.569 574.727 605.246 574.441 603.976C574.155 602.706 573.534 601.536 572.642 600.588C571.842 599.557 570.916 598.631 569.886 597.832C561.68 600.345 553.187 601.799 544.613 602.158L533.562 628.175Z" fill="black"/>
<path opacity="0.15" d="M532.569 686.244L436.964 927.229C440.688 927.852 444.479 927.973 448.236 927.587C456.256 926.595 461.382 922.984 463.118 917.968L553.735 680.732C552.33 684.067 548.72 686.409 543.263 687.071C539.677 687.404 536.061 687.124 532.569 686.244V686.244Z" fill="black"/>
<path d="M831.265 307.184C831.265 305.199 831.099 303.243 830.934 301.286C830.769 299.329 830.714 297.455 830.521 295.553C830.521 294.258 830.273 292.99 830.107 291.723C829.777 288.415 829.308 285.136 828.757 282.021C828.509 280.588 828.261 279.265 827.985 277.722C827.709 276.179 827.434 274.966 827.131 273.726C826.304 270.116 825.422 266.588 824.375 263.198C823.851 261.599 823.355 260.001 822.804 258.43C822.705 258.19 822.631 257.941 822.583 257.686C822.005 256.115 821.453 254.627 820.847 253.166C820.241 251.705 819.497 249.721 818.725 248.123C817.953 246.524 817.65 245.725 817.016 244.567C816.66 243.69 816.236 242.843 815.748 242.032C815.252 241.012 814.729 239.965 814.122 238.973C814.01 238.743 813.881 238.522 813.737 238.311C813.24 237.429 812.717 236.547 812.193 235.555C811.67 234.563 811.449 234.425 811.118 233.874C808.614 229.975 805.793 226.288 802.685 222.85L801.142 221.086C800.701 220.59 800.26 220.149 799.819 219.708C799.378 219.267 798.716 218.578 798.11 218C796.521 216.374 794.827 214.855 793.039 213.452C792.212 212.736 791.33 212.047 790.448 211.413C789.566 210.779 788.684 210.09 787.692 209.456C786.259 208.436 784.799 207.472 783.338 206.7L782.18 205.983L781.932 205.79L754.648 189.723L754.262 189.503C740.989 182.089 726.002 178.288 710.8 178.479C688.146 178.479 662.57 185.892 635.451 201.519C542.353 255.233 466.866 385.84 466.866 493.324C466.866 546.928 485.635 584.658 515.923 602.324H516.226L543.566 618.336L543.869 618.529L544.255 618.749C544.42 618.749 544.558 618.915 544.696 618.97C545.99 619.739 547.324 620.438 548.692 621.065C550.346 621.891 552.054 622.635 553.791 623.297C555.296 623.964 556.843 624.535 558.421 625.006C559.218 625.317 560.038 625.566 560.874 625.75C561.769 626.089 562.691 626.357 563.63 626.549C564.567 626.825 565.421 627.045 566.386 627.238C567.047 627.415 567.719 627.553 568.397 627.651C569.582 627.899 570.823 628.147 572.063 628.285C572.334 628.396 572.624 628.452 572.917 628.451C574.35 628.671 575.839 628.892 577.272 629.029C602.379 631.785 631.565 624.592 662.708 606.568C755.833 552.826 831.32 422.054 831.32 314.597C831.403 312.282 831.347 309.747 831.265 307.184ZM524.081 560.736C520.208 546.36 518.298 531.527 518.404 516.64C518.404 414.668 592.816 285.659 681.145 234.728C694.043 227.097 707.963 221.343 722.485 217.641C729.435 215.889 736.567 214.963 743.734 214.885C747.343 214.868 750.946 215.145 754.51 215.712H754.813C772.865 237.071 775.511 271.301 775.511 289.573C775.511 391.545 701.099 520.553 612.907 571.457C590.473 584.41 568.811 591.272 550.373 591.272C546.531 591.296 542.703 590.805 538.991 589.811V589.811C532.099 581.273 527.025 571.416 524.081 560.846V560.736Z" fill="#37474F"/>
<path opacity="0.25" d="M807.15 307.652C807.15 361.752 786.121 423.542 753.187 477.229C751.644 479.792 750.045 482.3 748.419 484.808C746.793 487.316 745.663 489.107 744.203 491.257C741.088 495.859 737.974 500.379 734.694 504.816C733.151 506.948 731.58 509.042 729.982 511.1C728.245 513.388 726.481 515.647 724.718 517.88C721.328 522.152 717.8 526.313 714.245 530.364C711.902 533.12 709.505 535.739 707.107 538.302C688.861 558.374 667.741 575.63 644.435 589.508C640.219 591.961 636.167 594.166 631.923 596.178C618.511 603.021 603.975 607.39 589.012 609.076C586.659 609.315 584.295 609.435 581.929 609.434C580.689 609.434 579.532 609.434 578.347 609.434C576.102 609.348 573.865 609.118 571.649 608.745C570.575 608.58 569.5 608.414 568.48 608.166C567.46 607.918 566.413 607.725 565.393 607.422C554.949 604.761 545.664 598.749 538.963 590.308C542.667 591.291 546.486 591.773 550.318 591.741C568.838 591.741 590.418 584.933 612.879 571.98C701.071 521.077 775.483 391.931 775.483 290.069C775.483 271.769 772.727 237.705 754.758 216.208H754.482C777.495 219.901 790.558 235.5 797.945 253.607C800.03 258.731 801.707 264.011 802.961 269.399C802.961 269.702 803.098 269.978 803.153 270.281C803.401 271.245 803.649 272.238 803.815 273.23C803.98 274.222 804.201 275.131 804.366 275.986C804.384 276.233 804.384 276.482 804.366 276.73C804.559 277.75 804.752 278.769 804.917 279.761C805.496 283.537 805.964 287.203 806.268 290.785C806.268 291.833 806.461 292.797 806.516 293.762C806.571 294.726 806.516 295.25 806.681 295.967C806.681 296.27 806.681 296.573 806.681 296.876C806.681 297.675 806.681 298.447 806.819 299.219C806.833 299.43 806.833 299.642 806.819 299.853C806.819 300.845 806.819 301.763 806.819 302.609C807.15 304.262 807.15 305.916 807.15 307.652Z" fill="black"/>
<path d="M541.223 617.344L515.923 602.462C485.607 584.74 466.866 547.038 466.866 493.517C466.866 445.59 481.887 393.033 506.746 344.693L535.573 361.229C510.769 409.459 494.233 461.437 494.233 509.391C494.178 561.921 512.037 599.127 541.223 617.344Z" fill="#263238"/>
<path d="M782.291 205.901L782.042 205.708L754.758 189.668L754.372 189.42C741.1 182.003 726.113 178.201 710.91 178.396C688.256 178.396 662.68 185.809 635.561 201.436C583.969 231.228 537.806 284.695 506.911 344.748L535.601 361.615L534.967 362.8C565.972 303.435 611.915 249.804 662.956 217.531C709.146 188.428 752.994 188.014 783.613 206.507L782.291 205.901Z" fill="#455A64"/>
<path opacity="0.1" d="M792.488 298.998C792.488 400.97 718.076 529.979 629.746 580.909C616.854 588.553 602.932 594.307 588.406 597.997C581.456 599.749 574.324 600.674 567.157 600.753C559.799 600.841 552.487 599.59 545.578 597.06C534.554 587.855 527.994 574.571 524.026 560.901C520.153 546.526 518.243 531.692 518.348 516.805C518.348 414.833 592.76 285.825 681.09 234.894C693.988 227.262 707.908 221.508 722.43 217.806C729.38 216.054 736.512 215.129 743.679 215.05C751.035 214.956 758.346 216.198 765.258 218.716C776.282 227.893 782.842 241.232 786.81 254.875C790.686 269.259 792.596 284.101 792.488 298.998V298.998Z" fill="#008DB9"/>
<path opacity="0.3" d="M567.212 600.808C574.379 600.73 581.512 599.805 588.461 598.052C602.987 594.362 616.909 588.608 629.801 580.965C717.993 530.034 792.543 400.915 792.543 299.053C792.649 284.166 790.739 269.333 786.866 254.957C782.897 241.343 776.31 228.031 765.396 218.854L764.349 218.496C763.384 218.137 762.42 217.834 761.4 217.531L759.664 217.062C758.672 216.787 757.624 216.594 756.605 216.373L754.786 216.015H754.593H754.786C772.865 237.374 775.511 271.576 775.511 289.876C775.511 391.848 701.099 520.884 612.907 571.787C590.445 584.74 568.811 591.548 550.346 591.548C546.514 591.581 542.695 591.098 538.991 590.115L539.156 590.335C541.172 592.755 543.395 594.996 545.798 597.032C552.65 599.571 559.905 600.85 567.212 600.808V600.808Z" fill="white"/>
<path d="M993.924 347.614L869.38 419.518C862.711 423.349 857.309 419.27 857.309 410.368V302.333C857.309 293.431 862.821 283.041 869.38 279.238L993.924 207.361C1000.59 203.503 1006 207.582 1006 216.484V324.546C1005.94 333.476 1000.59 343.756 993.924 347.614Z" fill="#FAFAFA"/>
<path d="M864.585 422.274C863.269 422.286 861.974 421.943 860.837 421.282C857.75 419.518 855.986 415.55 855.986 410.258V302.333C855.986 293.018 861.719 282.159 868.719 278.108L993.262 206.204C994.595 205.273 996.156 204.722 997.777 204.611C999.399 204.499 1001.02 204.831 1002.47 205.57C1005.55 207.361 1007.32 211.33 1007.32 216.594V324.657C1007.32 333.945 1001.61 344.831 994.585 348.882L870.069 420.648C868.416 421.663 866.524 422.224 864.585 422.274V422.274ZM998.719 207.306C997.253 207.355 995.826 207.792 994.585 208.574L870.069 280.395C863.758 284.033 858.632 293.872 858.632 302.443V410.479C858.632 414.668 859.927 417.81 862.159 419.105C863.21 419.596 864.372 419.796 865.526 419.685C866.68 419.573 867.782 419.154 868.719 418.471L993.262 346.567C999.546 342.929 1004.67 333.118 1004.67 324.657V216.484C1004.67 212.295 1003.38 209.153 1001.14 207.858C1000.4 207.445 999.567 207.235 998.719 207.251V207.306Z" fill="#E0E0E0"/>
<path d="M966.612 266.643L941.202 358.032L992.022 328.681L966.612 266.643Z" fill="#008DB9"/>
<path opacity="0.3" d="M966.612 266.643L941.202 358.032L992.022 328.681L966.612 266.643Z" fill="white"/>
<path d="M931.666 260.359L906.228 378.206L957.076 348.855L931.666 260.359Z" fill="#008DB9"/>
<path d="M896.995 321.322L871.585 398.214L922.406 368.89L896.995 321.322Z" fill="#008DB9"/>
<path opacity="0.3" d="M896.995 321.322L871.585 398.214L922.406 368.89L896.995 321.322Z" fill="black"/>
<path d="M876.408 296.656L872.412 298.971C871.943 299.219 871.585 298.971 871.585 298.337V291.806C871.589 291.497 871.666 291.194 871.81 290.921C871.954 290.648 872.16 290.413 872.412 290.235L876.408 287.92C876.876 287.644 877.235 287.92 877.235 288.553V295.058C877.23 295.37 877.154 295.677 877.01 295.954C876.867 296.232 876.66 296.472 876.408 296.656V296.656Z" fill="#008DB9"/>
<path opacity="0.3" d="M876.408 296.656L872.412 298.971C871.943 299.219 871.585 298.971 871.585 298.337V291.806C871.589 291.497 871.666 291.194 871.81 290.921C871.954 290.648 872.16 290.413 872.412 290.235L876.408 287.92C876.876 287.644 877.235 287.92 877.235 288.553V295.058C877.23 295.37 877.154 295.677 877.01 295.954C876.867 296.232 876.66 296.472 876.408 296.656V296.656Z" fill="black"/>
<path d="M876.408 309.223L872.412 311.538C871.943 311.814 871.585 311.538 871.585 310.904V304.4C871.589 304.088 871.666 303.781 871.81 303.503C871.953 303.226 872.159 302.986 872.412 302.802L876.408 300.404C876.876 300.156 877.235 300.404 877.235 301.038V307.57C877.244 307.892 877.173 308.212 877.029 308.5C876.885 308.789 876.671 309.037 876.408 309.223V309.223Z" fill="#008DB9"/>
<path d="M876.408 321.79L872.412 324.105C871.943 324.381 871.585 324.105 871.585 323.499V316.94C871.585 316.63 871.66 316.326 871.804 316.052C871.948 315.778 872.157 315.544 872.412 315.369L876.408 313.054C876.877 312.778 877.235 313.054 877.235 313.66V320.192C877.24 320.506 877.167 320.816 877.022 321.095C876.878 321.374 876.667 321.613 876.408 321.79V321.79Z" fill="#008DB9"/>
<path opacity="0.3" d="M876.408 321.79L872.412 324.105C871.943 324.381 871.585 324.105 871.585 323.499V316.94C871.585 316.63 871.66 316.326 871.804 316.052C871.948 315.778 872.157 315.544 872.412 315.369L876.408 313.054C876.877 312.778 877.235 313.054 877.235 313.66V320.192C877.24 320.506 877.167 320.816 877.022 321.095C876.878 321.374 876.667 321.613 876.408 321.79V321.79Z" fill="white"/>
<path d="M659.869 710.414C660.104 710.304 660.31 710.139 660.468 709.932C660.626 709.726 660.733 709.485 660.779 709.229C661.341 706.985 661.783 704.713 662.102 702.422C662.423 700.258 662.616 698.077 662.68 695.89C662.68 695.339 662.405 695.036 662.019 695.174L657.499 696.552C657.457 693.503 656.974 690.477 656.066 687.567L659.924 682.055C660.087 681.842 660.198 681.595 660.251 681.332C660.303 681.069 660.295 680.798 660.227 680.539C659.103 677.689 657.329 675.141 655.046 673.098C654.77 672.878 654.33 673.098 653.999 673.567L650.168 679.079C648.327 677.83 646.164 677.14 643.939 677.094L644.876 670.535C644.876 669.956 644.739 669.57 644.38 669.57C642.845 669.69 641.328 669.986 639.861 670.452C638.242 670.948 636.673 671.594 635.175 672.381C634.957 672.54 634.774 672.742 634.637 672.974C634.499 673.207 634.41 673.464 634.376 673.732L633.439 680.291C630.736 682.009 628.271 684.076 626.108 686.437L623.573 682.772C623.352 682.468 622.911 682.551 622.553 682.964C619.57 686.497 616.948 690.32 614.726 694.374C614.608 694.6 614.546 694.85 614.546 695.105C614.546 695.359 614.608 695.61 614.726 695.835L617.261 699.473C615.551 702.903 614.158 706.482 613.1 710.166L608.58 711.544C608.343 711.657 608.136 711.822 607.973 712.028C607.811 712.233 607.698 712.473 607.643 712.729C607.092 714.989 606.651 717.249 606.32 719.537C606.02 721.712 605.836 723.901 605.769 726.096C605.769 726.619 606.044 726.923 606.43 726.812L610.95 725.434C610.99 728.465 611.472 731.473 612.383 734.364L608.525 739.876C608.364 740.09 608.254 740.337 608.201 740.599C608.149 740.862 608.156 741.132 608.222 741.392C609.333 744.249 611.109 746.799 613.403 748.833C613.679 749.053 614.119 748.833 614.45 748.392L618.281 742.88C620.12 744.113 622.269 744.801 624.482 744.864L623.573 751.423C623.573 751.975 623.71 752.388 624.069 752.361C625.603 752.251 627.12 751.964 628.588 751.506C630.208 751.001 631.776 750.346 633.274 749.549C633.497 749.395 633.684 749.195 633.821 748.962C633.959 748.729 634.045 748.468 634.073 748.199L635.01 741.64C637.712 739.932 640.177 737.875 642.341 735.521L644.876 739.159C645.097 739.49 645.538 739.407 645.896 738.994C648.879 735.458 651.493 731.625 653.696 727.557C653.819 727.333 653.883 727.082 653.883 726.826C653.883 726.571 653.819 726.32 653.696 726.096L651.16 722.458C652.866 719.036 654.259 715.466 655.322 711.792L659.869 710.414ZM636.636 727.171C624.84 736.348 616.738 724.718 623.021 707.576C624.73 702.605 627.748 698.187 631.758 694.788C643.554 685.583 651.656 697.241 645.373 714.383C643.664 719.354 640.646 723.772 636.636 727.171V727.171Z" fill="#E6E6E6"/>
<path d="M694.292 711.82C694.38 711.714 694.445 711.59 694.483 711.457C694.521 711.324 694.531 711.185 694.512 711.048C694.415 709.733 694.231 708.425 693.961 707.134C693.706 705.965 693.346 704.821 692.886 703.717C692.886 703.524 692.583 703.524 692.39 703.717L689.331 706.473C688.643 705.062 687.61 703.849 686.327 702.945L687.925 698.398C687.925 698.095 687.925 697.792 687.925 697.709C686.233 696.816 684.318 696.433 682.413 696.607C682.22 696.607 682 696.855 681.89 697.158L680.291 701.705C678.545 702.018 676.877 702.674 675.385 703.634L674.586 700.024C674.577 699.978 674.557 699.934 674.526 699.898C674.496 699.862 674.456 699.834 674.412 699.817C674.368 699.801 674.32 699.796 674.273 699.803C674.227 699.81 674.182 699.829 674.145 699.859C673.036 700.645 671.977 701.502 670.976 702.422C669.903 703.427 668.891 704.494 667.944 705.619C667.847 705.726 667.775 705.853 667.732 705.991C667.689 706.129 667.677 706.275 667.696 706.418L668.495 710.028C666.982 711.981 665.662 714.076 664.554 716.284L661.798 715.761C661.633 715.761 661.385 715.761 661.275 716.174C659.877 719.142 658.788 722.245 658.023 725.434C658.023 725.738 658.023 725.986 658.215 726.013L660.971 726.564C660.49 728.847 660.259 731.176 660.282 733.509L657.251 736.265C657.139 736.365 657.051 736.489 656.994 736.627C656.937 736.766 656.911 736.915 656.92 737.065C657.001 738.382 657.186 739.69 657.471 740.978C657.726 742.147 658.086 743.291 658.546 744.396C658.546 744.589 658.849 744.589 659.042 744.396L662.101 741.64C662.773 743.061 663.809 744.278 665.105 745.167L663.507 749.742C663.507 750.018 663.507 750.321 663.507 750.404C665.199 751.296 667.114 751.679 669.019 751.506C669.212 751.506 669.432 751.258 669.543 750.955L671.114 746.435C672.867 746.099 674.54 745.436 676.047 744.478L676.846 748.089C676.844 748.141 676.858 748.192 676.887 748.236C676.916 748.279 676.958 748.312 677.007 748.331C677.056 748.349 677.109 748.351 677.159 748.338C677.21 748.324 677.254 748.295 677.287 748.254C678.403 747.476 679.462 746.619 680.456 745.691C681.529 744.696 682.541 743.637 683.488 742.522C683.672 742.287 683.76 741.992 683.736 741.695L682.937 738.112C684.444 736.146 685.764 734.042 686.878 731.828L689.634 732.379C689.799 732.379 690.047 732.214 690.158 731.938C691.538 728.964 692.628 725.863 693.41 722.678C693.41 722.375 693.41 722.127 693.217 722.1L690.461 721.548C690.942 719.265 691.173 716.936 691.15 714.603L694.292 711.82ZM680.512 731.332C674.2 740.096 666.401 738.332 666.924 728.08C667.217 724.018 668.629 720.117 671.003 716.808C677.342 708.072 685.114 709.835 684.618 720.088C684.334 724.147 682.911 728.045 680.512 731.332V731.332Z" fill="#E6E6E6"/>
<path d="M703.166 650.637C703.278 650.537 703.366 650.413 703.423 650.275C703.48 650.137 703.505 649.987 703.497 649.837C703.413 648.521 703.229 647.212 702.945 645.924C702.691 644.755 702.331 643.611 701.87 642.507C701.87 642.314 701.567 642.314 701.374 642.507L698.315 645.263C697.63 643.851 696.608 642.63 695.339 641.707L696.91 637.187C696.91 636.884 696.91 636.581 696.91 636.498C695.218 635.606 693.303 635.223 691.398 635.396C691.205 635.396 690.984 635.644 690.874 635.947L689.303 640.467C687.55 640.803 685.876 641.467 684.37 642.424L683.571 638.814C683.562 638.767 683.541 638.724 683.511 638.687C683.48 638.651 683.441 638.624 683.397 638.607C683.352 638.59 683.305 638.585 683.258 638.593C683.211 638.6 683.167 638.619 683.13 638.648C682.02 639.435 680.962 640.291 679.96 641.211C678.894 642.213 677.882 643.271 676.929 644.381C676.836 644.495 676.768 644.628 676.73 644.771C676.692 644.913 676.685 645.062 676.708 645.207L677.507 648.818C675.976 650.763 674.646 652.859 673.539 655.074L670.783 654.523C670.617 654.523 670.397 654.688 670.259 654.964C668.857 657.925 667.749 661.018 666.952 664.196C666.952 664.499 666.952 664.747 667.145 664.775L669.901 665.326C669.419 667.609 669.188 669.938 669.212 672.271L666.18 675.027C666.068 675.127 665.981 675.251 665.923 675.389C665.866 675.527 665.841 675.677 665.85 675.827C665.931 677.143 666.115 678.452 666.401 679.74C666.655 680.909 667.015 682.053 667.476 683.158C667.476 683.35 667.779 683.35 667.972 683.158L671.031 680.402C671.72 681.811 672.753 683.024 674.035 683.929L672.436 688.504C672.436 688.78 672.436 689.083 672.436 689.166C674.129 690.058 676.043 690.441 677.948 690.268C678.141 690.268 678.362 690.02 678.472 689.717L680.071 685.197C681.811 684.848 683.473 684.185 684.976 683.24L685.775 686.851C685.784 686.897 685.805 686.941 685.835 686.977C685.866 687.013 685.905 687.041 685.949 687.057C685.994 687.074 686.042 687.079 686.088 687.072C686.135 687.064 686.179 687.045 686.216 687.016C687.337 686.245 688.397 685.388 689.386 684.453C690.458 683.457 691.471 682.399 692.417 681.283C692.515 681.171 692.588 681.039 692.631 680.897C692.673 680.754 692.685 680.604 692.665 680.457L691.866 676.874C693.374 674.907 694.693 672.804 695.807 670.59L698.563 671.141C698.729 671.141 698.977 670.976 699.114 670.7C700.487 667.725 701.566 664.624 702.339 661.44C702.339 661.137 702.339 660.889 702.146 660.861L699.39 660.31C699.872 658.027 700.103 655.698 700.079 653.365L703.166 650.637ZM689.386 670.149C683.047 678.913 675.275 677.149 675.771 666.897C676.06 662.83 677.483 658.925 679.878 655.625C686.189 646.889 693.988 648.625 693.465 658.905C693.175 662.954 691.773 666.846 689.413 670.149H689.386Z" fill="#E6E6E6"/>
<path d="M392.206 341.331C391.738 341.579 391.352 341.331 391.352 340.504V233.984C391.344 233.636 391.418 233.29 391.566 232.975C391.714 232.659 391.933 232.382 392.206 232.165C392.675 231.89 393.061 232.165 393.061 232.992V339.512C393.064 339.86 392.989 340.204 392.841 340.519C392.693 340.834 392.476 341.111 392.206 341.331V341.331Z" fill="#E0E0E0"/>
<path d="M503.246 277.226L381.982 347.201C381.513 347.476 381.155 347.201 381.155 346.374C381.146 346.032 381.216 345.693 381.36 345.382C381.503 345.071 381.716 344.798 381.982 344.583L503.246 274.608C503.714 274.332 504.072 274.608 504.072 275.407C504.083 275.753 504.014 276.097 503.871 276.413C503.728 276.728 503.514 277.006 503.246 277.226Z" fill="#E0E0E0"/>
<path d="M413.124 241.784L398.242 250.382V325.18L413.124 316.581V241.784Z" fill="#F5F5F5"/>
<path d="M434.263 281.47L419.38 290.069V312.971L434.263 304.373V281.47Z" fill="#EBEBEB"/>
<path d="M455.401 199.589L440.519 208.188V300.762L455.401 292.163V199.589Z" fill="#F5F5F5"/>
<path d="M476.54 224.366L461.657 232.964V288.553L476.54 279.954V224.366Z" fill="#E0E0E0"/>
<path d="M497.678 233.708L482.796 242.307V276.344L497.678 267.773V233.708Z" fill="#F5F5F5"/>
<path d="M827.957 497.816V531.66L807.508 564.484C800.26 555.168 802.382 531.935 813.709 513.58C817.131 507.263 822.017 501.857 827.957 497.816V497.816Z" fill="#E0E0E0"/>
<path d="M855.903 527.664C851.824 548.223 837.631 567.35 823.658 570.767C821.267 571.502 818.722 571.572 816.294 570.97C813.866 570.368 811.648 569.116 809.878 567.35L830.576 533.892L855.903 527.664Z" fill="#F0F0F0"/>
<path d="M856.427 524.108L832.064 530.061L845.844 494.095C854.36 497.375 858.577 508.895 856.427 524.108Z" fill="#E0E0E0"/>
<path d="M843.171 493.82L830.824 526.396V496.08C834.515 493.816 838.917 493.01 843.171 493.82Z" fill="#F0F0F0"/>
<path d="M1007.59 1172.46C980.998 1172.46 954.43 1166.61 934.201 1154.93C913.972 1143.24 903.389 1128.14 903.389 1111.77C903.389 1095.4 914.413 1080.1 934.201 1068.64C974.659 1045.27 1040.5 1045.27 1080.99 1068.64C1100.83 1080.1 1111.77 1095.43 1111.77 1111.77C1111.77 1128.11 1100.75 1143.46 1080.99 1154.93C1060.73 1166.61 1034.16 1172.46 1007.59 1172.46ZM1007.59 1053.76C981.494 1053.76 955.395 1059.49 935.524 1070.95C916.535 1081.98 906.062 1096.42 906.062 1111.77C906.062 1127.12 916.535 1141.65 935.524 1152.61C975.266 1175.54 1039.89 1175.54 1079.64 1152.61C1098.62 1141.59 1109.1 1127.15 1109.1 1111.77C1109.1 1096.39 1098.62 1081.92 1079.64 1070.95C1059.79 1059.49 1033.67 1053.76 1007.59 1053.76Z" fill="#008DB9"/>
<path d="M1010.32 1090.08V1107.39L993.235 1061.06V1043.78L1010.32 1090.08Z" fill="#263238"/>
<path d="M1010.35 1090.08V1107.39L1080.85 1082.91V1065.63L1010.35 1090.08Z" fill="#37474F"/>
<path d="M993.235 1043.64L1010.35 1090.08L1080.85 1065.63C1061.5 1048.74 1027.99 1040.31 993.235 1043.64Z" fill="#455A64"/>
<path d="M919.595 1093.31C919.581 1093.48 919.581 1093.65 919.595 1093.83V1093.31Z" fill="#008DB9"/>
<path d="M1003.32 1111.91L992.849 1161.16C950.103 1157 919.236 1135.36 919.594 1110.67V1093.8C919.594 1118.3 950.406 1139.69 992.876 1143.85L1000.07 1110.01L1003.32 1111.91Z" fill="#008DB9"/>
<path opacity="0.4" d="M1003.32 1111.91L992.849 1161.16C950.103 1157 919.236 1135.36 919.594 1110.67V1093.8C919.594 1118.3 950.406 1139.69 992.876 1143.85L1000.07 1110.01L1003.32 1111.91Z" fill="black"/>
<path d="M1000.87 1144.43V1161.74C1018.46 1162.78 1036.1 1160.42 1052.79 1154.76C1072.94 1147.76 1087.16 1136.66 1092.84 1123.51C1094.56 1119.71 1095.5 1115.59 1095.59 1111.41C1095.59 1109.79 1095.59 1093.55 1095.59 1093.55C1095.59 1093.55 1090.71 1093.17 1085.01 1087.08L1071.81 1091.65L1011.45 1112.49L1000.87 1144.43Z" fill="#008DB9"/>
<path opacity="0.6" d="M1000.87 1144.43V1161.74C1018.46 1162.78 1036.1 1160.42 1052.79 1154.76C1072.94 1147.76 1087.16 1136.66 1092.84 1123.51C1094.56 1119.71 1095.5 1115.59 1095.59 1111.41C1095.59 1109.79 1095.59 1093.55 1095.59 1093.55C1095.59 1093.55 1090.71 1093.17 1085.01 1087.08L1071.81 1091.65L1011.45 1112.49L1000.87 1144.43Z" fill="white"/>
<path d="M948.257 1073.52L1000.79 1103.83V1086.55L948.257 1056.24V1073.52Z" fill="#008DB9"/>
<path opacity="0.1" d="M948.257 1073.52L1000.79 1103.83V1086.55L948.257 1056.24V1073.52Z" fill="black"/>
<path d="M920.228 1087.57C914.468 1114.61 946.796 1139.36 992.849 1143.88L1003.32 1094.63L942.552 1059.54C929.847 1067.48 922.543 1076.69 920.228 1087.57Z" fill="#008DB9"/>
<path opacity="0.3" d="M920.228 1087.57C914.468 1114.61 946.796 1139.36 992.849 1143.88L1003.32 1094.63L942.552 1059.54C929.847 1067.48 922.543 1076.69 920.228 1087.57Z" fill="black"/>
<path d="M1001.17 1143L1000.87 1144.43C1018.47 1145.44 1036.11 1143.03 1052.79 1137.32C1072.94 1130.32 1087.16 1119.24 1092.84 1106.07C1098.21 1093.66 1095.37 1080.82 1084.9 1069.63L1071.7 1074.21L1011.45 1095.18L1001.17 1143Z" fill="#008DB9"/>
<path opacity="0.75" d="M1001.17 1143L1000.87 1144.43C1018.47 1145.44 1036.11 1143.03 1052.79 1137.32C1072.94 1130.32 1087.16 1119.24 1092.84 1106.07C1098.21 1093.66 1095.37 1080.82 1084.9 1069.63L1071.7 1074.21L1011.45 1095.18L1001.17 1143Z" fill="white"/>
<path d="M948.257 1056.24L1000.79 1086.55L985.325 1044.52C972.361 1046.15 959.8 1050.12 948.257 1056.24V1056.24Z" fill="#008DB9"/>
<path d="M1003.32 1111.91V1094.63L992.849 1143.88V1161.16L1003.32 1111.91Z" fill="#008DB9"/>
<path opacity="0.55" d="M1003.32 1111.91V1094.63L992.849 1143.88V1161.16L1003.32 1111.91Z" fill="black"/>
<path d="M1070.32 1017.68L1058.88 1024.3L1070.32 1030.91L1081.76 1024.3L1070.32 1017.68Z" fill="#008DB9"/>
<path opacity="0.3" d="M1070.32 1017.68L1058.88 1024.3L1070.32 1030.91L1081.76 1024.3L1070.32 1017.68Z" fill="black"/>
<path d="M1081.76 1024.29V1030.91L1070.32 1037.52V1030.91L1081.76 1024.29Z" fill="#008DB9"/>
<path opacity="0.4" d="M1081.76 1024.29V1030.91L1070.32 1037.52V1030.91L1081.76 1024.29Z" fill="black"/>
<path d="M1070.32 1030.91V1037.52L1058.88 1030.91V1024.29L1070.32 1030.91Z" fill="#008DB9"/>
<path opacity="0.55" d="M1070.32 1030.91V1037.52L1058.88 1030.91V1024.29L1070.32 1030.91Z" fill="black"/>
<path d="M1087.79 1012.55L1130.18 988.081C1131.54 987.362 1133.06 986.973 1134.6 986.944C1136.14 986.915 1137.67 987.248 1139.05 987.916C1141.42 989.294 1141.31 991.581 1138.78 993.042L1096.39 1017.52C1095.03 1018.24 1093.52 1018.63 1091.97 1018.66C1090.43 1018.69 1088.91 1018.35 1087.52 1017.68C1085.12 1016.33 1085.26 1014.01 1087.79 1012.55Z" fill="#E0E0E0"/>
<path d="M1096.09 1032.59L1084.65 1039.18L1096.09 1045.79L1107.55 1039.18L1096.09 1032.59Z" fill="#008DB9"/>
<path opacity="0.88" d="M1096.09 1032.59L1084.65 1039.18L1096.09 1045.79L1107.55 1039.18L1096.09 1032.59Z" fill="white"/>
<path d="M1107.55 1039.18V1045.79L1096.09 1052.41V1045.79L1107.55 1039.18Z" fill="#008DB9"/>
<path opacity="0.75" d="M1107.55 1039.18V1045.79L1096.09 1052.41V1045.79L1107.55 1039.18Z" fill="white"/>
<path d="M1096.09 1045.79V1052.41L1084.65 1045.79V1039.18L1096.09 1045.79Z" fill="#008DB9"/>
<path opacity="0.6" d="M1096.09 1045.79V1052.41L1084.65 1045.79V1039.18L1096.09 1045.79Z" fill="white"/>
<path d="M1113.56 1027.46L1155.95 1002.96C1157.32 1002.24 1158.83 1001.85 1160.38 1001.83C1161.93 1001.8 1163.46 1002.13 1164.85 1002.8C1167.22 1004.18 1167.08 1006.46 1164.55 1007.92L1122.16 1032.42C1120.8 1033.15 1119.28 1033.53 1117.74 1033.56C1116.2 1033.58 1114.67 1033.24 1113.29 1032.56C1110.92 1031.21 1111.03 1028.9 1113.56 1027.46Z" fill="#E0E0E0"/>
<path d="M1121.88 1047.45L1110.45 1054.06L1121.88 1060.67L1133.32 1054.06L1121.88 1047.45Z" fill="#008DB9"/>
<path opacity="0.3" d="M1121.88 1047.45L1110.45 1054.06L1121.88 1060.67L1133.32 1054.06L1121.88 1047.45Z" fill="white"/>
<path d="M1133.32 1054.06V1060.67L1121.88 1067.29V1060.67L1133.32 1054.06Z" fill="#008DB9"/>
<path d="M1121.88 1060.67V1067.29L1110.45 1060.67V1054.06L1121.88 1060.67Z" fill="#008DB9"/>
<path opacity="0.1" d="M1121.88 1060.67V1067.29L1110.45 1060.67V1054.06L1121.88 1060.67Z" fill="black"/>
<path d="M1139.36 1042.35L1181.75 1017.85C1183.11 1017.13 1184.62 1016.74 1186.16 1016.71C1187.7 1016.68 1189.23 1017.01 1190.62 1017.68C1192.99 1019.06 1192.85 1021.35 1190.34 1022.81L1147.93 1047.28C1146.57 1048 1145.05 1048.39 1143.51 1048.41C1141.97 1048.44 1140.44 1048.1 1139.05 1047.42C1136.68 1046.09 1136.82 1043.81 1139.36 1042.35Z" fill="#E0E0E0"/>
<path d="M1147.65 1062.33L1136.22 1068.94L1147.65 1075.56L1159.09 1068.94L1147.65 1062.33Z" fill="#455A64"/>
<path d="M1159.09 1068.94V1075.56L1147.65 1082.17V1075.56L1159.09 1068.94Z" fill="#37474F"/>
<path d="M1147.65 1075.56V1082.17L1136.22 1075.56V1068.94L1147.65 1075.56Z" fill="#263238"/>
<path d="M1165.13 1057.23L1207.51 1032.73C1208.88 1032.01 1210.39 1031.62 1211.93 1031.59C1213.48 1031.57 1215 1031.91 1216.39 1032.59C1218.76 1033.94 1218.65 1036.23 1216.11 1037.69L1173.73 1062.19C1172.36 1062.91 1170.85 1063.3 1169.31 1063.33C1167.77 1063.36 1166.24 1063.02 1164.85 1062.36C1162.48 1061.06 1162.59 1058.69 1165.13 1057.23Z" fill="#E0E0E0"/>
<g opacity="0.3">
<path opacity="0.3" d="M960.769 986.4C960.547 986.401 960.328 986.344 960.135 986.235L878.503 939.107C878.313 938.991 878.155 938.83 878.044 938.637C877.934 938.444 877.873 938.227 877.869 938.005C877.87 937.785 877.929 937.57 878.041 937.382C878.152 937.193 878.311 937.037 878.503 936.93L980.475 878.006C980.663 877.898 980.877 877.84 981.095 877.84C981.312 877.84 981.526 877.898 981.715 878.006L1063.37 925.134C1063.57 925.247 1063.72 925.409 1063.83 925.603C1063.93 925.797 1063.99 926.015 1063.98 926.236C1063.99 926.453 1063.93 926.668 1063.83 926.857C1063.72 927.046 1063.56 927.203 1063.37 927.311L961.403 986.235C961.21 986.344 960.991 986.401 960.769 986.4V986.4ZM881.644 938.005L960.769 983.699L1060.32 926.236L981.136 880.542L881.644 938.005Z" fill="#008DB9"/>
</g>
<path d="M960.769 973.364V608.387L899.531 573.027V938.004L960.769 973.364Z" fill="#008DB9"/>
<path opacity="0.2" d="M960.769 973.364V608.387L899.531 573.027V938.004L960.769 973.364Z" fill="black"/>
<path d="M960.769 973.364L1042.4 926.236L1042.43 561.259L960.769 608.387V973.364Z" fill="#008DB9"/>
<path d="M1042.43 561.259L981.191 525.9L899.531 573.027L960.769 608.387L1042.43 561.259Z" fill="#008DB9"/>
<path opacity="0.25" d="M1042.43 561.259L981.191 525.9L899.531 573.027L960.769 608.387L1042.43 561.259Z" fill="white"/>
<path opacity="0.3" d="M1042.43 561.259L959.942 606.733L933.154 591.768L899.531 573.027L932.603 592.816L959.694 608.966C959.033 618.171 958.867 936.02 958.978 945.198C959.048 954.613 959.656 964.017 960.797 973.364C961.928 964.017 962.527 954.613 962.588 945.198C962.588 936.296 962.588 618.749 961.927 609.848L1042.43 561.259Z" fill="white"/>
<g opacity="0.3">
<path opacity="0.3" d="M807.673 1074.84C807.452 1074.84 807.234 1074.78 807.039 1074.67L725.407 1027.55C725.217 1027.43 725.06 1027.27 724.949 1027.08C724.838 1026.88 724.777 1026.67 724.773 1026.44C724.774 1026.23 724.834 1026.01 724.945 1025.82C725.056 1025.63 725.216 1025.48 725.407 1025.37L827.379 966.447C827.572 966.338 827.791 966.281 828.013 966.281C828.235 966.281 828.453 966.338 828.647 966.447L910.279 1013.57C910.475 1013.68 910.638 1013.84 910.752 1014.03C910.865 1014.22 910.925 1014.44 910.925 1014.66C910.925 1014.89 910.865 1015.1 910.752 1015.3C910.638 1015.49 910.475 1015.64 910.279 1015.75L808.307 1074.67C808.114 1074.78 807.896 1074.84 807.673 1074.84ZM728.549 1026.44L807.673 1072.08L907.22 1014.62L828.095 968.927L728.549 1026.44Z" fill="#008DB9"/>
</g>
<path d="M807.673 1061.75V802.492L746.435 767.133V1026.39L807.673 1061.75Z" fill="#008DB9"/>
<path opacity="0.1" d="M807.673 1061.75V802.492L746.435 767.133V1026.39L807.673 1061.75Z" fill="white"/>
<path d="M807.673 1061.75L889.334 1014.59V755.365L807.673 802.492V1061.75Z" fill="#008DB9"/>
<path opacity="0.3" d="M807.673 1061.75L889.334 1014.59V755.365L807.673 802.492V1061.75Z" fill="white"/>
<path d="M889.334 755.364L828.095 720.005L746.435 767.133L807.673 802.492L889.334 755.364Z" fill="#008DB9"/>
<path opacity="0.55" d="M889.334 755.364L828.095 720.005L746.435 767.133L807.673 802.492L889.334 755.364Z" fill="white"/>
<path opacity="0.3" d="M808.748 803.981L889.334 755.365L806.847 800.839C797.945 795.795 789.015 790.834 780.086 785.874L746.435 767.133L779.507 786.893C788.547 792.405 797.559 797.752 806.626 803.071C806.351 812.607 806.047 882.168 805.965 891.704C805.882 901.24 805.827 993.676 805.965 1003.38C806.103 1013.08 806.185 1022.83 806.488 1032.56C806.792 1042.29 807.15 1052.02 807.756 1061.75C808.39 1052.02 808.776 1042.29 809.024 1032.56C809.272 1022.83 809.492 1013.11 809.547 1003.38C809.603 993.649 809.547 901.405 809.547 891.704C809.327 882.471 809.024 813.213 808.748 803.981Z" fill="white"/>
<g opacity="0.3">
<path opacity="0.3" d="M654.605 1163.17C654.383 1163.17 654.164 1163.11 653.971 1163L572.311 1115.88C572.125 1115.76 571.971 1115.6 571.865 1115.4C571.759 1115.21 571.704 1114.99 571.705 1114.77C571.7 1114.56 571.754 1114.34 571.861 1114.15C571.967 1113.97 572.123 1113.81 572.311 1113.7L674.283 1054.78C674.471 1054.67 674.685 1054.61 674.903 1054.61C675.121 1054.61 675.335 1054.67 675.523 1054.78L757.183 1101.9C757.374 1102.02 757.53 1102.18 757.637 1102.37C757.743 1102.57 757.796 1102.79 757.79 1103.01C757.794 1103.22 757.74 1103.44 757.634 1103.63C757.527 1103.82 757.371 1103.97 757.183 1104.08L655.211 1163C655.028 1163.11 654.818 1163.17 654.605 1163.17V1163.17ZM575.453 1114.77L654.605 1160.47L754.152 1103.01L674.999 1057.31L575.453 1114.77Z" fill="#008DB9"/>
</g>
<path d="M654.605 1150.13L654.577 973.364L593.339 938.004L593.367 1114.77L654.605 1150.13Z" fill="#008DB9"/>
<path opacity="0.45" d="M654.605 1150.13L654.577 973.364L593.339 938.004L593.367 1114.77L654.605 1150.13Z" fill="black"/>
<path d="M654.605 1150.13L736.238 1102.98L736.265 926.236L654.578 973.364L654.605 1150.13Z" fill="#008DB9"/>
<path opacity="0.3" d="M654.605 1150.13L736.238 1102.98L736.265 926.236L654.578 973.364L654.605 1150.13Z" fill="black"/>
<path d="M736.265 926.236L675.027 890.877L593.339 938.005L654.577 973.364L736.265 926.236Z" fill="#008DB9"/>
<path opacity="0.15" d="M736.265 926.236L675.027 890.877L593.339 938.005L654.577 973.364L736.265 926.236Z" fill="black"/>
<path opacity="0.3" d="M736.265 926.236L653.778 971.683L626.99 956.745L593.339 938.005L626.411 957.765L653.503 973.943C652.869 979.455 652.703 1127.18 652.814 1132.77C652.873 1138.6 653.482 1144.42 654.633 1150.13C655.76 1144.41 656.36 1138.6 656.424 1132.77C656.424 1127.45 656.424 980.116 655.818 974.797L736.265 926.236Z" fill="white"/>
<g opacity="0.3">
<path opacity="0.3" d="M1113.84 898.015C1113.62 898.012 1113.42 897.955 1113.23 897.85L1031.57 850.722C1031.38 850.609 1031.22 850.447 1031.11 850.254C1031 850.061 1030.94 849.843 1030.94 849.62C1030.94 849.401 1031 849.186 1031.11 848.997C1031.22 848.808 1031.38 848.652 1031.57 848.545L1133.54 789.622C1133.74 789.513 1133.95 789.456 1134.18 789.456C1134.4 789.456 1134.62 789.513 1134.81 789.622L1216.44 836.749C1216.64 836.856 1216.8 837.013 1216.92 837.205C1217.03 837.397 1217.09 837.615 1217.09 837.838C1217.09 838.061 1217.03 838.279 1216.92 838.471C1216.8 838.662 1216.64 838.82 1216.44 838.927L1114.47 897.85C1114.28 897.96 1114.06 898.017 1113.84 898.015ZM1034.71 849.62L1113.84 895.314L1213.38 837.824L1134.26 792.13L1034.71 849.62Z" fill="#008DB9"/>
</g>
<path d="M1113.84 884.979V353.925L1052.6 318.566L1052.63 849.62L1113.84 884.979Z" fill="#008DB9"/>
<path opacity="0.3" d="M1113.84 884.979V353.925L1052.6 318.566L1052.63 849.62L1113.84 884.979Z" fill="white"/>
<path d="M1113.84 884.979L1195.5 837.852V306.798L1113.84 353.925V884.979Z" fill="#008DB9"/>
<path opacity="0.55" d="M1113.84 884.979L1195.5 837.852V306.798L1113.84 353.925V884.979Z" fill="white"/>
<path d="M1195.5 306.798L1134.26 271.438L1052.6 318.566L1113.84 353.926L1195.5 306.798Z" fill="#008DB9"/>
<path opacity="0.75" d="M1195.5 306.798L1134.26 271.438L1052.6 318.566L1113.84 353.926L1195.5 306.798Z" fill="white"/>
<path opacity="0.3" d="M1114.91 355.524L1195.5 306.881L1113.01 352.355C1104.14 347.311 1095.18 342.351 1086.25 337.39L1052.6 318.649L1085.67 338.437C1094.71 343.949 1103.72 349.268 1112.82 354.587C1112.51 365.391 1112.21 376.194 1112.13 386.998C1112.05 397.801 1112.13 808.087 1112.13 819.084C1112.13 830.08 1112.35 841.132 1112.68 852.156C1113.01 863.18 1113.31 874.204 1113.95 885.228C1114.55 874.204 1114.94 863.18 1115.19 852.156C1115.44 841.132 1115.68 830.108 1115.74 819.084C1115.79 808.06 1115.74 397.994 1115.74 386.998C1115.49 376.442 1115.22 365.942 1114.91 355.524Z" fill="white"/>
<path d="M974.577 417.368L905.98 456.972C904.08 458.211 902.499 459.879 901.365 461.842C900.23 463.805 899.573 466.008 899.448 468.272V523.915C899.448 528.077 902.369 529.758 905.98 527.691L931.252 513.057L938.032 524.77C938.327 525.298 938.77 525.728 939.306 526.009C939.842 526.289 940.449 526.407 941.051 526.349C941.653 526.29 942.225 526.058 942.697 525.679C943.169 525.301 943.521 524.793 943.709 524.219L951.674 501.289L974.577 488.087C976.481 486.852 978.068 485.185 979.207 483.222C980.347 481.259 981.008 479.054 981.136 476.788V421.144C981.136 416.983 978.187 415.301 974.577 417.368Z" fill="#FAFAFA"/>
<path d="M903.058 530.061C902.205 530.067 901.366 529.838 900.633 529.4C899.712 528.822 898.968 528.002 898.482 527.03C897.996 526.058 897.787 524.971 897.877 523.888V468.272C898 465.752 898.721 463.297 899.982 461.112C901.242 458.926 903.006 457.072 905.125 455.704L973.833 416.156C974.715 415.546 975.745 415.181 976.815 415.098C977.885 415.016 978.957 415.219 979.923 415.687C980.838 416.272 981.577 417.092 982.062 418.063C982.547 419.033 982.76 420.117 982.679 421.199V476.788C982.558 479.311 981.834 481.769 980.569 483.956C979.303 486.142 977.532 487.994 975.403 489.355L952.997 502.281L945.225 524.715C944.933 525.553 944.407 526.289 943.708 526.837C943.009 527.384 942.168 527.719 941.284 527.801C940.405 527.874 939.522 527.698 938.738 527.293C937.953 526.889 937.298 526.272 936.847 525.514L930.839 515.069L906.834 528.849C905.706 529.582 904.403 530.001 903.058 530.061V530.061ZM977.47 417.947C976.699 417.995 975.952 418.231 975.293 418.636V418.636L906.724 458.24C905.048 459.352 903.651 460.835 902.642 462.575C901.634 464.315 901.04 466.265 900.909 468.272V523.915C900.843 524.467 900.917 525.026 901.124 525.542C901.331 526.057 901.665 526.512 902.094 526.864C902.612 527.065 903.172 527.13 903.722 527.053C904.272 526.976 904.793 526.759 905.236 526.423L931.804 511.072L939.3 524.053C939.458 524.331 939.693 524.556 939.977 524.703C940.26 524.85 940.58 524.911 940.898 524.88C941.221 524.85 941.527 524.727 941.782 524.526C942.036 524.326 942.227 524.056 942.331 523.75L950.462 500.269L973.833 486.82C975.505 485.707 976.898 484.222 977.902 482.482C978.906 480.742 979.494 478.793 979.62 476.788V421.144C979.692 420.595 979.623 420.036 979.421 419.521C979.219 419.005 978.889 418.549 978.463 418.195C978.161 418.024 977.818 417.938 977.47 417.947V417.947Z" fill="#E0E0E0"/>
<path d="M914.772 506.194C914.548 506.195 914.329 506.137 914.135 506.026C913.942 505.914 913.781 505.754 913.669 505.56C913.586 505.418 913.532 505.26 913.511 505.097C913.489 504.933 913.501 504.767 913.544 504.608C913.588 504.448 913.663 504.3 913.765 504.17C913.867 504.04 913.993 503.932 914.138 503.852L965.151 474.39C965.294 474.283 965.458 474.208 965.633 474.169C965.807 474.131 965.987 474.129 966.162 474.165C966.337 474.201 966.502 474.273 966.648 474.377C966.793 474.481 966.914 474.615 967.004 474.769C967.094 474.923 967.15 475.095 967.169 475.272C967.188 475.45 967.169 475.629 967.114 475.799C967.059 475.969 966.968 476.125 966.848 476.257C966.729 476.39 966.582 476.495 966.419 476.567L915.378 506.029C915.193 506.134 914.984 506.191 914.772 506.194V506.194Z" fill="#E0E0E0"/>
<path d="M914.772 494.399C914.548 494.4 914.329 494.341 914.135 494.23C913.942 494.119 913.781 493.958 913.669 493.765C913.586 493.622 913.532 493.465 913.511 493.301C913.489 493.137 913.501 492.971 913.544 492.812C913.588 492.653 913.663 492.504 913.765 492.374C913.867 492.244 913.993 492.136 914.138 492.056L965.151 462.595C965.445 462.433 965.79 462.391 966.114 462.478C966.438 462.566 966.715 462.775 966.887 463.063C967.048 463.353 967.089 463.693 967.001 464.013C966.914 464.332 966.705 464.605 966.419 464.772L915.378 494.233C915.193 494.339 914.984 494.395 914.772 494.399V494.399Z" fill="#E0E0E0"/>
<path d="M914.772 482.63C914.548 482.631 914.329 482.573 914.135 482.462C913.942 482.35 913.781 482.19 913.669 481.996C913.586 481.854 913.532 481.696 913.511 481.533C913.489 481.369 913.501 481.203 913.544 481.044C913.588 480.884 913.663 480.736 913.765 480.606C913.867 480.476 913.993 480.368 914.138 480.288L965.151 450.826C965.294 450.719 965.458 450.644 965.633 450.605C965.807 450.567 965.987 450.565 966.162 450.601C966.337 450.637 966.502 450.709 966.648 450.813C966.793 450.917 966.914 451.051 967.004 451.205C967.094 451.359 967.15 451.531 967.169 451.708C967.188 451.886 967.169 452.065 967.114 452.235C967.059 452.405 966.968 452.561 966.848 452.693C966.729 452.826 966.582 452.931 966.419 453.003L915.378 482.465C915.193 482.57 914.984 482.627 914.772 482.63V482.63Z" fill="#E0E0E0"/>
<path d="M914.771 470.835C914.551 470.836 914.334 470.781 914.142 470.674C913.949 470.568 913.786 470.415 913.669 470.228C913.585 470.084 913.531 469.924 913.509 469.758C913.487 469.593 913.499 469.424 913.542 469.263C913.586 469.101 913.661 468.95 913.763 468.818C913.865 468.686 913.992 468.575 914.137 468.492L965.151 439.031C965.445 438.869 965.79 438.827 966.114 438.914C966.438 439.002 966.715 439.211 966.887 439.499C967.048 439.789 967.089 440.129 967.001 440.449C966.914 440.768 966.705 441.041 966.419 441.208L915.378 470.669C915.193 470.775 914.984 470.831 914.771 470.835V470.835Z" fill="#008DB9"/>
<path d="M821.564 611.446L752.967 651.049C751.064 652.285 749.481 653.952 748.346 655.916C747.211 657.88 746.556 660.084 746.435 662.349V717.965C746.435 722.127 749.356 723.835 752.967 721.741L778.239 707.134L785.019 718.847C785.322 719.365 785.767 719.785 786.301 720.058C786.836 720.331 787.437 720.445 788.034 720.387C788.631 720.329 789.199 720.101 789.671 719.731C790.143 719.36 790.499 718.862 790.696 718.296L798.661 695.338L821.564 682.137C823.466 680.902 825.049 679.234 826.185 677.271C827.32 675.307 827.974 673.103 828.095 670.838V615.194C828.095 611.032 825.174 609.351 821.564 611.446Z" fill="#FAFAFA"/>
<path d="M750.045 724.111C749.196 724.113 748.36 723.895 747.62 723.477C746.706 722.893 745.967 722.072 745.482 721.102C744.996 720.131 744.783 719.047 744.864 717.965V662.349C744.987 659.825 745.708 657.367 746.968 655.177C748.229 652.987 749.992 651.128 752.112 649.754L820.709 610.151C821.572 609.519 822.599 609.152 823.667 609.094C824.735 609.036 825.796 609.289 826.722 609.824C827.648 610.358 828.398 611.151 828.882 612.104C829.366 613.058 829.561 614.131 829.446 615.194V670.838C829.327 673.362 828.604 675.82 827.338 678.007C826.072 680.194 824.3 682.045 822.17 683.405L799.764 696.331L791.992 718.764C791.706 719.606 791.181 720.347 790.481 720.895C789.781 721.443 788.936 721.775 788.051 721.851C787.168 721.944 786.278 721.777 785.49 721.371C784.702 720.964 784.049 720.336 783.613 719.564L777.605 709.118L753.601 722.898C752.542 723.607 751.316 724.025 750.045 724.111V724.111ZM822.28 612.714L753.711 652.317C752.03 653.424 750.63 654.907 749.621 656.648C748.612 658.389 748.021 660.341 747.896 662.349V717.965C747.721 718.521 747.741 719.119 747.952 719.661C748.163 720.204 748.552 720.658 749.056 720.95C749.559 721.242 750.147 721.354 750.723 721.267C751.298 721.18 751.827 720.901 752.223 720.473L778.79 705.122L786.287 718.103C786.436 718.388 786.67 718.62 786.956 718.768C787.242 718.916 787.566 718.972 787.885 718.93C788.211 718.91 788.523 718.792 788.779 718.59C789.035 718.388 789.223 718.112 789.318 717.8L797.586 694.346L820.957 680.87C822.631 679.758 824.025 678.274 825.029 676.533C826.033 674.793 826.621 672.843 826.745 670.838V615.194C826.814 614.645 826.744 614.087 826.542 613.572C826.34 613.057 826.012 612.601 825.587 612.245C825.064 612.043 824.496 611.98 823.941 612.062C823.386 612.144 822.861 612.369 822.418 612.714H822.28Z" fill="#E0E0E0"/>
<path d="M761.758 700.244C761.535 700.245 761.315 700.187 761.122 700.075C760.928 699.964 760.767 699.804 760.656 699.61C760.573 699.468 760.519 699.31 760.497 699.146C760.476 698.983 760.487 698.817 760.531 698.657C760.575 698.498 760.65 698.349 760.751 698.22C760.853 698.09 760.98 697.982 761.124 697.901L812.138 668.44C812.281 668.333 812.445 668.258 812.619 668.219C812.794 668.18 812.974 668.179 813.149 668.215C813.324 668.25 813.489 668.323 813.634 668.427C813.779 668.531 813.901 668.665 813.991 668.819C814.08 668.973 814.137 669.145 814.156 669.322C814.174 669.5 814.156 669.679 814.101 669.849C814.045 670.019 813.955 670.175 813.835 670.307C813.715 670.44 813.569 670.545 813.406 670.617L762.364 700.024C762.185 700.148 761.976 700.224 761.758 700.244V700.244Z" fill="#008DB9"/>
<path d="M761.758 688.476C761.535 688.477 761.315 688.419 761.122 688.307C760.928 688.196 760.767 688.035 760.656 687.842C760.573 687.7 760.519 687.542 760.497 687.378C760.476 687.215 760.487 687.048 760.531 686.889C760.575 686.73 760.65 686.581 760.751 686.452C760.853 686.322 760.98 686.214 761.124 686.133L812.138 656.672C812.281 656.565 812.445 656.49 812.619 656.451C812.794 656.412 812.974 656.411 813.149 656.447C813.324 656.482 813.489 656.555 813.634 656.659C813.779 656.763 813.901 656.896 813.991 657.051C814.08 657.205 814.137 657.377 814.156 657.554C814.174 657.732 814.156 657.911 814.101 658.081C814.045 658.251 813.955 658.407 813.835 658.539C813.715 658.671 813.569 658.777 813.406 658.849L762.364 688.311C762.179 688.416 761.971 688.473 761.758 688.476Z" fill="#E0E0E0"/>
<path d="M761.758 676.68C761.535 676.681 761.315 676.623 761.122 676.512C760.928 676.4 760.767 676.24 760.656 676.046C760.573 675.904 760.519 675.746 760.497 675.583C760.476 675.419 760.487 675.253 760.531 675.094C760.575 674.934 760.65 674.786 760.751 674.656C760.853 674.526 760.98 674.418 761.124 674.338L812.138 644.904C812.282 644.82 812.442 644.765 812.608 644.744C812.774 644.722 812.942 644.733 813.103 644.777C813.265 644.82 813.416 644.895 813.548 644.997C813.681 645.1 813.791 645.227 813.874 645.372C814.035 645.662 814.076 646.003 813.988 646.322C813.9 646.641 813.691 646.914 813.406 647.081L762.364 676.542C762.177 676.638 761.969 676.685 761.758 676.68V676.68Z" fill="#E0E0E0"/>
<path d="M761.758 664.912C761.535 664.913 761.315 664.855 761.122 664.744C760.928 664.632 760.767 664.472 760.656 664.279C760.573 664.136 760.519 663.978 760.497 663.815C760.476 663.651 760.487 663.485 760.531 663.326C760.575 663.167 760.65 663.018 760.751 662.888C760.853 662.758 760.98 662.65 761.124 662.57L812.138 633.108C812.281 633.002 812.445 632.927 812.619 632.888C812.794 632.849 812.974 632.847 813.149 632.883C813.324 632.919 813.489 632.991 813.634 633.095C813.779 633.199 813.901 633.333 813.991 633.487C814.08 633.642 814.137 633.813 814.156 633.991C814.174 634.168 814.156 634.348 814.101 634.517C814.045 634.687 813.955 634.843 813.835 634.976C813.715 635.108 813.569 635.214 813.406 635.286L762.364 664.747C762.179 664.852 761.971 664.909 761.758 664.912V664.912Z" fill="#E0E0E0"/>
<path d="M668.523 782.29L599.926 821.894C598.024 823.129 596.44 824.796 595.305 826.76C594.17 828.724 593.515 830.928 593.394 833.193V888.809C593.394 892.971 596.316 894.68 599.926 892.585L625.199 877.978L631.978 889.691C632.286 890.207 632.734 890.625 633.27 890.896C633.806 891.167 634.408 891.281 635.005 891.223C635.603 891.165 636.172 890.939 636.646 890.57C637.121 890.201 637.48 889.705 637.683 889.14L645.62 866.183L668.523 852.981C670.425 851.746 672.009 850.079 673.144 848.115C674.279 846.151 674.934 843.947 675.055 841.682V786.038C675.055 781.877 672.133 780.195 668.523 782.29Z" fill="#FAFAFA"/>
<path d="M597.005 894.956C596.156 894.954 595.321 894.736 594.579 894.322C593.665 893.737 592.926 892.916 592.441 891.946C591.956 890.975 591.742 889.892 591.823 888.81V833.194C591.945 830.666 592.668 828.205 593.934 826.014C595.2 823.823 596.971 821.966 599.099 820.599L667.669 780.995C668.531 780.363 669.559 779.996 670.626 779.938C671.694 779.88 672.755 780.133 673.681 780.668C674.607 781.203 675.358 781.995 675.841 782.948C676.325 783.902 676.521 784.975 676.405 786.038V841.682C676.287 844.203 675.567 846.659 674.307 848.846C673.046 851.032 671.28 852.885 669.157 854.249L646.723 867.175L638.951 889.609C638.654 890.425 638.131 891.141 637.444 891.673C636.758 892.205 635.934 892.532 635.069 892.616C634.204 892.699 633.333 892.536 632.557 892.146C631.781 891.755 631.131 891.153 630.683 890.408L624.647 879.963L600.643 893.743C599.56 894.465 598.304 894.884 597.005 894.956ZM669.267 783.558L600.808 823.162C599.131 824.27 597.735 825.754 596.731 827.495C595.726 829.236 595.141 831.187 595.02 833.194V888.81C594.949 889.363 595.017 889.925 595.22 890.445C595.422 890.965 595.751 891.426 596.178 891.786C596.704 891.973 597.268 892.028 597.821 891.946C598.373 891.865 598.898 891.649 599.347 891.318L625.888 875.967L633.384 888.947C633.547 889.222 633.786 889.445 634.072 889.589C634.357 889.733 634.678 889.793 634.996 889.761C635.315 889.729 635.617 889.607 635.869 889.409C636.12 889.212 636.31 888.946 636.416 888.644L644.546 865.191L667.779 851.604C669.456 850.494 670.854 849.01 671.863 847.27C672.872 845.529 673.464 843.579 673.594 841.572V786.038C673.66 785.487 673.586 784.928 673.379 784.412C673.172 783.897 672.838 783.442 672.409 783.089C671.89 782.887 671.327 782.824 670.776 782.906C670.225 782.988 669.704 783.213 669.267 783.558V783.558Z" fill="#E0E0E0"/>
<path d="M608.718 871.089C608.434 871.105 608.153 871.022 607.922 870.856C607.692 870.69 607.525 870.449 607.451 870.174C607.377 869.9 607.399 869.608 607.514 869.348C607.629 869.088 607.831 868.875 608.084 868.746L659.125 839.284C659.414 839.12 659.756 839.077 660.076 839.165C660.235 839.208 660.383 839.283 660.513 839.383C660.643 839.484 660.752 839.61 660.834 839.753C660.915 839.896 660.967 840.053 660.988 840.217C661.009 840.38 660.997 840.546 660.953 840.704C660.91 840.863 660.835 841.011 660.734 841.141C660.634 841.271 660.508 841.38 660.365 841.462L609.352 870.896C609.16 871.012 608.942 871.078 608.718 871.089V871.089Z" fill="#E0E0E0"/>
<path d="M608.718 859.32C608.494 859.321 608.275 859.263 608.081 859.152C607.888 859.04 607.727 858.88 607.615 858.686C607.455 858.397 607.414 858.056 607.501 857.737C607.589 857.417 607.798 857.145 608.084 856.978L659.125 827.516C659.266 827.432 659.422 827.376 659.584 827.353C659.747 827.33 659.912 827.339 660.071 827.38C660.23 827.421 660.379 827.493 660.51 827.592C660.641 827.691 660.751 827.815 660.834 827.957C660.995 828.251 661.037 828.596 660.95 828.92C660.862 829.244 660.653 829.521 660.365 829.693L609.352 859.155C609.157 859.261 608.939 859.318 608.718 859.32Z" fill="#E0E0E0"/>
<path d="M608.718 847.525C608.434 847.541 608.153 847.458 607.922 847.292C607.692 847.126 607.525 846.885 607.451 846.61C607.377 846.336 607.399 846.044 607.514 845.784C607.629 845.524 607.831 845.312 608.084 845.182L659.125 815.776C659.268 815.694 659.425 815.642 659.589 815.621C659.752 815.601 659.918 815.612 660.076 815.656C660.235 815.699 660.383 815.774 660.513 815.875C660.643 815.976 660.752 816.101 660.834 816.244C660.915 816.387 660.967 816.545 660.988 816.708C661.009 816.871 660.997 817.037 660.953 817.195C660.91 817.354 660.835 817.503 660.734 817.633C660.634 817.763 660.508 817.871 660.365 817.953L609.352 847.359C609.157 847.466 608.939 847.522 608.718 847.525Z" fill="#008DB9"/>
<path d="M608.718 835.757C608.494 835.757 608.275 835.699 608.081 835.588C607.888 835.477 607.727 835.316 607.615 835.123C607.455 834.833 607.414 834.492 607.501 834.173C607.589 833.854 607.798 833.581 608.084 833.414L659.125 803.952C659.411 803.79 659.75 803.745 660.069 803.827C660.387 803.909 660.662 804.112 660.834 804.393C660.995 804.687 661.037 805.032 660.95 805.356C660.862 805.68 660.653 805.957 660.365 806.13L609.352 835.591C609.157 835.698 608.939 835.754 608.718 835.757Z" fill="#E0E0E0"/>
<path d="M1127.73 162.88L1059.13 202.483C1057.23 203.718 1055.65 205.386 1054.51 207.35C1053.37 209.314 1052.72 211.518 1052.6 213.783V269.427C1052.6 273.588 1055.52 275.269 1059.13 273.175L1084.4 258.568L1091.18 270.281C1091.48 270.807 1091.93 271.235 1092.47 271.513C1093 271.792 1093.61 271.909 1094.21 271.851C1094.82 271.792 1095.39 271.561 1095.86 271.185C1096.34 270.809 1096.69 270.303 1096.89 269.73L1104.83 246.772L1127.73 233.571C1129.63 232.336 1131.21 230.668 1132.35 228.704C1133.48 226.741 1134.14 224.536 1134.26 222.271V166.655C1134.26 162.604 1131.34 160.785 1127.73 162.88Z" fill="#FAFAFA"/>
<path d="M1056.21 275.6C1055.36 275.598 1054.53 275.38 1053.78 274.966C1052.87 274.384 1052.13 273.563 1051.64 272.592C1051.16 271.621 1050.94 270.536 1051.03 269.454V213.783C1051.14 211.254 1051.86 208.79 1053.13 206.598C1054.4 204.406 1056.17 202.55 1058.3 201.188L1126.87 161.584C1127.74 160.952 1128.76 160.585 1129.83 160.527C1130.9 160.469 1131.96 160.723 1132.89 161.257C1133.81 161.792 1134.56 162.584 1135.05 163.538C1135.53 164.491 1135.73 165.565 1135.61 166.628V222.271C1135.49 224.795 1134.77 227.253 1133.51 229.443C1132.25 231.633 1130.48 233.492 1128.36 234.866L1105.93 247.764L1098.27 270.088C1097.99 270.928 1097.47 271.667 1096.77 272.215C1096.07 272.763 1095.23 273.097 1094.35 273.175C1093.47 273.275 1092.58 273.111 1091.79 272.704C1091 272.297 1090.35 271.664 1089.92 270.887L1083.88 260.469L1059.88 274.249C1058.8 275.025 1057.53 275.492 1056.21 275.6V275.6ZM1128.47 164.202L1059.88 203.751C1058.2 204.862 1056.81 206.347 1055.8 208.087C1054.8 209.828 1054.21 211.777 1054.09 213.783V269.426C1053.92 269.98 1053.95 270.572 1054.17 271.107C1054.38 271.642 1054.77 272.09 1055.27 272.376C1055.77 272.663 1056.35 272.773 1056.92 272.688C1057.49 272.603 1058.02 272.327 1058.41 271.907L1084.95 256.556L1092.45 269.537C1092.6 269.822 1092.83 270.054 1093.12 270.202C1093.41 270.35 1093.73 270.406 1094.05 270.363C1094.37 270.346 1094.68 270.231 1094.94 270.034C1095.19 269.838 1095.38 269.568 1095.48 269.261L1103.61 245.78L1126.98 232.303C1128.65 231.184 1130.03 229.697 1131.02 227.957C1132.02 226.217 1132.6 224.272 1132.72 222.271V166.655C1132.89 166.1 1132.87 165.502 1132.66 164.959C1132.45 164.417 1132.06 163.962 1131.56 163.67C1131.05 163.378 1130.46 163.267 1129.89 163.353C1129.31 163.44 1128.78 163.72 1128.39 164.147L1128.47 164.202Z" fill="#E0E0E0"/>
<path d="M1089.31 239.772C1089.31 238.104 1089.69 236.459 1090.42 234.96C1091.15 233.461 1092.21 232.148 1093.53 231.118C1095.76 229.85 1097.55 231.724 1097.55 235.004C1097.6 236.683 1097.26 238.351 1096.56 239.88C1095.86 241.408 1094.82 242.757 1093.53 243.823C1091.16 245.284 1089.31 243.3 1089.31 239.772ZM1089.81 197.164L1097.27 192.92L1095.79 224.834L1091.29 227.425L1089.81 197.164Z" fill="#008DB9"/>
</svg>
