<svg width="1068" height="795" viewBox="0 0 1068 795" fill="none" xmlns="http://www.w3.org/2000/svg">
<path d="M156.864 709.952C365.127 818.763 702.827 818.763 911.136 709.952C1119.45 601.141 1119.42 424.725 911.136 315.915C702.85 207.104 365.173 207.104 156.864 315.915C-51.4455 424.725 -51.3989 601.234 156.864 709.952Z" fill="#F5F5F5"/>
<path d="M145.038 527.926C174.584 527.926 198.535 516.513 198.535 502.434C198.535 488.355 174.584 476.942 145.038 476.942C115.492 476.942 91.5403 488.355 91.5403 502.434C91.5403 516.513 115.492 527.926 145.038 527.926Z" fill="#EBEBEB"/>
<path d="M755.532 561.961C794.965 561.961 826.932 546.723 826.932 527.925C826.932 509.128 794.965 493.89 755.532 493.89C716.099 493.89 684.133 509.128 684.133 527.925C684.133 546.723 716.099 561.961 755.532 561.961Z" fill="#EBEBEB"/>
<path d="M968.987 387.896C968.987 387.896 974.504 370.855 992.453 352.697C1000.37 344.689 1005.54 339.101 1003.88 334.329C1002.39 330.115 997.365 327.927 990.172 331.326C979.952 336.168 973.061 345.154 968.987 363.196V387.896Z" fill="#008DB9"/>
<path opacity="0.1" d="M968.987 387.896C968.987 387.896 974.504 370.855 992.453 352.697C1000.37 344.689 1005.54 339.101 1003.88 334.329C1002.39 330.115 997.365 327.927 990.172 331.326C979.952 336.168 973.061 345.154 968.987 363.196V387.896Z" fill="black"/>
<path d="M967.846 377.188H967.637C967.412 377.127 967.221 376.981 967.103 376.781C966.985 376.581 966.951 376.342 967.008 376.117C973.41 351.393 989.962 336.075 996.969 332.537C997.18 332.438 997.421 332.424 997.642 332.497C997.863 332.571 998.047 332.727 998.157 332.932C998.254 333.14 998.268 333.377 998.194 333.594C998.12 333.812 997.965 333.992 997.761 334.096C990.986 337.519 974.947 352.418 968.708 376.559C968.652 376.743 968.538 376.904 968.382 377.018C968.227 377.131 968.039 377.191 967.846 377.188Z" fill="white"/>
<path d="M968.987 409.058C968.987 409.058 976.646 394.042 985.888 386.057C995.13 378.072 1007 369.924 996.946 363.685C986.889 357.446 970.337 369.691 969.01 381.774L968.987 409.058Z" fill="#008DB9"/>
<path d="M967.846 398.372H967.66C967.436 398.317 967.243 398.177 967.121 397.981C966.999 397.785 966.959 397.55 967.008 397.325C971.361 378.701 986.982 368.178 992.174 366.432C992.388 366.388 992.611 366.424 992.799 366.535C992.988 366.645 993.13 366.821 993.196 367.029C993.263 367.238 993.25 367.463 993.16 367.662C993.07 367.862 992.909 368.021 992.709 368.108C988.053 369.691 972.828 380.051 968.707 397.721C968.656 397.909 968.544 398.075 968.388 398.193C968.232 398.311 968.041 398.374 967.846 398.372V398.372Z" fill="white"/>
<path d="M288.14 559.982C288.14 559.982 284.601 552.113 269.819 548.784C255.432 545.549 248.285 548.784 238.577 547.108C228.869 545.432 231.407 527.297 257.527 529.183C281.435 530.905 288.14 549.716 288.14 549.716V559.982Z" fill="#008DB9"/>
<path d="M289.56 555.652C289.391 555.648 289.226 555.595 289.086 555.5C288.945 555.405 288.835 555.272 288.769 555.117C286.441 549.553 277.827 540.473 265.698 537.703C250.636 534.281 242.628 537.703 242.558 537.703C242.349 537.773 242.122 537.764 241.921 537.676C241.72 537.588 241.558 537.428 241.468 537.227C241.378 537.027 241.366 536.8 241.434 536.591C241.502 536.382 241.645 536.206 241.836 536.097C242.185 535.957 250.473 532.349 266.071 535.911C279.55 538.983 288.14 548.854 290.375 554.372C290.421 554.477 290.445 554.59 290.446 554.705C290.447 554.82 290.426 554.934 290.382 555.04C290.339 555.146 290.275 555.243 290.193 555.324C290.112 555.405 290.016 555.469 289.909 555.512L289.56 555.652Z" fill="white"/>
<path d="M288.14 551.019C285.193 545.743 281.421 540.972 276.966 536.888C262.998 523.339 244.374 519.079 235.062 511.676C224.818 503.691 237.227 494.472 250.403 495.054C257.946 495.403 265.908 500.385 270.284 503.97C285.696 516.565 288.233 536.888 288.233 536.888L288.14 551.019Z" fill="#008DB9"/>
<path opacity="0.5" d="M288.14 551.019C285.193 545.743 281.421 540.972 276.966 536.888C262.998 523.339 244.374 519.079 235.062 511.676C224.818 503.691 237.227 494.472 250.403 495.054C257.946 495.403 265.908 500.385 270.284 503.97C285.696 516.565 288.233 536.888 288.233 536.888L288.14 551.019Z" fill="white"/>
<path d="M289.56 549.646C289.352 549.643 289.151 549.567 288.994 549.43C288.836 549.294 288.732 549.107 288.699 548.901C286.864 539.113 282.425 530.002 275.848 522.525C264.86 510.023 246.073 503.319 245.863 503.249C245.651 503.17 245.477 503.012 245.377 502.809C245.278 502.605 245.26 502.371 245.328 502.155C245.365 502.045 245.423 501.944 245.499 501.857C245.576 501.77 245.669 501.7 245.773 501.65C245.877 501.6 245.991 501.571 246.106 501.566C246.222 501.561 246.337 501.579 246.445 501.619C247.237 501.875 265.861 508.603 277.152 521.361C283.999 529.075 288.597 538.52 290.445 548.668C290.461 548.783 290.454 548.9 290.424 549.012C290.393 549.125 290.341 549.23 290.269 549.321C290.197 549.412 290.108 549.488 290.006 549.544C289.904 549.6 289.792 549.634 289.676 549.646H289.56Z" fill="white"/>
<path d="M607.635 695.705C607.635 695.705 611.592 688.022 626.538 685.485C641.065 683.017 648.025 686.532 657.826 685.485C667.627 684.437 666.044 666.069 639.854 666.558C615.899 667 608.193 685.415 608.193 685.415L607.635 695.705Z" fill="#008DB9"/>
<path opacity="0.1" d="M607.635 695.705C607.635 695.705 611.592 688.022 626.538 685.485C641.065 683.017 648.025 686.532 657.826 685.485C667.627 684.437 666.044 666.069 639.854 666.558C615.899 667 608.193 685.415 608.193 685.415L607.635 695.705Z" fill="black"/>
<path d="M606.494 692.026C606.312 692.018 606.135 691.962 605.982 691.863C605.888 691.798 605.808 691.715 605.746 691.619C605.684 691.522 605.643 691.415 605.623 691.302C605.604 691.189 605.607 691.074 605.632 690.962C605.658 690.851 605.705 690.746 605.772 690.653C611.336 682.691 621.463 676.685 632.893 674.683C647.583 672.052 656.173 676.708 656.546 677.011C656.645 677.066 656.733 677.14 656.804 677.229C656.874 677.317 656.927 677.419 656.958 677.528C656.989 677.638 656.999 677.752 656.986 677.865C656.973 677.978 656.938 678.087 656.883 678.186C656.828 678.286 656.754 678.373 656.665 678.444C656.577 678.515 656.475 678.567 656.366 678.598C656.256 678.63 656.142 678.639 656.029 678.627C655.916 678.614 655.807 678.579 655.708 678.524C655.708 678.524 647.257 673.984 633.196 676.498C622.231 678.454 612.5 684.157 607.216 691.747C607.122 691.842 607.01 691.917 606.885 691.965C606.761 692.013 606.627 692.034 606.494 692.026V692.026Z" fill="white"/>
<path d="M608.682 684.926C612.063 680.673 615.904 676.808 620.136 673.402C634.872 660.645 653.52 658.573 663.39 651.682C674.053 644.256 662.156 634.385 648.957 634.269C641.414 634.269 633.196 638.762 628.61 642.114C618.837 649.436 611.529 659.562 607.658 671.144L608.682 684.926Z" fill="#008DB9"/>
<path opacity="0.5" d="M608.682 684.926C612.063 680.673 615.904 676.808 620.136 673.402C634.872 660.645 653.52 658.573 663.39 651.682C674.053 644.256 662.156 634.385 648.957 634.269C641.414 634.269 633.196 638.762 628.61 642.114C618.837 649.436 611.529 659.562 607.658 671.144L608.682 684.926Z" fill="white"/>
<path d="M606.494 684.74H606.168C605.955 684.66 605.779 684.504 605.675 684.301C605.572 684.099 605.548 683.865 605.609 683.645C609.248 673.653 614.996 664.561 622.464 656.99C630.565 648.636 641.087 643.041 652.542 640.997C652.654 640.98 652.768 640.987 652.877 641.016C652.987 641.045 653.089 641.096 653.178 641.165C653.267 641.235 653.341 641.322 653.396 641.421C653.451 641.52 653.485 641.629 653.496 641.741C653.512 641.857 653.505 641.974 653.475 642.086C653.445 642.198 653.392 642.303 653.321 642.394C653.249 642.486 653.159 642.561 653.058 642.617C652.956 642.673 652.844 642.708 652.728 642.719C641.699 644.812 631.571 650.221 623.698 658.224C616.465 665.588 610.907 674.426 607.402 684.134C607.34 684.322 607.217 684.484 607.052 684.594C606.888 684.703 606.691 684.755 606.494 684.74V684.74Z" fill="white"/>
<path d="M382.68 561.938V386.057H288.14V561.961C288.14 568.945 292.796 575.929 302.108 581.237C320.569 591.899 350.507 591.899 368.968 581.237C378.28 575.906 382.796 568.945 382.82 561.961L382.68 561.938Z" fill="#37474F"/>
<path d="M301.992 406.544C283.507 395.882 283.507 378.608 301.992 367.922C320.476 357.237 350.391 357.26 368.852 367.922C387.313 378.585 387.313 395.858 368.852 406.544C350.391 417.229 320.453 417.183 301.992 406.544Z" fill="#455A64"/>
<path d="M496.17 627.471V499.431H401.607V627.471C401.607 634.455 406.263 641.439 415.575 646.747C434.036 657.409 463.974 657.409 482.435 646.747C491.747 641.439 496.286 634.455 496.286 627.471H496.17Z" fill="#37474F"/>
<path d="M415.458 519.941C396.997 509.279 396.997 492.005 415.458 481.319C433.919 470.634 463.857 470.657 482.318 481.319C500.78 491.982 500.803 509.255 482.318 519.941C463.834 530.626 433.896 530.696 415.458 519.941Z" fill="#455A64"/>
<path d="M609.66 692.981V593.552H515.097V693.004C515.097 699.988 519.753 706.972 529.065 712.303C547.526 722.966 577.464 722.966 595.925 712.303C605.237 706.972 609.753 699.988 609.776 693.004L609.66 692.981Z" fill="#37474F"/>
<path d="M562.378 622C588.491 622 609.66 609.774 609.66 594.693C609.66 579.611 588.491 567.385 562.378 567.385C536.265 567.385 515.097 579.611 515.097 594.693C515.097 609.774 536.265 622 562.378 622Z" fill="#455A64"/>
<path d="M282.087 623.956L259.762 611.082L272.123 595.065C273.706 593.017 272.961 591.899 270.47 592.528L240.858 600.163L218.533 587.266C216.657 586.314 214.584 585.817 212.48 585.817C210.376 585.817 208.303 586.314 206.427 587.266L171.251 607.52C167.899 609.452 167.899 612.572 171.251 614.504L234.805 651.193C236.681 652.146 238.755 652.643 240.858 652.643C242.962 652.643 245.036 652.146 246.911 651.193L282.087 630.87C285.416 629.007 285.416 625.888 282.087 623.956Z" fill="#008DB9"/>
<path d="M246.376 616.064C246.739 616.028 247.106 616.028 247.47 616.064C247.831 616.109 248.18 616.228 248.494 616.413L251.683 618.252C251.899 618.357 252.065 618.54 252.149 618.764C252.149 618.951 252.149 619.114 251.823 619.23C251.747 619.251 251.667 619.251 251.59 619.23C251.476 619.257 251.356 619.257 251.241 619.23L207.009 622.722H205.752C205.389 622.667 205.041 622.541 204.728 622.349L201.538 620.51C201.323 620.406 201.156 620.222 201.073 619.998C201.073 619.812 201.073 619.649 201.399 619.533C201.475 619.512 201.555 619.512 201.631 619.533H201.981L246.376 616.064ZM232.128 613.107C231.182 613.739 230.194 614.307 229.172 614.807C228.346 615.226 227.48 615.561 226.588 615.808C225.652 616.044 224.69 616.161 223.724 616.157C221.569 616.162 219.453 615.583 217.602 614.481C216.718 614.048 215.927 613.447 215.274 612.712C214.849 612.228 214.61 611.609 214.598 610.966C214.607 610.358 214.83 609.773 215.227 609.313C215.69 608.712 216.258 608.199 216.903 607.799C217.345 607.48 217.803 607.185 218.277 606.915C218.719 606.659 219.254 606.379 219.836 606.1C220.675 605.678 221.557 605.35 222.467 605.122C224.401 604.641 226.423 604.641 228.357 605.122C229.432 605.414 230.465 605.844 231.43 606.403C232.27 606.841 233.014 607.443 233.618 608.172C234.047 608.655 234.294 609.272 234.317 609.918C234.287 610.521 234.067 611.1 233.688 611.571C233.262 612.17 232.734 612.69 232.128 613.107V613.107ZM236.528 631.312C235.627 631.985 234.677 632.592 233.688 633.128C232.856 633.546 231.982 633.874 231.081 634.106C230.148 634.363 229.184 634.488 228.217 634.478C227.187 634.474 226.161 634.333 225.168 634.059C224.09 633.786 223.055 633.363 222.095 632.802C221.264 632.35 220.522 631.75 219.906 631.033C219.477 630.543 219.237 629.915 219.231 629.264C219.25 628.662 219.462 628.082 219.836 627.611C220.31 627.018 220.886 626.513 221.536 626.121C221.968 625.788 222.428 625.492 222.909 625.236C223.411 624.931 223.932 624.659 224.469 624.421C225.299 624 226.174 623.672 227.077 623.444C228.014 623.214 228.975 623.089 229.94 623.071C232.087 623.07 234.194 623.649 236.039 624.747C236.927 625.173 237.719 625.775 238.367 626.517C238.778 626.987 239.005 627.591 239.005 628.216C239.005 628.841 238.778 629.445 238.367 629.915C237.838 630.482 237.216 630.954 236.528 631.312ZM221.699 610.36C221.236 610.622 220.857 611.009 220.605 611.478C220.605 611.804 220.605 612.13 221.28 612.455C221.783 612.761 222.37 612.899 222.956 612.851C223.632 612.744 224.285 612.524 224.888 612.199C225.77 611.776 226.619 611.286 227.426 610.733C227.9 610.478 228.288 610.089 228.543 609.615C228.543 609.289 228.427 608.963 227.868 608.638C227.358 608.329 226.761 608.198 226.169 608.265C225.5 608.359 224.854 608.572 224.26 608.894C223.37 609.282 222.514 609.741 221.699 610.267V610.36ZM226.122 628.565C225.648 628.82 225.26 629.209 225.005 629.683C225.005 629.985 225.005 630.311 225.68 630.637C226.183 630.962 226.784 631.102 227.379 631.033C228.045 630.928 228.69 630.715 229.288 630.404C230.18 629.986 231.037 629.496 231.849 628.938C232.318 628.684 232.699 628.294 232.943 627.82C232.943 627.494 232.943 627.168 232.268 626.842C231.765 626.537 231.178 626.399 230.592 626.447C229.922 626.551 229.276 626.771 228.683 627.099C227.794 627.487 226.937 627.946 226.122 628.472V628.565Z" fill="white"/>
<path d="M405.052 694.913L382.68 682.016L395.042 666.023C396.601 663.974 395.856 662.834 393.366 663.485L363.753 671.098L341.428 658.224C339.557 657.271 337.487 656.775 335.387 656.775C333.287 656.775 331.217 657.271 329.346 658.224L294.216 678.524C290.887 680.456 290.887 683.599 294.216 685.508L357.77 722.221C359.649 723.163 361.722 723.653 363.823 723.653C365.925 723.653 367.997 723.163 369.876 722.221L405.052 701.897C408.404 699.965 408.404 696.846 405.052 694.913Z" fill="#008DB9"/>
<path d="M369.341 687.021H370.458C370.82 687.079 371.168 687.206 371.482 687.394L374.649 689.233C374.928 689.396 375.091 689.559 375.114 689.745C375.137 689.931 375.114 690.071 374.811 690.211C374.735 690.228 374.655 690.228 374.579 690.211H374.229L329.997 693.703C329.626 693.739 329.252 693.739 328.88 693.703C328.516 693.651 328.167 693.525 327.856 693.33L324.69 691.514C324.41 691.351 324.247 691.165 324.224 691.002C324.216 690.899 324.241 690.796 324.296 690.709C324.35 690.621 324.431 690.552 324.527 690.513H324.759H325.109L369.341 687.021ZM355.093 684.065C354.158 684.702 353.178 685.27 352.16 685.764C351.328 686.182 350.454 686.51 349.553 686.742C348.62 686.998 347.656 687.123 346.689 687.115C345.659 687.11 344.633 686.97 343.64 686.696C342.561 686.422 341.527 685.999 340.567 685.438C339.73 684.986 338.981 684.386 338.355 683.669C337.933 683.199 337.699 682.59 337.699 681.958C337.699 681.326 337.933 680.717 338.355 680.247C338.826 679.659 339.392 679.156 340.031 678.757C340.471 678.435 340.929 678.139 341.405 677.872C341.917 677.573 342.446 677.301 342.988 677.058C343.818 676.636 344.692 676.308 345.595 676.08C347.101 675.696 348.668 675.614 350.206 675.838C351.745 676.061 353.223 676.587 354.558 677.384C355.4 677.829 356.15 678.429 356.769 679.153C357.197 679.635 357.437 680.254 357.445 680.899C357.427 681.505 357.205 682.087 356.816 682.552C356.339 683.157 355.755 683.67 355.093 684.065ZM359.516 702.27C358.571 702.903 357.583 703.471 356.56 703.969C355.738 704.391 354.871 704.719 353.976 704.947C353.04 705.183 352.078 705.301 351.112 705.296C348.958 705.301 346.842 704.722 344.99 703.62C344.149 703.182 343.399 702.59 342.778 701.874C342.349 701.384 342.109 700.756 342.103 700.105C342.13 699.501 342.35 698.921 342.732 698.452C343.201 697.857 343.768 697.345 344.408 696.939C344.873 696.613 345.339 696.333 345.781 696.054C346.224 695.775 346.759 695.519 347.341 695.239C348.179 694.817 349.061 694.489 349.972 694.262C350.912 694.048 351.871 693.931 352.835 693.912C353.857 693.909 354.875 694.042 355.862 694.308C356.942 694.585 357.977 695.017 358.934 695.588C359.776 696.034 360.527 696.634 361.146 697.358C361.567 697.824 361.799 698.429 361.799 699.057C361.799 699.685 361.567 700.29 361.146 700.757C360.691 701.348 360.14 701.859 359.516 702.27V702.27ZM344.687 681.318C344.213 681.573 343.825 681.961 343.57 682.435C343.57 682.738 343.686 683.064 344.245 683.39C344.748 683.715 345.349 683.855 345.944 683.786C346.609 683.677 347.253 683.465 347.853 683.157C348.751 682.74 349.608 682.242 350.414 681.667C350.879 681.419 351.26 681.038 351.508 680.573C351.508 680.247 351.392 679.921 350.833 679.595C350.335 679.279 349.744 679.139 349.157 679.199C348.48 679.303 347.826 679.523 347.225 679.851C346.343 680.239 345.494 680.698 344.687 681.225V681.318ZM349.087 699.523C348.632 699.784 348.254 700.162 347.993 700.617C347.993 700.943 348.109 701.269 348.668 701.595C349.166 701.911 349.757 702.05 350.344 701.99C351.018 701.885 351.67 701.673 352.276 701.362C353.157 700.927 354.005 700.43 354.814 699.872C355.28 699.617 355.667 699.238 355.931 698.778C356.048 698.452 355.931 698.126 355.256 697.8C354.749 697.485 354.151 697.346 353.557 697.404C352.892 697.513 352.248 697.725 351.648 698.033C350.765 698.442 349.909 698.909 349.087 699.43V699.523Z" fill="white"/>
<path d="M527.924 765.824L505.598 752.95L517.983 736.91C519.543 734.885 518.798 733.744 516.307 734.396L486.695 742.009L464.37 729.135C462.494 728.182 460.42 727.685 458.317 727.685C456.213 727.685 454.139 728.182 452.264 729.135L417.088 749.528C413.759 751.46 413.759 754.603 417.088 756.512L480.642 793.225C482.521 794.167 484.593 794.657 486.695 794.657C488.797 794.657 490.869 794.167 492.748 793.225L527.924 772.808C531.276 770.946 531.276 767.826 527.924 765.824Z" fill="#008DB9"/>
<path d="M492.212 758.002H493.307C493.669 758.057 494.018 758.183 494.331 758.374L497.52 760.214C497.8 760.377 497.963 760.54 497.986 760.726C498.009 760.912 497.986 761.052 497.683 761.191H497.45H497.101L452.869 764.683C452.505 764.719 452.139 764.719 451.775 764.683C451.41 764.636 451.061 764.508 450.751 764.311L447.585 762.495C447.305 762.332 447.142 762.146 447.119 761.983C447.111 761.88 447.137 761.777 447.191 761.689C447.245 761.601 447.326 761.533 447.422 761.494H447.654C447.769 761.467 447.889 761.467 448.004 761.494L492.212 758.002ZM477.965 755.045C477.025 755.687 476.036 756.256 475.009 756.745C474.187 757.167 473.32 757.495 472.424 757.723C471.492 757.978 470.528 758.103 469.561 758.095C468.523 758.09 467.49 757.949 466.488 757.676C465.417 757.404 464.39 756.981 463.438 756.419C462.601 755.966 461.852 755.367 461.227 754.65C460.797 754.16 460.558 753.532 460.552 752.88C460.578 752.276 460.799 751.697 461.18 751.228C461.656 750.638 462.222 750.128 462.856 749.714C463.322 749.388 463.788 749.109 464.23 748.853C464.672 748.597 465.208 748.318 465.79 748.015C467.502 747.176 469.377 746.723 471.284 746.688C473.43 746.695 475.535 747.274 477.383 748.364C478.225 748.809 478.975 749.41 479.595 750.133C480.015 750.619 480.254 751.237 480.27 751.879C480.24 752.483 480.02 753.061 479.641 753.532C479.178 754.133 478.61 754.646 477.965 755.045V755.045ZM482.365 773.25C481.424 773.879 480.445 774.446 479.432 774.95C478.608 775.368 477.742 775.696 476.848 775.928C474.9 776.423 472.859 776.423 470.911 775.928C469.84 775.646 468.813 775.215 467.862 774.647C466.974 774.221 466.182 773.619 465.534 772.878C465.102 772.398 464.862 771.777 464.858 771.132C464.872 770.529 465.085 769.948 465.464 769.479C465.948 768.889 466.521 768.379 467.163 767.966C467.605 767.647 468.063 767.351 468.537 767.081C468.979 766.825 469.514 766.546 470.096 766.266C471.796 765.392 473.679 764.937 475.591 764.939C476.612 764.936 477.63 765.069 478.617 765.335C479.688 765.617 480.715 766.048 481.667 766.616C482.554 767.041 483.347 767.643 483.995 768.385C484.426 768.864 484.666 769.486 484.67 770.131C484.656 770.734 484.444 771.315 484.064 771.784C483.588 772.368 483.013 772.864 482.365 773.25V773.25ZM467.536 752.298C467.073 752.56 466.693 752.948 466.441 753.416C466.441 753.719 466.558 754.044 467.117 754.37C467.616 754.683 468.206 754.822 468.793 754.766C469.466 754.661 470.119 754.449 470.725 754.138C471.62 753.716 472.477 753.217 473.286 752.648C473.751 752.4 474.132 752.019 474.38 751.553C474.496 751.228 474.38 750.902 473.705 750.576C473.197 750.261 472.6 750.122 472.005 750.18C471.337 750.288 470.691 750.508 470.096 750.832C469.21 751.225 468.354 751.684 467.536 752.205V752.298ZM471.959 770.503C471.498 770.766 471.113 771.143 470.841 771.598C470.841 771.923 470.841 772.249 471.54 772.575C472.038 772.892 472.629 773.031 473.216 772.971C473.882 772.866 474.527 772.653 475.125 772.342C476.013 771.908 476.869 771.41 477.686 770.853C478.152 770.598 478.538 770.219 478.803 769.758C478.927 769.432 478.695 769.107 478.105 768.781C477.606 768.464 477.016 768.325 476.429 768.385C475.763 768.49 475.118 768.703 474.52 769.013C473.632 769.44 472.776 769.931 471.959 770.48V770.503Z" fill="white"/>
<path d="M846.068 381.774L808.238 359.937V250.731L846.068 272.568V381.774Z" fill="#37474F"/>
<path d="M846.068 381.774L883.898 359.937V250.731L846.068 272.568V381.774Z" fill="#455A64"/>
<path d="M808.238 250.731L846.068 272.568L883.898 250.731L846.068 228.894L808.238 250.731Z" fill="#455A64"/>
<path d="M760.957 332.63L723.127 310.793V92.4036L760.957 114.24V332.63Z" fill="#37474F"/>
<path d="M760.957 332.63L798.787 310.793V92.4036L760.957 114.24V332.63Z" fill="#455A64"/>
<path d="M723.127 92.4036L760.957 114.24L798.787 92.4036L760.957 70.5669L723.127 92.4036Z" fill="#455A64"/>
<path d="M675.845 283.486L638.015 261.649V185.221L675.845 207.058V283.486Z" fill="#37474F"/>
<path d="M675.845 283.486L713.675 261.649V185.221L675.845 207.058V283.486Z" fill="#455A64"/>
<path d="M638.015 185.221L675.845 207.058L713.675 185.221L675.845 163.384L638.015 185.221Z" fill="#455A64"/>
<path d="M931.18 430.918L893.35 409.058V201.61L931.157 223.447L931.18 430.918Z" fill="#37474F"/>
<path d="M931.157 430.918L968.987 409.058V201.61L931.157 223.447V430.918Z" fill="#455A64"/>
<path d="M893.35 201.61L931.157 223.447L968.987 201.61L931.18 179.75L893.35 201.61Z" fill="#455A64"/>
<g opacity="0.3">
<path opacity="0.3" d="M666.696 415.064L666.3 173.232C666.218 171.832 665.809 170.471 665.106 169.258C664.402 168.045 663.424 167.014 662.249 166.248L376.93 2.24007C374.602 0.95967 372.902 2.00727 372.902 4.56807L373.368 246.308C373.444 247.709 373.851 249.072 374.555 250.286C375.259 251.5 376.24 252.53 377.419 253.292L662.762 417.416C664.927 418.696 666.696 417.648 666.696 415.064Z" fill="white"/>
</g>
<path d="M664.508 419.115C663.685 419.083 662.884 418.843 662.18 418.417L376.837 254.293C375.475 253.435 374.34 252.261 373.529 250.871C372.719 249.481 372.256 247.915 372.181 246.308L371.738 4.568C371.641 3.85905 371.757 3.13714 372.071 2.49406C372.384 1.85097 372.882 1.31575 373.501 0.956412C374.12 0.597078 374.832 0.429858 375.546 0.476024C376.26 0.522191 376.944 0.779648 377.512 1.21567L662.855 165.2C664.214 166.06 665.347 167.235 666.157 168.624C666.967 170.014 667.432 171.578 667.511 173.185L667.907 415.018C667.963 415.723 667.83 416.431 667.524 417.069C667.217 417.707 666.747 418.252 666.161 418.649C665.661 418.95 665.09 419.11 664.508 419.115V419.115ZM375.137 2.75216C374.985 2.71169 374.824 2.71169 374.672 2.75216C374.444 2.9479 374.27 3.19752 374.164 3.47815C374.059 3.75879 374.025 4.06148 374.066 4.35849L374.462 246.191C374.528 247.415 374.886 248.604 375.506 249.661C376.125 250.718 376.989 251.612 378.024 252.267L663.367 416.391C664.065 416.787 664.671 416.903 665.043 416.671C665.416 416.438 665.648 415.879 665.648 415.064L665.253 173.232C665.178 172.04 664.828 170.881 664.23 169.847C663.632 168.813 662.803 167.932 661.807 167.272L376.348 3.14792C375.985 2.91523 375.568 2.77902 375.137 2.75216Z" fill="#008DB9"/>
<path d="M639.598 361.707C632.032 356.329 627.609 351.463 624.606 314.076L624.35 310.886C621.533 275.757 619.694 252.57 603.677 243.002C595.995 238.346 589.849 243.002 583.354 248.054C577.464 252.547 571.411 257.156 564.59 253.268C552.601 246.284 550.622 232.456 546.897 207.22C546.431 204.101 545.966 200.819 545.43 197.373C544.616 191.995 543.917 186.99 543.265 182.288C539.587 155.795 537.352 139.778 523.803 131.607C522.469 130.661 520.932 130.041 519.315 129.794C517.699 129.548 516.047 129.682 514.491 130.187C504.225 133.772 496.193 155.492 487.696 178.516C487.044 180.216 486.416 182.008 485.741 183.801C479.571 200.772 472.587 220.024 462.926 223.586C461.56 224.086 460.099 224.271 458.651 224.126C457.204 223.98 455.808 223.51 454.569 222.748C444.954 217.301 443.231 202.402 441.578 187.968C439.925 173.534 438.319 159.031 429.24 153.56C428.47 153.062 427.59 152.762 426.676 152.684C425.763 152.607 424.844 152.756 424.002 153.118C412.734 157.494 402.747 190.831 402.654 191.157L400.326 190.505C400.745 189.085 410.732 155.748 423.047 150.929C424.223 150.442 425.499 150.245 426.767 150.355C428.036 150.464 429.259 150.877 430.334 151.558C440.368 157.564 442.114 172.859 443.813 187.642C445.513 202.425 447.049 215.811 455.663 220.676C456.602 221.273 457.666 221.644 458.773 221.762C459.879 221.879 460.998 221.738 462.041 221.351C470.678 218.162 477.779 198.653 483.482 182.963C484.157 181.147 484.786 179.378 485.438 177.655C494.517 153.095 502.362 131.886 513.653 127.929C515.525 127.322 517.511 127.156 519.457 127.442C521.403 127.729 523.257 128.461 524.874 129.582C539.354 138.335 541.659 154.747 545.43 181.938C546.082 186.594 546.781 191.623 547.595 196.977C548.131 200.446 548.597 203.729 549.062 206.825C552.624 231.362 554.603 244.864 565.614 251.196C571.085 254.339 576.044 250.545 581.794 246.168C588.312 241.186 595.762 235.576 604.725 240.953C621.742 251.15 623.651 274.826 626.515 310.654L626.771 313.843C629.844 351.976 634.453 355.235 640.739 359.774L639.598 361.707Z" fill="#008DB9"/>
<g opacity="0.4">
<path opacity="0.4" d="M639.598 361.707C632.032 356.329 627.609 351.463 624.606 314.076L624.35 310.886C621.533 275.757 619.694 252.57 603.677 243.002C595.995 238.346 589.849 243.002 583.354 248.054C577.464 252.547 571.411 257.156 564.59 253.268C552.601 246.284 550.622 232.456 546.897 207.22C546.431 204.101 545.966 200.819 545.43 197.373C544.616 191.995 543.917 186.99 543.265 182.288C539.587 155.795 537.352 139.778 523.803 131.607C522.469 130.661 520.932 130.041 519.315 129.794C517.699 129.548 516.047 129.682 514.491 130.187C504.225 133.772 496.193 155.492 487.696 178.516C487.044 180.216 486.416 182.008 485.741 183.801C479.571 200.772 472.587 220.024 462.926 223.586C461.56 224.086 460.099 224.271 458.651 224.126C457.204 223.98 455.808 223.51 454.569 222.748C444.954 217.301 443.231 202.402 441.578 187.968C439.925 173.534 438.319 159.031 429.24 153.56C428.47 153.062 427.59 152.762 426.676 152.684C425.763 152.607 424.844 152.756 424.002 153.118C412.734 157.494 402.747 190.831 402.654 191.157L400.326 190.505C400.745 189.085 410.732 155.748 423.047 150.929C424.223 150.442 425.499 150.245 426.767 150.355C428.036 150.464 429.259 150.877 430.334 151.558C440.368 157.564 442.114 172.859 443.813 187.642C445.513 202.425 447.049 215.811 455.663 220.676C456.602 221.273 457.666 221.644 458.773 221.762C459.879 221.879 460.998 221.738 462.041 221.351C470.678 218.162 477.779 198.653 483.482 182.963C484.157 181.147 484.786 179.378 485.438 177.655C494.517 153.095 502.362 131.886 513.653 127.929C515.525 127.322 517.511 127.156 519.457 127.442C521.403 127.729 523.257 128.461 524.874 129.582C539.354 138.335 541.659 154.747 545.43 181.938C546.082 186.594 546.781 191.623 547.595 196.977C548.131 200.446 548.597 203.729 549.062 206.825C552.624 231.362 554.603 244.864 565.614 251.196C571.085 254.339 576.044 250.545 581.794 246.168C588.312 241.186 595.762 235.576 604.725 240.953C621.742 251.15 623.651 274.826 626.515 310.654L626.771 313.843C629.844 351.976 634.453 355.235 640.739 359.774L639.598 361.707Z" fill="black"/>
</g>
<path d="M600.232 232.712C601.963 233.847 603.405 235.37 604.444 237.16C605.483 238.951 606.089 240.959 606.215 243.025C606.215 246.82 603.537 248.356 600.255 246.471C598.516 245.344 597.067 243.823 596.028 242.031C594.988 240.239 594.386 238.226 594.272 236.157C594.272 232.456 596.856 230.919 600.232 232.712Z" fill="#008DB9"/>
<g opacity="0.2">
<path opacity="0.2" d="M600.232 232.712C601.963 233.847 603.405 235.37 604.444 237.16C605.483 238.951 606.089 240.959 606.215 243.025C606.215 246.82 603.537 248.356 600.255 246.471C598.516 245.344 597.067 243.823 596.028 242.031C594.988 240.239 594.386 238.226 594.272 236.157C594.272 232.456 596.856 230.919 600.232 232.712Z" fill="black"/>
</g>
<path d="M524.409 123.738C526.142 124.868 527.585 126.391 528.62 128.183C529.656 129.975 530.255 131.985 530.368 134.051C530.368 137.846 527.714 139.382 524.432 137.497C522.692 136.372 521.242 134.851 520.202 133.058C519.162 131.266 518.562 129.253 518.449 127.184C518.449 123.296 521.103 121.853 524.409 123.738Z" fill="#008DB9"/>
<g opacity="0.5">
<path opacity="0.5" d="M524.409 123.738C526.142 124.868 527.585 126.391 528.62 128.183C529.656 129.975 530.255 131.985 530.368 134.051C530.368 137.846 527.714 139.382 524.432 137.497C522.692 136.372 521.242 134.851 520.202 133.058C519.162 131.266 518.562 129.253 518.449 127.184C518.449 123.296 521.103 121.853 524.409 123.738Z" fill="white"/>
</g>
<path d="M429.869 145.738C431.608 146.858 433.058 148.374 434.098 150.163C435.138 151.952 435.739 153.962 435.851 156.028C435.851 159.846 433.198 161.382 429.892 159.496C428.16 158.365 426.718 156.842 425.683 155.05C424.647 153.259 424.048 151.249 423.932 149.183C423.909 145.389 426.586 143.829 429.869 145.738Z" fill="#008DB9"/>
<path opacity="0.65" d="M515.073 404.402V162.569C514.996 161.171 514.591 159.811 513.892 158.598C513.192 157.384 512.217 156.353 511.046 155.585L263.789 12.8324C261.461 11.552 259.762 12.5996 259.762 15.1604V256.993C259.837 258.392 260.241 259.753 260.941 260.966C261.641 262.18 262.616 263.211 263.789 263.977L511.046 406.73C513.281 408.034 515.073 406.986 515.073 404.402Z" fill="white"/>
<path d="M512.862 408.453C512.039 408.421 511.238 408.18 510.534 407.754L263.207 265.001C261.848 264.135 260.717 262.955 259.907 261.562C259.097 260.169 258.632 258.602 258.551 256.993V15.1605C258.459 14.4534 258.579 13.735 258.895 13.0958C259.211 12.4567 259.709 11.9255 260.327 11.5693C260.945 11.2132 261.654 11.048 262.365 11.0946C263.077 11.1413 263.759 11.3977 264.324 11.8314L511.581 154.584C512.939 155.446 514.071 156.621 514.881 158.01C515.691 159.4 516.156 160.963 516.237 162.569V404.402C516.293 405.108 516.161 405.816 515.854 406.454C515.548 407.092 515.077 407.637 514.491 408.034C513.994 408.314 513.432 408.458 512.862 408.453V408.453ZM261.996 13.461C261.844 13.4216 261.684 13.4216 261.531 13.461C261.304 13.6568 261.129 13.9064 261.023 14.187C260.918 14.4677 260.884 14.7703 260.926 15.0674V256.993C260.999 258.189 261.348 259.351 261.945 260.389C262.543 261.427 263.373 262.313 264.371 262.976L511.628 405.729C511.865 405.915 512.145 406.037 512.442 406.086C512.739 406.135 513.043 406.108 513.327 406.008C513.7 405.799 513.909 405.217 513.909 404.402V162.569C513.838 161.376 513.49 160.217 512.892 159.182C512.293 158.147 511.462 157.267 510.464 156.61L263.207 13.8801C262.851 13.6299 262.431 13.4848 261.996 13.461Z" fill="#008DB9"/>
<path d="M472.541 349.438V190.296C472.501 189.596 472.297 188.915 471.945 188.308C471.593 187.701 471.103 187.186 470.515 186.804L446.188 172.836C445.07 172.184 444.162 172.696 444.162 174V333.049C444.197 333.75 444.399 334.433 444.751 335.041C445.103 335.648 445.596 336.163 446.188 336.541L470.515 350.509C471.633 351.254 472.541 350.718 472.541 349.438Z" fill="#008DB9"/>
<g opacity="0.3">
<path opacity="0.3" d="M472.541 349.438V190.296C472.501 189.596 472.297 188.915 471.945 188.308C471.593 187.701 471.103 187.186 470.515 186.804L446.188 172.836C445.07 172.184 444.162 172.696 444.162 174V333.049C444.197 333.75 444.399 334.433 444.751 335.041C445.103 335.648 445.596 336.163 446.188 336.541L470.515 350.509C471.633 351.254 472.541 350.718 472.541 349.438Z" fill="black"/>
</g>
<path d="M425.259 322.13V239.44C425.219 238.74 425.015 238.059 424.663 237.452C424.311 236.846 423.822 236.33 423.234 235.948L398.883 221.98C397.789 221.351 396.881 221.98 396.881 223.144V305.858C396.922 306.555 397.124 307.233 397.471 307.839C397.819 308.445 398.302 308.962 398.883 309.35L423.234 323.318C424.351 323.946 425.259 323.504 425.259 322.13Z" fill="#008DB9"/>
<g opacity="0.2">
<path opacity="0.2" d="M425.259 322.13V239.44C425.219 238.74 425.015 238.059 424.663 237.452C424.311 236.846 423.822 236.33 423.234 235.948L398.883 221.98C397.789 221.351 396.881 221.98 396.881 223.144V305.858C396.922 306.555 397.124 307.233 397.471 307.839C397.819 308.445 398.302 308.962 398.883 309.35L423.234 323.318C424.351 323.946 425.259 323.504 425.259 322.13Z" fill="white"/>
</g>
<path d="M378.024 294.846V168.459C377.984 167.759 377.78 167.078 377.428 166.471C377.076 165.865 376.587 165.349 375.999 164.967L351.648 150.999C350.554 150.347 349.646 150.859 349.646 152.163V278.527C349.683 279.225 349.884 279.905 350.231 280.511C350.579 281.118 351.064 281.634 351.648 282.019L375.999 295.987C377.07 296.639 378.024 296.127 378.024 294.846Z" fill="#008DB9"/>
<g opacity="0.2">
<path opacity="0.2" d="M378.024 294.846V168.459C377.984 167.759 377.78 167.078 377.428 166.471C377.076 165.865 376.587 165.349 375.999 164.967L351.648 150.999C350.554 150.347 349.646 150.859 349.646 152.163V278.527C349.683 279.225 349.884 279.905 350.231 280.511C350.579 281.118 351.064 281.634 351.648 282.019L375.999 295.987C377.07 296.639 378.024 296.127 378.024 294.846Z" fill="black"/>
</g>
<path d="M330.672 267.632V86.56C330.637 85.8615 330.437 85.1813 330.089 84.5745C329.741 83.9677 329.255 83.4516 328.67 83.068L304.319 69.1C303.225 68.4482 302.317 69.1 302.317 70.264V251.243C302.358 251.94 302.56 252.618 302.908 253.224C303.255 253.83 303.738 254.347 304.319 254.735L328.67 268.703C329.788 269.355 330.672 268.819 330.672 267.632Z" fill="#008DB9"/>
<path d="M833.451 296.569C833.125 294.823 824.581 274.942 821.066 267.12L803.257 275.454L810.078 291.075L828.515 305.346C830.309 304.799 831.824 303.582 832.743 301.947C833.662 300.312 833.916 298.386 833.451 296.569V296.569Z" fill="#FFA8A7"/>
<path d="M797.972 504.809H784.237V524.829H797.972V504.809Z" fill="#FFA8A7"/>
<path d="M749.588 480.081L735.86 480.553L736.549 500.562L750.276 500.09L749.588 480.081Z" fill="#FFA8A7"/>
<path d="M753.018 218.092C748.048 218.208 743.187 219.579 738.889 222.078C734.59 224.577 730.994 228.123 728.435 232.386C720.845 243.677 707.483 262.976 707.483 262.976L732.509 270.914L753.018 218.092Z" fill="#008DB9"/>
<g opacity="0.7">
<path opacity="0.7" d="M753.018 218.092C748.048 218.208 743.187 219.579 738.889 222.078C734.59 224.577 730.994 228.123 728.435 232.386C720.845 243.677 707.483 262.976 707.483 262.976L732.509 270.914L753.018 218.092Z" fill="white"/>
</g>
<path d="M797.064 309.536C797.064 322.666 798.764 407.568 798.764 407.568C799.089 411.339 802.628 418.3 801.86 432.804C800.812 452.522 799.113 507.3 799.113 507.3C799.113 507.3 792.664 513.702 783.562 507.3C783.562 507.3 771.107 432.92 768.662 413.388C766.497 396.347 762.866 350.066 762.866 350.066L750.132 404.565C750.132 404.565 752.46 417.369 752.855 426.402C753.251 435.434 750.527 487.674 750.527 487.674C748.299 489.067 745.746 489.853 743.12 489.955C740.495 490.057 737.888 489.471 735.558 488.256C735.558 488.256 724.524 411.945 723.103 403.773C721.683 395.602 732.788 309.536 732.788 309.536H797.064Z" fill="#008DB9"/>
<path opacity="0.2" d="M797.064 309.536C797.064 322.666 798.764 407.568 798.764 407.568C799.089 411.339 802.628 418.3 801.86 432.804C800.812 452.522 799.113 507.3 799.113 507.3C799.113 507.3 792.664 513.702 783.562 507.3C783.562 507.3 771.107 432.92 768.662 413.388C766.497 396.347 762.866 350.066 762.866 350.066L750.132 404.565C750.132 404.565 752.46 417.369 752.855 426.402C753.251 435.434 750.527 487.674 750.527 487.674C748.299 489.067 745.746 489.853 743.12 489.955C740.495 490.057 737.888 489.471 735.558 488.256C735.558 488.256 724.524 411.945 723.103 403.773C721.683 395.602 732.788 309.536 732.788 309.536H797.064Z" fill="black"/>
<path d="M776.391 218.511C788.707 221.468 804.327 226.45 809.822 237.81C815.316 249.171 823.79 267.585 823.79 267.585L803.396 279.644L797.064 268.749V309.536C787.426 320.012 753.81 324.901 732.765 309.536V242.396C732.765 231.711 738.724 218.837 755.137 217.883L776.391 218.511Z" fill="#008DB9"/>
<path opacity="0.7" d="M776.391 218.511C788.707 221.468 804.327 226.45 809.822 237.81C815.316 249.171 823.79 267.585 823.79 267.585L803.396 279.644L797.064 268.749V309.536C787.426 320.012 753.81 324.901 732.765 309.536V242.396C732.765 231.711 738.724 218.837 755.137 217.883L776.391 218.511Z" fill="white"/>
<path d="M781.024 163.71C782.129 163.583 783.249 163.71 784.298 164.081C785.347 164.452 786.297 165.058 787.077 165.852C789.684 168.506 789.149 173.441 787.077 184.755L779.022 185.686L781.024 163.71Z" fill="#263238"/>
<path d="M734.208 160.544C732.48 160.565 730.767 160.224 729.18 159.543C726.712 158.123 726.06 160.916 727.41 163.361C728.304 165.104 729.629 166.591 731.259 167.678C732.889 168.766 734.769 169.42 736.722 169.577C736.722 169.227 739.05 163.291 739.05 163.291L734.208 160.544Z" fill="#263238"/>
<path d="M777.253 185.686C778.44 186.408 780.14 184.103 781.606 182.567C782.186 181.906 782.923 181.403 783.75 181.105C784.577 180.807 785.466 180.724 786.334 180.864C787.202 181.003 788.02 181.361 788.712 181.903C789.404 182.445 789.947 183.154 790.29 183.964C792.734 189.108 787.193 195.976 783.934 198.234C783.023 199.021 781.887 199.501 780.688 199.606C779.488 199.71 778.286 199.434 777.253 198.816L776.391 218.511C774.953 221.667 772.754 224.417 769.991 226.514C767.228 228.61 763.988 229.988 760.561 230.524C748.921 232.083 751.365 222.562 755.16 217.883V210.712C752.271 211.338 749.3 211.496 746.36 211.178C744.847 210.782 741.262 206.522 738.934 201.563C736.327 196.092 731.95 186.385 735.861 169.972C740.005 152.349 758.932 151.814 770.246 158.914C781.56 166.015 777.253 185.686 777.253 185.686Z" fill="#FFA8A7"/>
<path d="M777.253 187.688C777.835 187.688 780.139 183.917 781.606 182.567C783.678 180.681 781.024 163.71 781.024 163.71C781.024 163.71 783.096 157.285 779.022 153.001C774.948 148.718 767.079 149.463 761.306 149.253C754.22 149.289 747.202 147.879 740.68 145.109C732.485 141.547 731.88 141.128 730.856 144.737C729.831 148.345 729.459 156.563 734.348 162.08L738.422 163.594C738.422 163.594 740.61 165.526 748.246 166.457C755.304 166.993 762.397 166.861 769.431 166.061C771.642 165.759 772.108 167.9 773.295 173.767C774.366 178.935 775.227 187.665 777.253 187.688Z" fill="#263238"/>
<path d="M781.001 165.037L788.218 161.149C787.988 160.665 787.662 160.232 787.26 159.877C786.858 159.522 786.388 159.252 785.878 159.085C785.369 158.917 784.831 158.855 784.296 158.902C783.762 158.948 783.243 159.103 782.77 159.357C781.801 159.894 781.077 160.784 780.747 161.842C780.418 162.9 780.509 164.044 781.001 165.037V165.037Z" fill="#263238"/>
<path d="M755.16 210.712C760.097 209.782 764.937 208.395 769.617 206.569C771.821 205.428 773.625 203.641 774.785 201.447C774.223 203.641 773.226 205.699 771.852 207.5C769.105 210.992 755.16 213.576 755.16 213.576V210.712Z" fill="#F28F8F"/>
<path d="M757.767 183.009C757.758 183.296 757.807 183.582 757.91 183.85C758.013 184.118 758.17 184.363 758.37 184.569C758.569 184.775 758.809 184.939 759.073 185.051C759.338 185.163 759.622 185.221 759.909 185.221C760.381 185.258 760.852 185.151 761.261 184.914C761.67 184.676 761.997 184.32 762.199 183.892C762.4 183.464 762.467 182.985 762.389 182.519C762.312 182.052 762.094 181.62 761.765 181.28C761.436 180.941 761.012 180.709 760.548 180.617C760.084 180.524 759.603 180.576 759.169 180.763C758.735 180.951 758.368 181.266 758.118 181.668C757.868 182.069 757.745 182.537 757.767 183.009V183.009Z" fill="#263238"/>
<path d="M760.026 174.908L764.682 177.445C765.004 176.815 765.073 176.084 764.874 175.405C764.675 174.725 764.223 174.147 763.611 173.79C763.305 173.615 762.966 173.504 762.616 173.466C762.265 173.428 761.911 173.462 761.574 173.567C761.238 173.672 760.927 173.845 760.66 174.076C760.394 174.306 760.178 174.59 760.026 174.908V174.908Z" fill="#263238"/>
<path d="M757.93 197.559L753.018 199.398C753.128 199.725 753.302 200.026 753.529 200.286C753.757 200.545 754.033 200.756 754.343 200.908C754.652 201.059 754.989 201.148 755.333 201.168C755.677 201.189 756.022 201.141 756.347 201.028C757.005 200.762 757.536 200.254 757.831 199.609C758.125 198.964 758.161 198.23 757.93 197.559V197.559Z" fill="#F28F8F"/>
<path d="M738.631 176.7L742.798 173.464C742.602 173.182 742.35 172.943 742.059 172.762C741.767 172.58 741.442 172.459 741.102 172.407C740.763 172.355 740.416 172.372 740.083 172.458C739.751 172.543 739.439 172.696 739.167 172.906C738.606 173.347 738.237 173.988 738.137 174.695C738.037 175.402 738.214 176.121 738.631 176.7V176.7Z" fill="#263238"/>
<path d="M739.912 182.404C739.912 182.685 739.967 182.964 740.075 183.224C740.182 183.483 740.34 183.72 740.539 183.918C740.738 184.117 740.974 184.275 741.234 184.383C741.494 184.49 741.772 184.546 742.053 184.546C742.335 184.546 742.613 184.49 742.873 184.383C743.133 184.275 743.369 184.117 743.568 183.918C743.767 183.72 743.925 183.483 744.032 183.224C744.14 182.964 744.195 182.685 744.195 182.404C744.205 182.117 744.156 181.831 744.053 181.563C743.949 181.295 743.793 181.051 743.593 180.844C743.393 180.638 743.154 180.474 742.889 180.362C742.625 180.25 742.341 180.192 742.053 180.192C741.477 180.205 740.929 180.444 740.528 180.858C740.127 181.272 739.905 181.828 739.912 182.404V182.404Z" fill="#263238"/>
<path d="M750.83 180.355L750.132 193.276L743.404 190.971L750.83 180.355Z" fill="#F28F8F"/>
<path d="M694.772 258.11L749.666 272.567L765.869 340.708L713.675 325.553L694.772 258.11Z" fill="#008DB9"/>
<path d="M718.704 303.204C717.737 304.928 716.275 306.323 714.507 307.207C712.739 308.091 710.746 308.424 708.786 308.162L707.995 305.346L718.704 303.204Z" fill="#008DB9"/>
<path d="M730.972 305.345C731.205 307.161 734.953 310.514 741.262 312.609C748.432 314.937 759.444 313.75 759.444 313.75L758.466 310.351L730.972 305.345Z" fill="#008DB9"/>
<path opacity="0.43" d="M710.928 267.981L710.463 265.886C710.23 264.722 713.442 264.676 717.679 265.77L725.758 267.865C729.994 268.982 733.603 270.798 733.859 271.962L734.325 274.057L710.928 267.981Z" fill="#455A64"/>
<path d="M707.017 260.089C706.877 259.367 708.181 259.181 709.95 259.67L713.256 260.648C713.256 260.648 712.302 255.992 719.425 257.691C721.326 257.972 723.122 258.738 724.64 259.917C726.157 261.096 727.344 262.647 728.086 264.419L731.508 265.397C733.393 265.932 735.093 266.933 735.326 267.725L735.721 269.029L707.436 261.579L707.017 260.089Z" fill="#37474F"/>
<path d="M710.928 262.347C713.512 262.976 714.583 263.325 714.979 265.094C715.375 266.864 715.607 268.633 715.607 268.633L728.109 271.939C728.109 271.939 727.503 269.355 727.317 268.354C727.131 267.353 727.55 266.747 729.645 267.26L729.808 266.468L710.183 261.486L710.928 262.347Z" fill="#37474F"/>
<path d="M710.486 268.191L710.043 266.096C709.787 264.932 713 264.885 717.237 265.979L725.315 268.074C729.552 269.169 733.184 270.984 733.44 272.148L733.882 274.244L710.486 268.191Z" fill="#37474F"/>
<path d="M828.515 305.345L810.078 291.075C810.078 291.075 771.433 298.338 767.079 298.687C762.726 299.037 759.281 294.73 757.628 290.446C755.975 286.163 752.623 286.698 752.623 286.698C752.623 286.698 753.903 292.146 754.322 293.868C754.741 295.591 744.661 297.011 738.864 295.056C733.067 293.1 724.663 295.94 729.855 303.856C735.046 311.771 745.196 312.655 752.227 312.679C755.169 312.65 758.108 312.448 761.027 312.073C763.355 311.794 765.683 311.561 767.848 311.398C782.235 310.374 821.974 307.394 828.515 305.345Z" fill="#FFA8A7"/>
<path d="M700.336 278.038L702.78 286.721C703.246 288.398 709.624 291.377 713.675 292.541C717.726 293.705 722.126 294.869 720.217 300.62C718.448 305.811 711.813 306.998 708.437 306.859C706.163 306.474 704.04 305.469 702.302 303.953C700.564 302.437 699.279 300.469 698.59 298.268C696.262 291.634 697.519 284.533 696.588 280.645C695.656 276.758 698.334 275.733 700.336 278.038Z" fill="#F28F8F"/>
<path d="M784.237 518.055V516.076C782.933 516.658 779.86 528.321 774.413 533.28C770.082 537.238 764.169 541.824 762.773 546.224C761.376 550.624 771.014 553.347 775.064 552.626C779.72 551.788 787.938 548.482 789.987 545.409C792.036 542.336 792.99 537.796 794.643 535.538C796.296 533.28 800.137 530.882 801.045 528.182C801.315 525.747 801.045 523.283 800.253 520.965C799.625 518.521 798.926 515.867 798.112 516.076C798.112 516.379 798.112 517.589 798.112 517.589C796.115 519.135 793.652 519.956 791.128 519.917C789.102 519.987 784.213 519.591 784.237 518.055Z" fill="#37474F"/>
<path d="M736.536 496.288C735.814 496.288 735.232 497.313 733.673 499.012C731.317 501.392 728.578 503.359 725.571 504.832C720.426 507.416 710.439 511.374 705.9 513.422C703.059 514.703 703.199 518.078 706.132 520.057C709.066 522.036 716.119 523.409 724.593 521.5C729.249 520.476 735.232 516.216 739.027 516.425C742.822 516.635 749.945 516.612 752.762 514.679C755.579 512.747 754.438 508.603 753.647 505.041C752.855 501.48 751.552 495.241 750.271 495.497V496.73C748.618 499.221 740.191 500.246 736.559 498.407L736.536 496.288Z" fill="#37474F"/>
<path d="M141.29 487.931L149.88 499.873C145.964 501.682 141.692 502.588 137.379 502.527C129.696 502.83 127.578 500.199 127.298 499.687C125.995 496.917 128.02 491.888 128.579 487.558L141.29 487.931Z" fill="#37474F"/>
<path d="M127.298 475.918C127.298 475.918 128.602 486.767 128.695 489.095C128.788 491.423 139.288 492.191 141.29 487.931L141.592 474.661L127.298 475.918Z" fill="#F28F8F"/>
<path d="M127.298 262.184C120.128 273.359 113.33 283.136 111.841 295.754C108.768 322.27 118.824 352.581 120.99 372.182C116.919 377.775 114.565 384.433 114.215 391.342C114.215 399.443 127.298 475.918 127.298 475.918C127.298 475.918 136.797 478.828 141.592 474.661L150.578 333.98L145.922 316.846L127.298 262.184Z" fill="#008DB9"/>
<path opacity="0.5" d="M127.298 262.184C120.128 273.359 113.33 283.136 111.841 295.754C108.768 322.27 118.824 352.581 120.99 372.182C116.919 377.775 114.565 384.433 114.215 391.342C114.215 399.443 127.298 475.918 127.298 475.918C127.298 475.918 136.797 478.828 141.592 474.661L150.578 333.98L145.922 316.846L127.298 262.184Z" fill="white"/>
<path d="M193.577 209.781L240.858 232.479L212.48 296.29L168.388 270.844L193.577 209.781Z" fill="#008DB9"/>
<path d="M235.294 233.643L210.804 288.025L176.862 268.47L196.114 214.949L235.294 233.643Z" fill="#008DB9"/>
<path d="M196.114 214.949L235.294 233.643L208.848 288.607L171.786 267.446L196.114 214.949Z" fill="white"/>
<path d="M204.635 222.818L205.542 220.862C206.055 219.791 209.291 220.234 212.783 221.887L219.464 225.053C222.956 226.682 225.354 228.917 224.865 229.988L223.934 231.944L204.635 222.818Z" fill="#E0E0E0"/>
<path d="M111.259 232.712C107.813 242.536 100.992 258.134 103.18 261.276C105.369 264.419 118.499 263.744 125.809 263.465C135.121 263.116 142.849 262.743 142.849 262.743L141.29 246.447H128.067L133.887 229.965L111.259 232.712Z" fill="#F28F8F"/>
<path d="M124.505 197.792C119.686 205.707 109.955 233.643 109.955 233.643C112.659 236.71 116.245 238.864 120.221 239.812C123.694 240.878 127.385 241.022 130.93 240.231L141.685 213.459L124.505 197.792Z" fill="#008DB9"/>
<path opacity="0.4" d="M124.505 197.792C119.686 205.707 109.955 233.643 109.955 233.643C112.659 236.71 116.245 238.864 120.221 239.812C123.694 240.878 127.385 241.022 130.93 240.231L141.685 213.459L124.505 197.792Z" fill="black"/>
<path d="M172.625 202.774C181.075 205.311 186.22 205.754 195.555 220.118C204.891 234.481 225.331 262.976 227.356 266.398C230.173 271.054 231.383 276.828 228.962 281.204C226.541 285.581 220.093 283.532 210.827 275.361C201.562 267.19 184.102 245.283 184.102 245.283C184.102 245.283 165.897 224.774 172.625 202.774Z" fill="#FFA8A7"/>
<path d="M165.873 184.15L163.592 204.334L143.664 206.638L146.551 179.843L165.873 184.15Z" fill="#FFA8A7"/>
<path d="M123.248 154.654C124.901 136.03 134.888 128.324 142.826 126.485C158.587 122.76 172.648 128.487 179.027 139.545C180.703 142.455 183.52 153.35 177.909 159.776C172.299 166.201 123.248 154.654 123.248 154.654" fill="#263238"/>
<path d="M180.586 161.219C180.586 161.219 184.73 168.203 184.102 168.995C183 169.634 181.794 170.076 180.54 170.298L180.586 161.219Z" fill="#F28F8F"/>
<path d="M168.015 138.754C172.299 141.291 179.655 145.924 180.656 162.22C181.704 178.958 178.514 184.103 176 186.152C174.394 187.549 166.153 187.083 162.032 185.57C156.98 183.661 145.736 178.469 140.894 169.577C135.307 159.124 134.818 145.598 142.221 140.733C145.995 138.232 150.346 136.737 154.861 136.391C159.375 136.044 163.903 136.858 168.015 138.754V138.754Z" fill="#FFA8A7"/>
<path d="M169.272 139.592C169.272 139.592 172.229 154.98 167.107 164.292C167.107 164.292 164.779 158.216 159.565 159.636C154.35 161.056 154.42 167.9 158.261 171.625C159.234 172.685 160.487 173.448 161.875 173.827C163.263 174.206 164.73 174.185 166.106 173.767C165.382 178.56 163.148 182.996 159.728 186.431C154.298 187.687 148.625 187.383 143.361 185.555C138.097 183.726 133.457 180.446 129.976 176.095C118.336 162.267 121.385 138.847 139.846 133.818C158.307 128.79 169.272 139.592 169.272 139.592Z" fill="#263238"/>
<path d="M149.391 494.146C149.391 494.146 159.821 493.471 167.014 492.563C174.208 491.655 179.911 495.171 178.212 498.151C176.512 501.13 172.555 503.575 166.386 505.647C161.101 507.439 154.746 508.72 149.251 510.303C143.757 511.886 139.939 513.934 136.75 512.84C133.188 511.606 131.652 510.186 131.954 507.579C132.732 503.87 133.695 500.203 134.841 496.591L149.391 494.146Z" fill="#37474F"/>
<path d="M137.868 482.599L134.119 499.058C134.119 499.058 133.77 501.06 142.337 502.341C150.904 503.621 164.36 497.871 166.665 496.684C168.97 495.497 169.226 493.192 160.798 493.657C152.371 494.123 149.391 494.146 149.391 494.146L152.208 486.836L137.868 482.599Z" fill="#FFA8A7"/>
<path d="M150.578 333.98L145.922 316.846C137.008 314.499 128.409 311.083 120.314 306.672C120.314 306.672 125.157 315.495 138.938 320.314L146.179 342.337L146.807 392.715L150.578 333.98Z" fill="#008DB9"/>
<path d="M127.298 262.184C123.457 268.447 114.285 279.179 116.217 289.468C118.545 301.97 125.32 310.723 145.853 316.846L165.128 386.686C165.128 386.686 155.095 395.998 152.022 405.007C148.949 414.016 137.868 482.669 137.868 482.669C137.868 482.669 141.29 488.256 152.115 486.906C152.115 486.906 189.852 400.77 192.529 395.16C195.723 389.511 196.851 382.926 195.718 376.536C194.531 367.48 181.75 268.61 181.75 268.61L127.298 262.184Z" fill="#008DB9"/>
<path opacity="0.5" d="M127.298 262.184C123.457 268.447 114.285 279.179 116.217 289.468C118.545 301.97 125.32 310.723 145.853 316.846L165.128 386.686C165.128 386.686 155.095 395.998 152.022 405.007C148.949 414.016 137.868 482.669 137.868 482.669C137.868 482.669 141.29 488.256 152.115 486.906C152.115 486.906 189.852 400.77 192.529 395.16C195.723 389.511 196.851 382.926 195.718 376.536C194.531 367.48 181.75 268.61 181.75 268.61L127.298 262.184Z" fill="white"/>
<path d="M123.806 199.235C125.296 195.278 130.045 191.972 134.329 193.136C147.762 196.791 168.644 201.61 172.625 202.774C172.625 202.774 170.855 233.038 186.313 242.071C185.592 247.821 181.657 268.447 181.657 268.447C181.657 268.447 163.033 277.479 147.762 273.103C132.49 268.726 127.298 262.254 127.298 262.254L134.958 249.776C133.328 245.702 126.996 231.944 122.922 219.14C121.424 212.546 121.729 205.67 123.806 199.235V199.235Z" fill="#008DB9"/>
<path opacity="0.2" d="M123.806 199.235C125.296 195.278 130.045 191.972 134.329 193.136C147.762 196.791 168.644 201.61 172.625 202.774C172.625 202.774 170.855 233.038 186.313 242.071C185.592 247.821 181.657 268.447 181.657 268.447C181.657 268.447 163.033 277.479 147.762 273.103C132.49 268.726 127.298 262.254 127.298 262.254L134.958 249.776C133.328 245.702 126.996 231.944 122.922 219.14C121.424 212.546 121.729 205.67 123.806 199.235V199.235Z" fill="black"/>
<path opacity="0.25" d="M132.862 244.794C139.229 248.623 145.902 251.917 152.813 254.642C146.542 254.52 140.401 252.823 134.958 249.706L132.862 244.794Z" fill="#008DB9"/>
<path d="M136.82 130.629C136.82 130.629 130.441 119.757 114.82 122.574C99.1995 125.391 92.8673 141.966 93.1001 152.466C93.3329 162.965 96.8482 170.298 87.4431 182.73C85.5893 185.181 84.2831 188.002 83.6125 191.002C82.9419 194.001 82.9226 197.109 83.5559 200.117C84.1892 203.125 85.4603 205.961 87.2835 208.436C89.1067 210.91 91.4395 212.965 94.1244 214.46C106.672 221.444 109.722 209.292 106.812 198.909C103.46 187.013 115.915 184.941 119.244 175.932C122.573 166.923 116.031 147.996 120.221 141.571C124.877 134.587 131.163 135.564 134.189 137.939L136.82 130.629Z" fill="#263238"/>
<path d="M172.625 202.774C176.8 203.661 180.878 204.955 184.8 206.638C189.922 209.153 209.896 240.511 209.896 240.511C209.896 240.511 208.476 252.314 192.133 256.993L182.472 244.794C182.472 244.794 168.271 223.586 172.625 202.774Z" fill="#008DB9"/>
<path opacity="0.1" d="M172.625 202.774C176.8 203.661 180.878 204.955 184.8 206.638C189.922 209.153 209.896 240.511 209.896 240.511C209.896 240.511 208.476 252.314 192.133 256.993L182.472 244.794C182.472 244.794 168.271 223.586 172.625 202.774Z" fill="black"/>
<path d="M185.312 248.473C181.02 243.476 177.781 237.664 175.791 231.385C175.791 231.385 175.791 244.934 184.707 251.941L185.312 248.473Z" fill="#008DB9"/>
<path opacity="0.4" d="M185.312 248.473C181.02 243.476 177.781 237.664 175.791 231.385C175.791 231.385 175.791 244.934 184.707 251.941L185.312 248.473Z" fill="black"/>
<path d="M206.334 214.391C206.637 213.715 208.057 213.762 209.5 214.391L212.107 215.671C212.107 215.671 214.133 211.457 220.186 213.995C226.238 216.532 224.376 221.398 224.376 221.398L227.146 222.818C228.683 223.586 229.707 224.773 229.474 225.472L229.009 226.706L205.729 215.531L206.334 214.391Z" fill="#455A64"/>
<path d="M208.709 217.044C210.897 218.022 211.735 218.488 211.037 220.164C210.338 221.84 209.337 223.446 209.337 223.446L219.627 228.382C219.627 228.382 220.721 226.054 221.187 225.029C221.652 224.005 222.49 223.609 224.12 224.401L224.818 223.702L208.522 216.136L208.709 217.044Z" fill="#455A64"/>
<path d="M204.448 222.236L205.38 220.28C205.892 219.186 209.128 219.652 212.62 221.305L219.301 224.471C222.77 226.1 225.191 228.312 224.679 229.406L223.747 231.362L204.448 222.236Z" fill="#455A64"/>
</svg>
