<svg xmlns="http://www.w3.org/2000/svg" viewBox="0 0 750 500"><g id="freepik--background-complete--inject-26"><path d="M100.77,149.88a3.74,3.74,0,0,1,3.92,0c.33.2.67.39,1,.58s.7.36,1,.52a3.75,3.75,0,0,1,2.18,3.25l.15,4.82,15.73-.48-.15-4.86a3.71,3.71,0,0,1,2-3.37,19.63,19.63,0,0,0,2-1.2,3.76,3.76,0,0,1,3.94-.27l4.25,2.27,7.43-13.87L140,135a3.77,3.77,0,0,1-1.95-3.44,21.91,21.91,0,0,0-.08-2.29,3.71,3.71,0,0,1,1.7-3.51l4.13-2.56-8.29-13.37-4.12,2.55a3.68,3.68,0,0,1-3.85,0c-.35-.21-.71-.42-1.07-.61s-.72-.38-1.09-.55a3.68,3.68,0,0,1-2.13-3.23l-.15-4.83-15.72.49.15,4.81a3.69,3.69,0,0,1-1.91,3.36,23.52,23.52,0,0,0-2.13,1.32,3.67,3.67,0,0,1-3.84.21l-4.24-2.28L87.94,125l4.24,2.28a3.76,3.76,0,0,1,1.95,3.44,21.91,21.91,0,0,0,.08,2.29,3.74,3.74,0,0,1-1.71,3.52l-4.12,2.55,8.29,13.37Zm3.24-23.3a12.89,12.89,0,1,1,4.54,15A12.9,12.9,0,0,1,104,126.58Z" style="fill:#ebebeb"></path><path d="M147.27,100.27A2.62,2.62,0,0,1,149.71,99c.26,0,.54,0,.81,0s.54,0,.81,0a2.63,2.63,0,0,1,2.43,1.28l1.69,2.93L165,97.68l-1.69-2.93A2.6,2.6,0,0,1,163.4,92c.3-.46.58-.94.83-1.42a2.6,2.6,0,0,1,2.32-1.45h3.38v-11h-3.38a2.61,2.61,0,0,1-2.32-1.44,15.64,15.64,0,0,0-.83-1.43,2.6,2.6,0,0,1-.09-2.74L165,69.57l-9.55-5.51L153.75,67a2.61,2.61,0,0,1-2.42,1.28c-.27,0-.54,0-.81,0s-.55,0-.81,0A2.64,2.64,0,0,1,147.27,67l-1.69-2.93L136,69.57l1.69,2.92a2.64,2.64,0,0,1-.1,2.75,15.38,15.38,0,0,0-.82,1.42,2.61,2.61,0,0,1-2.33,1.45h-3.37v11h3.37a2.63,2.63,0,0,1,2.33,1.45,14.17,14.17,0,0,0,.82,1.42,2.64,2.64,0,0,1,.1,2.75L136,97.68l9.54,5.51Zm-5.79-16.64a9,9,0,1,1,9,9A9,9,0,0,1,141.48,83.63Z" style="fill:#ebebeb"></path><path d="M699.09,265.34l-5.51-9.55-2.92,1.69a2.62,2.62,0,0,1-2.75-.09,15.64,15.64,0,0,0-1.43-.83,2.63,2.63,0,0,1-1.45-2.33v-3.37H674v3.37a2.63,2.63,0,0,1-1.45,2.33,15.64,15.64,0,0,0-1.43.83,2.62,2.62,0,0,1-2.75.09l-2.92-1.69L660,265.34l2.94,1.69a2.62,2.62,0,0,1,1.28,2.43c0,.27,0,.54,0,.81s0,.54,0,.81a2.61,2.61,0,0,1-1.27,2.42L660,275.2l5.51,9.55,2.93-1.69a2.6,2.6,0,0,1,2.75.1,15.38,15.38,0,0,0,1.42.82,2.63,2.63,0,0,1,1.45,2.33v3.37h11v-3.37a2.63,2.63,0,0,1,1.45-2.33,15.38,15.38,0,0,0,1.42-.82,2.6,2.6,0,0,1,2.75-.1l2.93,1.69,5.51-9.55-2.93-1.69a2.6,2.6,0,0,1-1.28-2.42c0-.27,0-.54,0-.82s0-.54,0-.81a2.62,2.62,0,0,1,1.28-2.43Zm-10.54,4.93a9,9,0,1,1-9-9A9,9,0,0,1,688.55,270.27Z" style="fill:#ebebeb"></path><path d="M176.71,317.32a35.75,35.75,0,1,1-35.36-41v35.74Z" style="fill:#ebebeb"></path><path d="M184.38,304.8A36.21,36.21,0,0,1,184,310l-35.36-5.24V269.06a35.71,35.71,0,0,1,35.75,35.74Z" style="fill:#dbdbdb"></path><path d="M244.14,51.93V79.68l-18,21.11a27.75,27.75,0,0,1,18-48.86Z" style="fill:#ebebeb"></path><path d="M277.55,82.51a27.75,27.75,0,0,1-45.76,21.1l18-21.1V54.75a27.75,27.75,0,0,1,27.76,27.76Z" style="fill:#ebebeb"></path><path d="M277.55,82.51a27.75,27.75,0,0,1-45.76,21.1l18-21.1V54.75a27.75,27.75,0,0,1,27.76,27.76Z" style="fill:#dbdbdb"></path><rect x="270.58" y="81.08" width="35.8" height="1" style="fill:#c7c7c7"></rect><path d="M308.89,84.58a3,3,0,1,1,3-3A3,3,0,0,1,308.89,84.58Zm0-5a2,2,0,1,0,2,2A2,2,0,0,0,308.89,79.57Z" style="fill:#c7c7c7"></path><rect x="317.69" y="79.69" width="27.81" height="1.25" style="fill:#c7c7c7"></rect><rect x="317.69" y="82.2" width="15.74" height="1.25" style="fill:#c7c7c7"></rect><rect x="159.48" y="331.37" width="38.01" height="1" style="fill:#c7c7c7"></rect><path d="M200.16,335a3.17,3.17,0,1,1,3.17-3.17A3.17,3.17,0,0,1,200.16,335Zm0-5.33a2.17,2.17,0,1,0,2.17,2.16A2.16,2.16,0,0,0,200.16,329.71Z" style="fill:#c7c7c7"></path><rect x="209.82" y="329.88" width="29.53" height="1.33" style="fill:#c7c7c7"></rect><rect x="209.82" y="332.54" width="16.71" height="1.33" style="fill:#c7c7c7"></rect></g><g id="freepik--Shadow--inject-26"><ellipse cx="375" cy="424.24" rx="328.77" ry="36.37" style="fill:#ebebeb"></ellipse></g><g id="freepik--Floor--inject-26"><polygon points="50.72 373.19 131.79 372.95 212.86 372.86 375 372.69 537.14 372.86 618.21 372.95 699.28 373.19 618.21 373.44 537.14 373.52 375 373.69 212.86 373.52 131.79 373.43 50.72 373.19" style="fill:#263238"></polygon></g><g id="freepik--Device--inject-26"><rect x="166.06" y="102.6" width="416.19" height="278.4" style="fill:#dbdbdb"></rect><rect x="169.09" y="106" width="410.14" height="271.61" style="fill:#263238"></rect><rect x="111.86" y="401.88" width="524.6" height="19.11" style="fill:#c7c7c7"></rect><polygon points="111.86 401.88 166.06 381 582.25 381 636.46 401.88 111.86 401.88" style="fill:#dbdbdb"></polygon><polygon points="170.91 394.48 205.89 381 542.43 381 577.41 394.48 170.91 394.48" style="fill:#263238"></polygon><rect x="192.27" y="126.63" width="363.78" height="230.34" style="fill:#fff"></rect><rect x="191.96" y="126.63" width="364.09" height="8.86" style="fill:#455a64"></rect><path d="M199,131.07a2.2,2.2,0,1,1-2.19-2.2A2.19,2.19,0,0,1,199,131.07Z" style="fill:#c7c7c7"></path><path d="M208,131.07a2.2,2.2,0,1,1-2.2-2.2A2.19,2.19,0,0,1,208,131.07Z" style="fill:#fff"></path><path d="M217,131.07a2.2,2.2,0,1,1-2.2-2.2A2.2,2.2,0,0,1,217,131.07Z" style="fill:#008DB9"></path><polygon points="246.14 242 246.03 233.14 245.99 224.28 245.91 206.56 245.99 188.84 246.03 179.98 246.14 171.12 246.25 179.98 246.29 188.84 246.37 206.56 246.29 224.28 246.25 233.14 246.14 242" style="fill:#ebebeb"></polygon><polygon points="270.79 242 270.68 233.14 270.64 224.28 270.57 206.56 270.64 188.84 270.68 179.98 270.79 171.12 270.91 179.98 270.95 188.84 271.02 206.56 270.95 224.28 270.91 233.14 270.79 242" style="fill:#ebebeb"></polygon><polygon points="295.45 242 295.33 233.14 295.3 224.28 295.22 206.56 295.29 188.84 295.33 179.98 295.45 171.12 295.56 179.98 295.6 188.84 295.67 206.56 295.6 224.28 295.56 233.14 295.45 242" style="fill:#ebebeb"></polygon><polygon points="320.1 242 319.99 233.14 319.95 224.28 319.87 206.56 319.95 188.84 319.99 179.98 320.1 171.12 320.21 179.98 320.25 188.84 320.33 206.56 320.25 224.28 320.21 233.14 320.1 242" style="fill:#ebebeb"></polygon><polygon points="344.75 242 344.64 233.14 344.6 224.28 344.52 206.56 344.6 188.84 344.64 179.98 344.75 171.12 344.86 179.98 344.9 188.84 344.98 206.56 344.9 224.28 344.86 233.14 344.75 242" style="fill:#ebebeb"></polygon><polygon points="369.4 242 369.29 233.14 369.25 224.28 369.17 206.56 369.25 188.84 369.29 179.98 369.4 171.12 369.51 179.98 369.55 188.84 369.63 206.56 369.55 224.28 369.51 233.14 369.4 242" style="fill:#ebebeb"></polygon><polygon points="394.05 242 393.94 233.14 393.9 224.28 393.82 206.56 393.9 188.84 393.94 179.98 394.05 171.12 394.17 179.98 394.2 188.84 394.28 206.56 394.2 224.28 394.16 233.14 394.05 242" style="fill:#ebebeb"></polygon><polygon points="418.7 242 418.59 233.14 418.55 224.28 418.48 206.56 418.55 188.84 418.59 179.98 418.7 171.12 418.82 179.98 418.86 188.84 418.93 206.56 418.86 224.28 418.82 233.14 418.7 242" style="fill:#ebebeb"></polygon><polygon points="443.36 242 443.25 233.14 443.2 224.28 443.13 206.56 443.2 188.84 443.25 179.98 443.36 171.12 443.47 179.98 443.51 188.84 443.58 206.56 443.51 224.28 443.47 233.14 443.36 242" style="fill:#ebebeb"></polygon><polygon points="468.01 242 467.9 233.14 467.86 224.28 467.78 206.56 467.86 188.84 467.9 179.98 468.01 171.12 468.12 179.98 468.16 188.84 468.24 206.56 468.16 224.28 468.12 233.14 468.01 242" style="fill:#ebebeb"></polygon><polygon points="492.66 242 492.55 233.14 492.51 224.28 492.43 206.56 492.51 188.84 492.55 179.98 492.66 171.12 492.77 179.98 492.81 188.84 492.89 206.56 492.81 224.28 492.77 233.14 492.66 242" style="fill:#ebebeb"></polygon><polygon points="517.31 242 517.2 233.14 517.16 224.28 517.08 206.56 517.16 188.84 517.2 179.98 517.31 171.12 517.42 179.98 517.46 188.84 517.54 206.56 517.46 224.28 517.42 233.14 517.31 242" style="fill:#ebebeb"></polygon><polygon points="221.49 171.12 298.39 170.97 375.3 170.89 452.2 170.96 529.1 171.12 452.2 171.27 375.3 171.34 298.39 171.27 221.49 171.12" style="fill:#ebebeb"></polygon><polygon points="221.49 188.29 298.39 188.14 375.3 188.06 452.2 188.14 529.1 188.29 452.2 188.44 375.3 188.52 298.39 188.44 221.49 188.29" style="fill:#ebebeb"></polygon><polygon points="221.49 205.46 298.39 205.31 375.3 205.23 452.2 205.31 529.1 205.46 452.2 205.61 375.3 205.69 298.39 205.61 221.49 205.46" style="fill:#ebebeb"></polygon><polygon points="221.49 222.63 298.39 222.48 375.3 222.4 452.2 222.48 529.1 222.63 452.2 222.78 375.3 222.86 298.39 222.78 221.49 222.63" style="fill:#ebebeb"></polygon><path d="M221.49,205.46l24.6-8.79h0l24.64-1.31h.06l.05,0,24.67,9.8-.06,0,24.66,4.38h-.09l24.64-2.18-.16.05c8.21-4.41,16.41-8.83,24.65-13.19l.08-.05h.09L394,192.29h.11l24.64,5.12-.18,0,24.67-9.4.06,0h.07L468,190.63H468l24.69-6h0l9.19.06-9.19.05h0l-24.61,6.33H468l-24.66-2.5h.13L418.82,198l-.09,0-.09,0-24.66-5h.1l-24.64,2,.17-.05c-8.2,4.42-16.44,8.78-24.66,13.15l-.08,0h-.08l-24.66,2.08H320l-24.64-4.48h-.06l-24.63-9.9h.11L246.15,197h0Z" style="fill:#008DB9"></path><path d="M248.2,196.82a2.06,2.06,0,1,1-2.06-2A2.06,2.06,0,0,1,248.2,196.82Z" style="fill:#fff"></path><path d="M246.14,199.34a2.52,2.52,0,1,1,2.52-2.52A2.52,2.52,0,0,1,246.14,199.34Zm0-4.12a1.6,1.6,0,1,0,1.6,1.6A1.6,1.6,0,0,0,246.14,195.22Z" style="fill:#008DB9"></path><circle cx="270.79" cy="195.66" r="2.06" style="fill:#fff"></circle><path d="M270.79,198.17a2.51,2.51,0,1,1,2.52-2.51A2.52,2.52,0,0,1,270.79,198.17Zm0-4.11a1.6,1.6,0,1,0,1.6,1.6A1.6,1.6,0,0,0,270.79,194.06Z" style="fill:#008DB9"></path><circle cx="320.1" cy="209.89" r="2.06" style="fill:#fff"></circle><path d="M320.1,212.4a2.51,2.51,0,1,1,2.51-2.51A2.51,2.51,0,0,1,320.1,212.4Zm0-4.11a1.6,1.6,0,1,0,1.6,1.6A1.6,1.6,0,0,0,320.1,208.29Z" style="fill:#008DB9"></path><circle cx="369.25" cy="194.77" r="2.06" style="fill:#fff"></circle><path d="M369.25,197.28a2.51,2.51,0,1,1,2.51-2.51A2.51,2.51,0,0,1,369.25,197.28Zm0-4.11a1.6,1.6,0,1,0,1.6,1.6A1.6,1.6,0,0,0,369.25,193.17Z" style="fill:#008DB9"></path><path d="M420.76,197.94a2.06,2.06,0,1,1-2.05-2.06A2.05,2.05,0,0,1,420.76,197.94Z" style="fill:#fff"></path><path d="M418.7,200.45a2.51,2.51,0,1,1,2.52-2.51A2.52,2.52,0,0,1,418.7,200.45Zm0-4.11a1.6,1.6,0,1,0,1.6,1.6A1.6,1.6,0,0,0,418.7,196.34Z" style="fill:#008DB9"></path><circle cx="344.75" cy="207.84" r="2.06" style="fill:#fff"></circle><path d="M344.75,210.35a2.52,2.52,0,1,1,2.51-2.51A2.51,2.51,0,0,1,344.75,210.35Zm0-4.11a1.6,1.6,0,1,0,1.6,1.6A1.6,1.6,0,0,0,344.75,206.24Z" style="fill:#008DB9"></path><circle cx="394.05" cy="192.71" r="2.06" style="fill:#fff"></circle><path d="M394.05,195.22a2.51,2.51,0,1,1,2.52-2.51A2.51,2.51,0,0,1,394.05,195.22Zm0-4.11a1.6,1.6,0,1,0,1.6,1.6A1.6,1.6,0,0,0,394.05,191.11Z" style="fill:#008DB9"></path><circle cx="468.01" cy="190.66" r="2.06" style="fill:#fff"></circle><path d="M468,193.17a2.52,2.52,0,1,1,2.51-2.51A2.51,2.51,0,0,1,468,193.17Zm0-4.11a1.6,1.6,0,1,0,1.6,1.6A1.6,1.6,0,0,0,468,189.06Z" style="fill:#008DB9"></path><path d="M494.72,184.67a2.06,2.06,0,1,1-2.06-2.06A2.05,2.05,0,0,1,494.72,184.67Z" style="fill:#fff"></path><path d="M492.66,187.18a2.52,2.52,0,1,1,2.51-2.51A2.52,2.52,0,0,1,492.66,187.18Zm0-4.11a1.6,1.6,0,1,0,1.6,1.6A1.6,1.6,0,0,0,492.66,183.07Z" style="fill:#008DB9"></path><circle cx="443.36" cy="188.17" r="2.06" style="fill:#fff"></circle><path d="M443.36,190.68a2.51,2.51,0,1,1,2.51-2.51A2.51,2.51,0,0,1,443.36,190.68Zm0-4.11a1.6,1.6,0,1,0,1.59,1.6A1.6,1.6,0,0,0,443.36,186.57Z" style="fill:#008DB9"></path><circle cx="295.45" cy="205.46" r="2.06" style="fill:#fff"></circle><path d="M295.45,208a2.51,2.51,0,1,1,2.51-2.51A2.52,2.52,0,0,1,295.45,208Zm0-4.11a1.6,1.6,0,1,0,1.6,1.6A1.6,1.6,0,0,0,295.45,203.86Z" style="fill:#008DB9"></path><path d="M221.49,222.73l24.63-3.19-.07,0,24.6-17,0,0h0l24.64-9.25.1,0,.11,0,24.66,8.26h0l0,0L345,216.91l-.37,0c8.21-3.27,16.41-6.56,24.64-9.77l.18-.07.18.08,24.62,12.23-.46.1,24.69-29,.15-.18.22.09,24.63,9.28-.13,0,24.66-3h0l24.64,1.27h0l9.21-3.11L492.68,198h0L468,197h0l-24.64,3.13h-.07l-.06,0L418.59,191l.37-.1-24.61,29.07-.2.23-.27-.13-24.67-12.13h.35c-8.2,3.29-16.43,6.5-24.66,9.73l-.19.08-.18-.11L319.9,202.23l.08,0-24.63-8.36h.21L270.88,203l.06,0-24.71,16.82,0,0h0Z" style="fill:#37474f"></path><circle cx="246.14" cy="219.69" r="2.06" style="fill:#fff"></circle><path d="M246.14,222.21a2.52,2.52,0,1,1,2.52-2.52A2.52,2.52,0,0,1,246.14,222.21Zm0-4.11a1.6,1.6,0,1,0,1.6,1.59A1.6,1.6,0,0,0,246.14,218.1Z" style="fill:#37474f"></path><circle cx="270.79" cy="202.8" r="2.06" style="fill:#fff"></circle><path d="M270.79,205.31a2.51,2.51,0,1,1,2.52-2.51A2.52,2.52,0,0,1,270.79,205.31Zm0-4.11a1.6,1.6,0,1,0,1.6,1.6A1.6,1.6,0,0,0,270.79,201.2Z" style="fill:#37474f"></path><circle cx="320.1" cy="202.07" r="2.06" style="fill:#fff"></circle><path d="M320.1,204.58a2.52,2.52,0,1,1,2.51-2.51A2.51,2.51,0,0,1,320.1,204.58Zm0-4.11a1.6,1.6,0,1,0,1.6,1.6A1.6,1.6,0,0,0,320.1,200.47Z" style="fill:#37474f"></path><circle cx="369.25" cy="207.84" r="2.06" style="fill:#fff"></circle><path d="M369.25,210.35a2.52,2.52,0,1,1,2.51-2.51A2.51,2.51,0,0,1,369.25,210.35Zm0-4.11a1.6,1.6,0,1,0,1.6,1.6A1.6,1.6,0,0,0,369.25,206.24Z" style="fill:#37474f"></path><circle cx="418.71" cy="190.66" r="2.06" style="fill:#fff"></circle><path d="M418.7,193.17a2.52,2.52,0,1,1,2.52-2.51A2.52,2.52,0,0,1,418.7,193.17Zm0-4.11a1.6,1.6,0,1,0,1.6,1.6A1.6,1.6,0,0,0,418.7,189.06Z" style="fill:#37474f"></path><circle cx="344.75" cy="216.96" r="2.06" style="fill:#fff"></circle><path d="M344.75,219.47a2.51,2.51,0,1,1,2.51-2.51A2.51,2.51,0,0,1,344.75,219.47Zm0-4.11a1.6,1.6,0,1,0,1.6,1.6A1.6,1.6,0,0,0,344.75,215.36Z" style="fill:#37474f"></path><circle cx="394.05" cy="219.32" r="2.06" style="fill:#fff"></circle><path d="M394.05,221.83a2.51,2.51,0,1,1,2.52-2.51A2.51,2.51,0,0,1,394.05,221.83Zm0-4.11a1.6,1.6,0,1,0,1.6,1.6A1.6,1.6,0,0,0,394.05,217.72Z" style="fill:#37474f"></path><path d="M470.06,196.84a2.06,2.06,0,1,1-2.05-2.06A2.05,2.05,0,0,1,470.06,196.84Z" style="fill:#fff"></path><path d="M468,199.35a2.52,2.52,0,1,1,2.51-2.51A2.51,2.51,0,0,1,468,199.35Zm0-4.11a1.6,1.6,0,1,0,1.6,1.6A1.6,1.6,0,0,0,468,195.24Z" style="fill:#37474f"></path><path d="M494.72,197.94a2.06,2.06,0,1,1-2.06-2.06A2.05,2.05,0,0,1,494.72,197.94Z" style="fill:#fff"></path><path d="M492.66,200.45a2.51,2.51,0,1,1,2.51-2.51A2.52,2.52,0,0,1,492.66,200.45Zm0-4.11a1.6,1.6,0,1,0,1.6,1.6A1.6,1.6,0,0,0,492.66,196.34Z" style="fill:#37474f"></path><circle cx="443.36" cy="199.99" r="2.06" style="fill:#fff"></circle><path d="M443.36,202.51a2.52,2.52,0,1,1,2.51-2.52A2.52,2.52,0,0,1,443.36,202.51Zm0-4.12A1.6,1.6,0,1,0,445,200,1.6,1.6,0,0,0,443.36,198.39Z" style="fill:#37474f"></path><circle cx="295.45" cy="193.6" r="2.06" style="fill:#fff"></circle><path d="M295.45,196.12A2.52,2.52,0,1,1,298,193.6,2.52,2.52,0,0,1,295.45,196.12Zm0-4.11a1.6,1.6,0,1,0,1.6,1.59A1.6,1.6,0,0,0,295.45,192Z" style="fill:#37474f"></path><path d="M221.49,167.47l.17,35.33.1,35.33-.27-.27,76.9-.12,38.45-.07,38.46.06,76.9.12c25.63,0,51.27.16,76.9.28-25.63.12-51.27.26-76.9.27l-76.9.13-38.46.05-38.45-.06-76.9-.12h-.27v-.27l.1-35.33Z" style="fill:#dbdbdb"></path><path d="M219.22,171.12a5.27,5.27,0,0,1,2.27-.46,5.1,5.1,0,0,1,2.27.46,6,6,0,0,1-4.54,0Z" style="fill:#dbdbdb"></path><path d="M219.22,188.29a5.43,5.43,0,0,1,2.27-.46,5.25,5.25,0,0,1,2.27.46,6,6,0,0,1-4.54,0Z" style="fill:#dbdbdb"></path><path d="M219.22,205.46a5.83,5.83,0,0,1,4.54,0,5.83,5.83,0,0,1-4.54,0Z" style="fill:#dbdbdb"></path><path d="M219.22,222.63a5.83,5.83,0,0,1,4.54,0,5.83,5.83,0,0,1-4.54,0Z" style="fill:#dbdbdb"></path><path d="M240.08,245.41a.07.07,0,0,1,.08,0,.5.5,0,0,0,.49.36.51.51,0,0,0,.52-.51v-1.21a.07.07,0,0,1,.07-.07.07.07,0,0,1,.06.07v1.21a.65.65,0,0,1-1.27.2A.07.07,0,0,1,240.08,245.41Z" style="fill:#dbdbdb"></path><path d="M242.8,245.45h-.87l-.17.45a.08.08,0,0,1-.07,0h0a.07.07,0,0,1,0-.08l.67-1.79a.08.08,0,0,1,.06,0,.08.08,0,0,1,.07,0l.67,1.79a.07.07,0,0,1,0,.08h0a.08.08,0,0,1-.07,0Zm-.82-.13h.77l-.38-1Z" style="fill:#dbdbdb"></path><path d="M243.66,244.31v1.57a.07.07,0,0,1-.06.07.07.07,0,0,1-.07-.07v-1.76a.08.08,0,0,1,0-.08.08.08,0,0,1,.1,0l1.16,1.62v-1.57a.07.07,0,1,1,.14,0v1.77a.07.07,0,0,1-.07.07.05.05,0,0,1,0,0h0Z" style="fill:#dbdbdb"></path><path d="M245.5,244.09a.07.07,0,1,1,.14,0v1.08a.64.64,0,0,0,.64.64.64.64,0,0,0,.64-.64v-1.08a.07.07,0,0,1,.14,0v1.08a.78.78,0,0,1-1.56,0Z" style="fill:#dbdbdb"></path><path d="M248.65,245.45h-.88l-.17.45a.07.07,0,0,1-.06,0h0a.07.07,0,0,1,0-.08l.67-1.79a.08.08,0,0,1,.07,0,.07.07,0,0,1,.06,0l.67,1.79a.06.06,0,0,1,0,.08h0a.06.06,0,0,1-.06,0Zm-.83-.13h.78l-.39-1Z" style="fill:#dbdbdb"></path><path d="M250.32,245.51a.35.35,0,0,0-.16-.29.46.46,0,0,0-.22-.09h-.48v.76a.07.07,0,0,1-.07.07.07.07,0,0,1-.06-.07v-1.79a.07.07,0,0,1,.06-.07h.55a.55.55,0,0,1,.54.55.56.56,0,0,1-.31.5l0,0a.47.47,0,0,1,.26.42.6.6,0,0,0,0,.23s0,0,0,0a.08.08,0,0,1,.07.05.07.07,0,0,1,0,.08h0a.16.16,0,0,1-.13-.09A.72.72,0,0,1,250.32,245.51Zm-.38-1.35h-.48V245H250a.42.42,0,0,0,.4-.42A.41.41,0,0,0,249.94,244.16Z" style="fill:#dbdbdb"></path><path d="M251.54,245l-.65-.88a.07.07,0,0,1,0-.09.06.06,0,0,1,.09,0l.6.83.6-.83a.07.07,0,0,1,.1,0,.06.06,0,0,1,0,.09l-.64.88v.86a.07.07,0,0,1-.07.07.07.07,0,0,1-.06-.07Z" style="fill:#dbdbdb"></path><path d="M264.27,244.09a.07.07,0,0,1,.06-.07h1a.07.07,0,1,1,0,.14h-.92v.76h.81a.07.07,0,0,1,.07.07.07.07,0,0,1-.07.06h-.81v.83a.07.07,0,0,1-.07.07.07.07,0,0,1-.06-.07Z" style="fill:#dbdbdb"></path><path d="M265.92,244.09A.07.07,0,0,1,266,244h1s.06,0,.06.07,0,.07-.06.07h-.92v.76h.8a.07.07,0,0,1,.07.07.07.07,0,0,1-.07.06h-.8v.76H267s.06,0,.06.07,0,.07-.06.07h-1a.07.07,0,0,1-.06-.07Z" style="fill:#dbdbdb"></path><path d="M267.55,244.09a.07.07,0,0,1,.07-.07H268a.48.48,0,0,1,.48.49.47.47,0,0,1-.18.37.54.54,0,0,1,.37.52.55.55,0,0,1-.55.55h-.55a.07.07,0,0,1-.06-.07Zm.49.76a.35.35,0,0,0,.35-.34.35.35,0,0,0-.35-.35h-.36v.69Zm.12,1a.41.41,0,0,0,.42-.41.42.42,0,0,0-.42-.42h-.48v.83Z" style="fill:#dbdbdb"></path><path d="M270.13,245.51a.36.36,0,0,0-.15-.29.55.55,0,0,0-.22-.09h-.49v.76a.07.07,0,0,1-.06.07.07.07,0,0,1-.07-.07v-1.79a.09.09,0,0,1,.06-.07h.55a.55.55,0,0,1,.23,1l0,0a.49.49,0,0,1,.26.42,1.06,1.06,0,0,0,0,.23.07.07,0,0,0,0,0,.08.08,0,0,1,.07.05.07.07,0,0,1,0,.08h0a.15.15,0,0,1-.12-.09A.57.57,0,0,1,270.13,245.51Zm-.38-1.35h-.48V245h.49a.42.42,0,0,0,.4-.42A.41.41,0,0,0,269.75,244.16Z" style="fill:#dbdbdb"></path><path d="M270.73,244.09a.07.07,0,0,1,.07-.07.07.07,0,0,1,.06.07v1.08a.65.65,0,0,0,1.29,0v-1.08a.07.07,0,0,1,.14,0v1.08a.78.78,0,1,1-1.56,0Z" style="fill:#dbdbdb"></path><path d="M273.87,245.45H273l-.17.45a.08.08,0,0,1-.07,0h0a.07.07,0,0,1,0-.08l.67-1.79a.08.08,0,0,1,.06,0,.07.07,0,0,1,.07,0l.67,1.79a.06.06,0,0,1,0,.08h0a.06.06,0,0,1-.06,0Zm-.82-.13h.77l-.38-1Z" style="fill:#dbdbdb"></path><path d="M275.55,245.51a.35.35,0,0,0-.16-.29.46.46,0,0,0-.22-.09h-.48v.76a.07.07,0,0,1-.07.07.07.07,0,0,1-.06-.07v-1.79a.07.07,0,0,1,.06-.07h.55a.55.55,0,0,1,.54.55.56.56,0,0,1-.31.5s0,0,0,0a.47.47,0,0,1,.26.42.6.6,0,0,0,0,.23l0,0a.09.09,0,0,1,.08.05.07.07,0,0,1-.05.08h0a.16.16,0,0,1-.13-.09A.72.72,0,0,1,275.55,245.51Zm-.38-1.35h-.48V245h.49a.42.42,0,0,0,.4-.42A.41.41,0,0,0,275.17,244.16Z" style="fill:#dbdbdb"></path><path d="M276.77,245l-.65-.88a.07.07,0,0,1,0-.09.07.07,0,0,1,.1,0l.6.83.6-.83a.07.07,0,0,1,.1,0,.06.06,0,0,1,0,.09l-.64.88v.86a.07.07,0,0,1-.07.07.07.07,0,0,1-.06-.07Z" style="fill:#dbdbdb"></path><path d="M292.38,244.3l-.62.85s0,0-.05,0h0a.06.06,0,0,1-.06,0l-.61-.85v1.58a.07.07,0,0,1-.14,0V244.1a.05.05,0,0,1,0,0h0a.07.07,0,0,1,.09,0l.68.95.68-.95a.08.08,0,0,1,.1,0l0,0s0,0,0,0v1.78a.07.07,0,0,1-.07.07s-.06,0-.06-.07Z" style="fill:#dbdbdb"></path><path d="M294.08,245.45h-.88l-.17.45a.06.06,0,0,1-.06,0h0a.05.05,0,0,1,0-.08l.66-1.79a.1.1,0,0,1,.07,0,.08.08,0,0,1,.07,0l.66,1.79a.06.06,0,0,1,0,.08h0a.07.07,0,0,1-.06,0Zm-.83-.13H294l-.39-1Z" style="fill:#dbdbdb"></path><path d="M295.76,245.51a.37.37,0,0,0-.16-.29.55.55,0,0,0-.22-.09h-.48v.76a.07.07,0,0,1-.14,0v-1.79a.09.09,0,0,1,.06-.07h.55a.55.55,0,0,1,.23,1l0,0a.47.47,0,0,1,.26.42,1.06,1.06,0,0,0,0,.23.07.07,0,0,0,0,0,.08.08,0,0,1,.07.05.06.06,0,0,1,0,.08h0a.16.16,0,0,1-.12-.09A.6.6,0,0,1,295.76,245.51Zm-.39-1.35h-.47V245h.48a.43.43,0,0,0,.41-.42A.41.41,0,0,0,295.37,244.16Z" style="fill:#dbdbdb"></path><path d="M297.43,244a1,1,0,0,1,.62.21.06.06,0,0,1,0,.09.06.06,0,0,1-.09,0,.87.87,0,0,0-1.41.66.85.85,0,0,0,.87.83.81.81,0,0,0,.53-.18.07.07,0,0,1,.1,0,.08.08,0,0,1,0,.1,1,1,0,0,1-.62.21,1,1,0,1,1,0-1.95Z" style="fill:#dbdbdb"></path><path d="M299.75,245.05h-1v.83a.07.07,0,0,1-.07.07.07.07,0,0,1-.06-.07v-1.79a.07.07,0,0,1,.06-.07.07.07,0,0,1,.07.07v.83h1v-.83a.07.07,0,0,1,.14,0v1.79a.07.07,0,0,1-.14,0Z" style="fill:#dbdbdb"></path><path d="M317.7,245.45h-.87l-.17.45a.08.08,0,0,1-.07,0h0a.07.07,0,0,1,0-.08l.67-1.79a.08.08,0,0,1,.06,0,.07.07,0,0,1,.07,0l.67,1.79a.06.06,0,0,1,0,.08h0s-.05,0-.07,0Zm-.82-.13h.77l-.38-1Z" style="fill:#dbdbdb"></path><path d="M318.42,244.09a.07.07,0,0,1,.07-.07H319a.55.55,0,0,1,.55.55.54.54,0,0,1-.55.55h-.47v.75a.07.07,0,0,1-.14,0Zm.61.9a.42.42,0,1,0,0-.83h-.47V245Z" style="fill:#dbdbdb"></path><path d="M321,245.51a.35.35,0,0,0-.16-.29.5.5,0,0,0-.22-.09h-.48v.76a.07.07,0,0,1-.14,0v-1.79A.09.09,0,0,1,320,244h.55a.55.55,0,0,1,.23,1l0,0a.47.47,0,0,1,.26.42,1.06,1.06,0,0,0,0,.23l0,0a.09.09,0,0,1,.08.05.07.07,0,0,1-.05.08h0a.16.16,0,0,1-.12-.09A.72.72,0,0,1,321,245.51Zm-.39-1.35h-.47V245h.48a.42.42,0,0,0,.41-.42A.41.41,0,0,0,320.59,244.16Z" style="fill:#dbdbdb"></path><path d="M321.75,244.09a.07.07,0,0,1,.14,0v1.79a.07.07,0,0,1-.14,0Z" style="fill:#dbdbdb"></path><path d="M322.64,246h0a.07.07,0,0,1-.07-.07v-1.79a.07.07,0,0,1,.14,0v1.72h.92a.07.07,0,0,1,0,.14Z" style="fill:#dbdbdb"></path><path d="M343.84,244.3l-.62.85s0,0-.05,0h0s0,0-.05,0l-.62-.85v1.58a.07.07,0,0,1-.06.07.07.07,0,0,1-.07-.07V244.1a.08.08,0,0,1,0,0h0a.07.07,0,0,1,.09,0l.69.95.68-.95a.07.07,0,0,1,.09,0l0,0a0,0,0,0,1,0,0v1.78a.07.07,0,0,1-.06.07.07.07,0,0,1-.07-.07Z" style="fill:#dbdbdb"></path><path d="M345.54,245.45h-.87l-.17.45a.08.08,0,0,1-.07,0h0a.07.07,0,0,1,0-.08l.67-1.79a.08.08,0,0,1,.06,0,.07.07,0,0,1,.07,0l.67,1.79a.06.06,0,0,1,0,.08h0a.06.06,0,0,1-.06,0Zm-.82-.13h.78l-.39-1Z" style="fill:#dbdbdb"></path><path d="M346.59,245l-.65-.88a.07.07,0,0,1,0-.09.07.07,0,0,1,.1,0l.6.83.6-.83a.07.07,0,0,1,.1,0,.06.06,0,0,1,0,.09l-.64.88v.86a.07.07,0,0,1-.07.07.07.07,0,0,1-.06-.07Z" style="fill:#dbdbdb"></path><path d="M365.88,245.41s.08,0,.08,0a.52.52,0,0,0,1-.15v-1.21A.07.07,0,0,1,367,244a.07.07,0,0,1,.07.07v1.21a.65.65,0,0,1-1.27.2A.08.08,0,0,1,365.88,245.41Z" style="fill:#dbdbdb"></path><path d="M367.63,244.09a.07.07,0,0,1,.06-.07.07.07,0,0,1,.07.07v1.08a.65.65,0,0,0,1.29,0v-1.08a.07.07,0,0,1,.06-.07.07.07,0,0,1,.07.07v1.08a.78.78,0,1,1-1.55,0Z" style="fill:#dbdbdb"></path><path d="M370,244.31v1.57a.07.07,0,0,1-.14,0v-1.76a.08.08,0,0,1,0-.08.07.07,0,0,1,.09,0l1.17,1.62v-1.57a.07.07,0,0,1,.06-.07.07.07,0,0,1,.07.07v1.77a.07.07,0,0,1-.07.07.05.05,0,0,1-.05,0h0Z" style="fill:#dbdbdb"></path><path d="M371.75,244.09a.07.07,0,0,1,.07-.07h1a.07.07,0,0,1,0,.14h-.92v.76h.8a.07.07,0,0,1,.07.07.07.07,0,0,1-.07.06h-.8v.76h.92a.07.07,0,0,1,0,.14h-1a.07.07,0,0,1-.06-.07Z" style="fill:#dbdbdb"></path><path d="M390.93,245.41a.08.08,0,0,1,.09,0,.5.5,0,0,0,.49.36.51.51,0,0,0,.52-.51v-1.21a.07.07,0,0,1,.07-.07.07.07,0,0,1,.06.07v1.21a.65.65,0,0,1-1.27.2A.08.08,0,0,1,390.93,245.41Z" style="fill:#dbdbdb"></path><path d="M392.68,244.09a.07.07,0,1,1,.14,0v1.08a.64.64,0,0,0,.64.64.64.64,0,0,0,.64-.64v-1.08a.07.07,0,0,1,.14,0v1.08a.78.78,0,0,1-1.56,0Z" style="fill:#dbdbdb"></path><path d="M394.86,246h0a.07.07,0,0,1-.07-.07v-1.79a.07.07,0,0,1,.14,0v1.72h.92a.07.07,0,1,1,0,.14Z" style="fill:#dbdbdb"></path><path d="M396.5,245l-.65-.88a.07.07,0,0,1,0-.09.06.06,0,0,1,.09,0l.6.83.61-.83a.06.06,0,1,1,.1.08l-.64.88v.86a.07.07,0,0,1-.07.07.07.07,0,0,1-.06-.07Z" style="fill:#dbdbdb"></path><path d="M414.06,245.45h-.87l-.18.45a.06.06,0,0,1-.06,0h0a.05.05,0,0,1,0-.08l.67-1.79a.07.07,0,0,1,.06,0,.08.08,0,0,1,.07,0l.67,1.79a.07.07,0,0,1,0,.08h0a.07.07,0,0,1-.06,0Zm-.83-.13H414l-.39-1Z" style="fill:#dbdbdb"></path><path d="M414.71,244.09a.07.07,0,0,1,.14,0v1.08a.65.65,0,0,0,1.29,0v-1.08a.07.07,0,0,1,.06-.07.07.07,0,0,1,.07.07v1.08a.78.78,0,1,1-1.56,0Z" style="fill:#dbdbdb"></path><path d="M417.84,245.08a.07.07,0,0,1-.07-.06.07.07,0,0,1,.07-.07h.6s.06,0,.06.07v.66h0s0,0,0,.05a1,1,0,0,1-1.62-.77,1,1,0,0,1,1-1,1,1,0,0,1,.62.21.07.07,0,0,1,0,.1.07.07,0,0,1-.09,0A.87.87,0,0,0,417,245a.85.85,0,0,0,.87.84.91.91,0,0,0,.51-.16v-.57Z" style="fill:#dbdbdb"></path><path d="M419.18,244.09a.07.07,0,0,1,.06-.07.07.07,0,0,1,.07.07v1.08a.65.65,0,0,0,1.29,0v-1.08a.07.07,0,0,1,.06-.07.07.07,0,0,1,.07.07v1.08a.78.78,0,1,1-1.55,0Z" style="fill:#dbdbdb"></path><path d="M421.32,245.59a.05.05,0,0,1,.08,0,1.16,1.16,0,0,0,.64.25.7.7,0,0,0,.42-.13.35.35,0,0,0,.16-.29.3.3,0,0,0-.15-.26A1.38,1.38,0,0,0,422,245h0a1.19,1.19,0,0,1-.46-.16.4.4,0,0,1-.19-.33.45.45,0,0,1,.2-.36A.76.76,0,0,1,422,244a1,1,0,0,1,.59.22.06.06,0,0,1-.06.1,1,1,0,0,0-.53-.2.67.67,0,0,0-.39.11.33.33,0,0,0-.15.27.27.27,0,0,0,.14.23,1.22,1.22,0,0,0,.41.15h0a1.35,1.35,0,0,1,.49.17.44.44,0,0,1,.21.36.48.48,0,0,1-.22.39.86.86,0,0,1-.49.15,1.15,1.15,0,0,1-.71-.28A.05.05,0,0,1,421.32,245.59Z" style="fill:#dbdbdb"></path><path d="M423.69,244.16h-.58a.07.07,0,0,1,0-.14h1.29a.07.07,0,1,1,0,.14h-.58v1.72a.07.07,0,0,1-.06.07.07.07,0,0,1-.07-.07Z" style="fill:#dbdbdb"></path><path d="M435.66,245.59a.05.05,0,0,1,.08,0,1.16,1.16,0,0,0,.64.25.72.72,0,0,0,.42-.13.35.35,0,0,0,.16-.29.3.3,0,0,0-.15-.26,1.38,1.38,0,0,0-.45-.16h0a1.19,1.19,0,0,1-.46-.16.4.4,0,0,1-.19-.33.45.45,0,0,1,.2-.36.76.76,0,0,1,.46-.14,1,1,0,0,1,.59.22.05.05,0,0,1,0,.08.06.06,0,0,1-.08,0,1,1,0,0,0-.53-.2.65.65,0,0,0-.39.11.33.33,0,0,0-.15.27.27.27,0,0,0,.14.23,1.22,1.22,0,0,0,.41.15h0a1.35,1.35,0,0,1,.49.17.44.44,0,0,1,.21.36.48.48,0,0,1-.22.39.86.86,0,0,1-.49.15,1.15,1.15,0,0,1-.71-.28A.05.05,0,0,1,435.66,245.59Z" style="fill:#dbdbdb"></path><path d="M437.58,244.09a.07.07,0,0,1,.06-.07h1a.07.07,0,0,1,0,.14h-.92v.76h.81a.07.07,0,0,1,.06.07.06.06,0,0,1-.06.06h-.81v.76h.92a.07.07,0,0,1,0,.14h-1a.07.07,0,0,1-.06-.07Z" style="fill:#dbdbdb"></path><path d="M439.2,244.09a.07.07,0,0,1,.07-.07h.54a.55.55,0,0,1,.55.55.55.55,0,0,1-.55.55h-.47v.75a.07.07,0,0,1-.14,0Zm.61.9a.42.42,0,1,0,0-.83h-.47V245Z" style="fill:#dbdbdb"></path><path d="M441.3,244.16h-.58a.07.07,0,0,1,0-.14H442a.07.07,0,0,1,0,.14h-.58v1.72a.07.07,0,0,1-.07.07.07.07,0,0,1-.06-.07Z" style="fill:#dbdbdb"></path><path d="M442.58,244.09a.07.07,0,0,1,.06-.07h1a.07.07,0,0,1,0,.14h-.92v.76h.81a.07.07,0,0,1,.06.07.06.06,0,0,1-.06.06h-.81v.76h.92a.07.07,0,0,1,0,.14h-1a.07.07,0,0,1-.06-.07Z" style="fill:#dbdbdb"></path><path d="M445.69,244.3l-.62.85s0,0-.05,0h0a.06.06,0,0,1-.06,0l-.61-.85v1.58a.07.07,0,0,1-.14,0V244.1a.05.05,0,0,1,0,0h0a.07.07,0,0,1,.09,0l.68.95.68-.95a.08.08,0,0,1,.1,0l0,0s0,0,0,0v1.78a.07.07,0,0,1-.07.07s-.06,0-.06-.07Z" style="fill:#dbdbdb"></path><path d="M446.52,244.09a.07.07,0,0,1,.06-.07H447a.49.49,0,0,1,.48.49.51.51,0,0,1-.18.37.55.55,0,0,1-.18,1.07h-.55s-.06,0-.06-.07Zm.49.76a.34.34,0,0,0,.34-.34.34.34,0,0,0-.34-.35h-.36v.69Zm.12,1a.42.42,0,0,0,.42-.41.43.43,0,0,0-.42-.42h-.48v.83Z" style="fill:#dbdbdb"></path><path d="M448.14,244.09a.08.08,0,0,1,.07-.07h1a.07.07,0,0,1,0,.14h-.92v.76h.8a.07.07,0,0,1,.07.07.07.07,0,0,1-.07.06h-.8v.76h.92a.07.07,0,1,1,0,.14h-1s-.07,0-.07-.07Z" style="fill:#dbdbdb"></path><path d="M450.78,245.51a.36.36,0,0,0-.15-.29.52.52,0,0,0-.23-.09h-.48v.76a.07.07,0,0,1-.07.07.07.07,0,0,1-.06-.07v-1.79a.07.07,0,0,1,.06-.07h.55a.55.55,0,0,1,.23,1l0,0a.49.49,0,0,1,.25.42.9.9,0,0,0,0,.23s0,0,0,0a.08.08,0,0,1,.07.05.07.07,0,0,1,0,.08h0a.16.16,0,0,1-.13-.09A.72.72,0,0,1,450.78,245.51Zm-.38-1.35h-.48V245h.49a.42.42,0,0,0,.4-.42A.41.41,0,0,0,450.4,244.16Z" style="fill:#dbdbdb"></path><path d="M462.51,244a1,1,0,1,1-.92,1A1,1,0,0,1,462.51,244Zm0,1.81a.84.84,0,1,0-.79-.84A.82.82,0,0,0,462.51,245.81Z" style="fill:#dbdbdb"></path><path d="M464.83,244a1,1,0,0,1,.63.21.06.06,0,0,1,0,.09.07.07,0,0,1-.1,0,.84.84,0,1,0,0,1.31.06.06,0,0,1,.09,0,.07.07,0,0,1,0,.1,1,1,0,0,1-.63.21,1,1,0,1,1,0-1.95Z" style="fill:#dbdbdb"></path><path d="M466.53,244.16H466a.07.07,0,0,1,0-.14h1.29a.07.07,0,0,1,0,.14h-.58v1.72a.07.07,0,0,1-.06.07.07.07,0,0,1-.07-.07Z" style="fill:#dbdbdb"></path><path d="M468.5,244a1,1,0,0,1,0,1.95,1,1,0,0,1,0-1.95Zm0,1.81a.84.84,0,1,0-.79-.84A.82.82,0,0,0,468.5,245.81Z" style="fill:#dbdbdb"></path><path d="M469.89,244.09A.07.07,0,0,1,470,244h.43a.49.49,0,0,1,.48.49.48.48,0,0,1-.19.37.55.55,0,0,1-.17,1.07H470a.07.07,0,0,1-.07-.07Zm.5.76a.34.34,0,0,0,.34-.34.34.34,0,0,0-.34-.35H470v.69Zm.12,1a.41.41,0,0,0,.41-.41.41.41,0,0,0-.41-.42H470v.83Z" style="fill:#dbdbdb"></path><path d="M471.52,244.09a.07.07,0,0,1,.07-.07h1s.06,0,.06.07,0,.07-.06.07h-.92v.76h.8a.07.07,0,0,1,.07.07.07.07,0,0,1-.07.06h-.8v.76h.92s.06,0,.06.07,0,.07-.06.07h-1a.07.07,0,0,1-.06-.07Z" style="fill:#dbdbdb"></path><path d="M474.16,245.51a.35.35,0,0,0-.16-.29.46.46,0,0,0-.22-.09h-.48v.76a.07.07,0,0,1-.07.07.07.07,0,0,1-.06-.07v-1.79a.07.07,0,0,1,.06-.07h.54a.55.55,0,0,1,.55.55.56.56,0,0,1-.31.5s0,0,0,0a.47.47,0,0,1,.26.42.6.6,0,0,0,0,.23.11.11,0,0,0,0,0,.09.09,0,0,1,.08.05.07.07,0,0,1-.05.08h0a.16.16,0,0,1-.13-.09A.72.72,0,0,1,474.16,245.51Zm-.39-1.35h-.47V245h.49a.42.42,0,0,0,.4-.42A.41.41,0,0,0,473.77,244.16Z" style="fill:#dbdbdb"></path><path d="M485.52,244.31v1.57a.07.07,0,0,1-.07.07.07.07,0,0,1-.06-.07v-1.76a.07.07,0,0,1,.12-.06l1.16,1.62v-1.57a.07.07,0,0,1,.07-.07.07.07,0,0,1,.06.07v1.77a.07.07,0,0,1-.06.07.07.07,0,0,1-.06,0h0Z" style="fill:#dbdbdb"></path><path d="M488.2,244a1,1,0,0,1,0,1.95,1,1,0,0,1,0-1.95Zm0,1.81a.84.84,0,1,0-.79-.84A.81.81,0,0,0,488.2,245.81Z" style="fill:#dbdbdb"></path><path d="M490.21,245.91h0l-.74-1.77a.07.07,0,0,1,0-.09.06.06,0,0,1,.09,0l.69,1.64.69-1.64a.06.06,0,0,1,.08,0,.07.07,0,0,1,0,.09l-.75,1.76a.05.05,0,0,1,0,.05h-.06A0,0,0,0,1,490.21,245.91Z" style="fill:#dbdbdb"></path><path d="M491.55,244.09a.07.07,0,0,1,.07-.07h1a.07.07,0,0,1,0,.14h-.92v.76h.8a.07.07,0,0,1,.07.07.07.07,0,0,1-.07.06h-.8v.76h.92a.07.07,0,0,1,0,.14h-1a.07.07,0,0,1-.06-.07Z" style="fill:#dbdbdb"></path><path d="M494.66,244.3l-.62.85s0,0-.05,0h0s0,0-.05,0l-.62-.85v1.58a.07.07,0,0,1-.06.07.07.07,0,0,1-.07-.07V244.1a.08.08,0,0,1,0,0h0a.07.07,0,0,1,.09,0l.69.95.68-.95a.07.07,0,0,1,.09,0l0,0a0,0,0,0,1,0,0v1.78a.07.07,0,0,1-.06.07.07.07,0,0,1-.07-.07Z" style="fill:#dbdbdb"></path><path d="M495.49,244.09a.07.07,0,0,1,.07-.07H496a.48.48,0,0,1,.47.49.47.47,0,0,1-.18.37.55.55,0,0,1-.17,1.07h-.56a.07.07,0,0,1-.06-.07Zm.5.76a.35.35,0,0,0,.34-.34.35.35,0,0,0-.34-.35h-.36v.69Zm.12,1a.41.41,0,0,0,.41-.41.42.42,0,0,0-.41-.42h-.48v.83Z" style="fill:#dbdbdb"></path><path d="M497.12,244.09a.07.07,0,0,1,.07-.07h1a.07.07,0,0,1,0,.14h-.92v.76h.81s.06,0,.06.07a.06.06,0,0,1-.06.06h-.81v.76h.92a.07.07,0,1,1,0,.14h-1a.07.07,0,0,1-.06-.07Z" style="fill:#dbdbdb"></path><path d="M499.76,245.51a.37.37,0,0,0-.16-.29.55.55,0,0,0-.22-.09h-.48v.76a.07.07,0,0,1-.14,0v-1.79a.09.09,0,0,1,.06-.07h.55a.55.55,0,0,1,.23,1l0,0a.47.47,0,0,1,.26.42,1.06,1.06,0,0,0,0,.23.07.07,0,0,0,0,0,.08.08,0,0,1,.07.05.06.06,0,0,1,0,.08h0a.16.16,0,0,1-.12-.09A.72.72,0,0,1,499.76,245.51Zm-.39-1.35h-.47V245h.48a.42.42,0,0,0,.41-.42A.41.41,0,0,0,499.37,244.16Z" style="fill:#dbdbdb"></path><path d="M510.4,246h0a.07.07,0,0,1-.06-.07v-1.79a.07.07,0,0,1,.07-.07h.35a1,1,0,1,1,0,1.93Zm.35-.14a.83.83,0,1,0,0-1.65h-.29v1.65Z" style="fill:#dbdbdb"></path><path d="M512.16,244.09a.07.07,0,0,1,.07-.07h1s.06,0,.06.07,0,.07-.06.07h-.92v.76h.8a.07.07,0,0,1,.07.07.07.07,0,0,1-.07.06h-.8v.76h.92s.06,0,.06.07,0,.07-.06.07h-1a.07.07,0,0,1-.06-.07Z" style="fill:#dbdbdb"></path><path d="M514.7,244a1,1,0,0,1,.63.21.08.08,0,0,1,0,.09.07.07,0,0,1-.1,0,.84.84,0,1,0,0,1.31.06.06,0,0,1,.09,0,.08.08,0,0,1,0,.1,1,1,0,0,1-.63.21,1,1,0,1,1,0-1.95Z" style="fill:#dbdbdb"></path><path d="M515.9,244.09A.07.07,0,0,1,516,244h1s.06,0,.06.07,0,.07-.06.07H516v.76h.8a.07.07,0,0,1,.07.07.07.07,0,0,1-.07.06H516v.76H517s.06,0,.06.07,0,.07-.06.07h-1a.07.07,0,0,1-.06-.07Z" style="fill:#dbdbdb"></path><path d="M519,244.3l-.61.85a.06.06,0,0,1-.06,0h0s-.05,0-.06,0l-.62-.85v1.58a.07.07,0,0,1-.06.07.07.07,0,0,1-.07-.07V244.1a.05.05,0,0,1,0,0h0a.08.08,0,0,1,.1,0l.68.95.68-.95a.07.07,0,0,1,.09,0l0,0a0,0,0,0,1,0,0v1.78a.07.07,0,0,1-.06.07.07.07,0,0,1-.07-.07Z" style="fill:#dbdbdb"></path><path d="M519.84,244.09a.07.07,0,0,1,.07-.07h.43a.49.49,0,0,1,.48.49.48.48,0,0,1-.19.37.55.55,0,0,1-.17,1.07h-.55a.07.07,0,0,1-.07-.07Zm.5.76a.34.34,0,0,0,.34-.34.34.34,0,0,0-.34-.35H520v.69Zm.12,1a.41.41,0,0,0,.41-.41.41.41,0,0,0-.41-.42H520v.83Z" style="fill:#dbdbdb"></path><path d="M521.47,244.09a.07.07,0,0,1,.07-.07h1a.07.07,0,0,1,0,.14h-.92v.76h.8a.07.07,0,0,1,.07.07.07.07,0,0,1-.07.06h-.8v.76h.92a.07.07,0,0,1,0,.14h-1a.07.07,0,0,1-.06-.07Z" style="fill:#dbdbdb"></path><path d="M524.11,245.51a.35.35,0,0,0-.16-.29.46.46,0,0,0-.22-.09h-.48v.76a.07.07,0,0,1-.14,0v-1.79a.09.09,0,0,1,.06-.07h.55a.55.55,0,0,1,.23,1l0,0a.47.47,0,0,1,.26.42.6.6,0,0,0,0,.23.11.11,0,0,0,0,0,.09.09,0,0,1,.08.05.07.07,0,0,1,0,.08h0a.16.16,0,0,1-.12-.09A.72.72,0,0,1,524.11,245.51Zm-.39-1.35h-.47V245h.48a.42.42,0,0,0,.41-.42A.41.41,0,0,0,523.72,244.16Z" style="fill:#dbdbdb"></path><path d="M226.83,154.73h-3.5l-.68,1.81a.27.27,0,0,1-.25.18l-.1,0a.27.27,0,0,1-.15-.35l2.66-7.11a.3.3,0,0,1,.26-.16.26.26,0,0,1,.27.16l2.66,7.11a.26.26,0,0,1-.14.35l-.1,0a.28.28,0,0,1-.25-.18Zm-3.3-.53h3.1l-1.54-4.13Z" style="fill:#dbdbdb"></path><path d="M230.27,150.17v6.28a.26.26,0,1,1-.52,0v-7a.28.28,0,0,1,.1-.3.26.26,0,0,1,.37.07l4.65,6.44v-6.25a.27.27,0,0,1,.53,0v7.07a.27.27,0,0,1-.27.27.28.28,0,0,1-.21-.1.11.11,0,0,1,0-.05Z" style="fill:#dbdbdb"></path><path d="M238.37,150.17v6.28a.27.27,0,1,1-.53,0v-7a.28.28,0,0,1,.1-.3.26.26,0,0,1,.37.07l4.65,6.44v-6.25a.26.26,0,0,1,.26-.26.27.27,0,0,1,.28.26v7.07a.27.27,0,0,1-.28.27.26.26,0,0,1-.2-.1s0,0-.05-.05Z" style="fill:#dbdbdb"></path><path d="M245.73,149.31A.27.27,0,0,1,246,149a.28.28,0,0,1,.28.27v4.3a2.57,2.57,0,1,0,5.13,0v-4.3a.27.27,0,1,1,.53,0v4.3a3.1,3.1,0,1,1-6.2,0Z" style="fill:#dbdbdb"></path><path d="M258.29,154.73H254.8l-.68,1.81a.28.28,0,0,1-.25.18l-.1,0a.28.28,0,0,1-.16-.35l2.67-7.11a.28.28,0,0,1,.26-.16.26.26,0,0,1,.26.16l2.67,7.11a.27.27,0,0,1-.15.35l-.09,0a.3.3,0,0,1-.26-.18ZM255,154.2h3.1l-1.55-4.13Z" style="fill:#dbdbdb"></path><path d="M261.47,156.72h0a.27.27,0,0,1-.26-.27v-7.14a.27.27,0,0,1,.26-.27.27.27,0,0,1,.28.27v6.87h3.67a.27.27,0,0,1,0,.54Z" style="fill:#dbdbdb"></path><path d="M270.3,155.28a.23.23,0,0,1,.34,0,4.17,4.17,0,0,0,2.52,1,2.84,2.84,0,0,0,1.68-.5,1.41,1.41,0,0,0,.66-1.14,1.22,1.22,0,0,0-.62-1.05,5.09,5.09,0,0,0-1.78-.63h0a5,5,0,0,1-1.81-.64,1.6,1.6,0,0,1-.79-1.34,1.8,1.8,0,0,1,.8-1.44,3.15,3.15,0,0,1,1.85-.56,4.27,4.27,0,0,1,2.37.89.25.25,0,0,1,.07.34.24.24,0,0,1-.33.07,3.76,3.76,0,0,0-2.11-.81,2.67,2.67,0,0,0-1.56.46,1.31,1.31,0,0,0-.61,1.05,1.12,1.12,0,0,0,.57.93,4.58,4.58,0,0,0,1.65.58h0a5.15,5.15,0,0,1,1.95.7,1.73,1.73,0,0,1,.85,1.45,1.94,1.94,0,0,1-.87,1.53,3.34,3.34,0,0,1-2,.61,4.78,4.78,0,0,1-2.83-1.11A.25.25,0,0,1,270.3,155.28Z" style="fill:#dbdbdb"></path><path d="M279.78,149.58h-2.31a.27.27,0,1,1,0-.54h5.15a.27.27,0,0,1,0,.54h-2.31v6.87a.27.27,0,1,1-.53,0Z" style="fill:#dbdbdb"></path><path d="M288.06,154.73h-3.5l-.68,1.81a.27.27,0,0,1-.25.18l-.1,0a.27.27,0,0,1-.15-.35l2.66-7.11a.3.3,0,0,1,.27-.16.26.26,0,0,1,.26.16l2.66,7.11a.26.26,0,0,1-.14.35l-.1,0a.28.28,0,0,1-.25-.18Zm-3.3-.53h3.1l-1.54-4.13Z" style="fill:#dbdbdb"></path><path d="M291.83,149.58h-2.31a.27.27,0,0,1,0-.54h5.15a.27.27,0,1,1,0,.54h-2.31v6.87a.27.27,0,1,1-.53,0Z" style="fill:#dbdbdb"></path><path d="M296.44,155.28a.23.23,0,0,1,.34,0,4.2,4.2,0,0,0,2.52,1,2.87,2.87,0,0,0,1.69-.5,1.41,1.41,0,0,0,.66-1.14,1.21,1.21,0,0,0-.63-1.05,5,5,0,0,0-1.77-.63h0a4.88,4.88,0,0,1-1.81-.64,1.6,1.6,0,0,1-.79-1.34,1.8,1.8,0,0,1,.8-1.44,3.15,3.15,0,0,1,1.85-.56,4.27,4.27,0,0,1,2.37.89.24.24,0,0,1,.06.34.24.24,0,0,1-.33.07,3.76,3.76,0,0,0-2.1-.81,2.73,2.73,0,0,0-1.57.46,1.32,1.32,0,0,0-.6,1.05,1.12,1.12,0,0,0,.57.93,4.46,4.46,0,0,0,1.64.58h0a5.28,5.28,0,0,1,1.95.7,1.74,1.74,0,0,1,.84,1.45,1.93,1.93,0,0,1-.86,1.53,3.35,3.35,0,0,1-2,.61,4.84,4.84,0,0,1-2.83-1.11A.26.26,0,0,1,296.44,155.28Z" style="fill:#dbdbdb"></path><rect x="221.49" y="252.93" width="47.25" height="22.27" style="fill:#008DB9"></rect><rect x="221.49" y="252.93" width="22.65" height="22.27" style="fill:#ebebeb"></rect><path d="M240.84,264.07a8,8,0,1,1-1.06-4A8,8,0,0,1,240.84,264.07Z" style="fill:#263238"></path><path d="M239.78,260.08l-7,4v-8A8,8,0,0,1,239.78,260.08Z" style="fill:#008DB9"></path><path d="M238.36,264.07a5.55,5.55,0,1,1-5.54-5.55A5.54,5.54,0,0,1,238.36,264.07Z" style="fill:#fff"></path><path d="M230.86,263.39l-.27.16h0a.06.06,0,0,1-.06,0s0-.08,0-.09l.37-.23a.08.08,0,0,1,.1,0s0,0,0,.05v1.76s0,.07-.06.07a.07.07,0,0,1-.07-.07Z" style="fill:#263238"></path><path d="M231.51,264.93a.07.07,0,0,1,.1-.1.51.51,0,0,0,.87-.36.55.55,0,0,0-.14-.37A.53.53,0,0,0,232,264a.51.51,0,0,0-.36.15.07.07,0,0,1-.1,0l0,0h0v0l.1-.77a.08.08,0,0,1,0-.05l0,0h.89a.07.07,0,1,1,0,.14h-.84l-.06.57a.69.69,0,0,1,.32-.08.65.65,0,0,1,.46.18.66.66,0,0,1,0,.93.68.68,0,0,1-.46.19A.66.66,0,0,1,231.51,264.93Z" style="fill:#263238"></path><path d="M233.13,263.67h0a.42.42,0,1,1,.84,0h0a.46.46,0,0,1-.42.5A.45.45,0,0,1,233.13,263.67Zm.7,0h0a.33.33,0,0,0-.28-.37c-.17,0-.28.17-.28.37h0c0,.22.13.38.28.38S233.83,263.88,233.83,263.67Zm-.44,1.37,1.34-1.83a.05.05,0,0,1,.05,0,.06.06,0,0,1,.06.06v0l-1.34,1.82s0,0-.05,0a.06.06,0,0,1-.06-.06A0,0,0,0,1,233.39,265Zm.85-.39h0a.43.43,0,1,1,.85,0h0a.43.43,0,1,1-.85,0Zm.7,0h0c0-.22-.12-.38-.28-.38s-.28.17-.28.37h0a.33.33,0,0,0,.29.37C234.83,265,234.94,264.86,234.94,264.65Z" style="fill:#263238"></path><rect x="237.94" y="258.25" width="9.02" height="0.46" style="fill:#fff"></rect><path d="M247.91,258.48a1,1,0,1,1-1-1A1,1,0,0,1,247.91,258.48Z" style="fill:#fff"></path><path d="M252.93,257.64a2.41,2.41,0,0,1,.16,1.49,3.29,3.29,0,0,1-.68,1.49,1.73,1.73,0,0,1-1.28.69,1.12,1.12,0,0,1-1-.69,2.42,2.42,0,0,1-.16-1.49,3.15,3.15,0,0,1,.68-1.49,1.76,1.76,0,0,1,1.28-.7A1.14,1.14,0,0,1,252.93,257.64Zm-.53,1.49a1.78,1.78,0,0,0-.11-1.11.56.56,0,0,0-.51-.38.87.87,0,0,0-.66.38,2.47,2.47,0,0,0-.49,1.11,1.82,1.82,0,0,0,.11,1.1.59.59,0,0,0,.51.39.92.92,0,0,0,.65-.39A2.34,2.34,0,0,0,252.4,259.13Z" style="fill:#fff"></path><path d="M255.61,257.27v0L255,261a.43.43,0,0,1-.41.34.28.28,0,0,1-.28-.34l.54-3.08-.27.15a.41.41,0,0,1-.19,0,.28.28,0,0,1-.27-.17.4.4,0,0,1,.21-.47l.85-.46h.29l0,0h0l0,0,0,0,0,0a0,0,0,0,0,0,0l0,0h0v.16Z" style="fill:#fff"></path><rect x="249.43" y="263.22" width="13.88" height="0.71" style="fill:#fff"></rect><rect x="249.43" y="264.98" width="11.6" height="0.71" style="fill:#fff"></rect><rect x="249.43" y="266.74" width="16.26" height="0.71" style="fill:#fff"></rect><rect x="249.43" y="268.51" width="6.94" height="0.71" style="fill:#fff"></rect><rect x="249.43" y="270.27" width="13.88" height="0.71" style="fill:#fff"></rect><rect x="279.37" y="252.93" width="47.25" height="22.27" style="fill:#008DB9"></rect><rect x="279.37" y="252.93" width="22.65" height="22.27" style="fill:#ebebeb"></rect><path d="M298.71,264.07a7.59,7.59,0,0,1-.09,1.17,8,8,0,1,1-1-5.16A7.93,7.93,0,0,1,298.71,264.07Z" style="fill:#263238"></path><path d="M298.71,264.07a7.59,7.59,0,0,1-.09,1.17l-7.93-1.17v-8a8,8,0,0,1,7,4A7.93,7.93,0,0,1,298.71,264.07Z" style="fill:#008DB9"></path><path d="M296.24,264.07a5.55,5.55,0,1,1-5.55-5.55A5.54,5.54,0,0,1,296.24,264.07Z" style="fill:#fff"></path><path d="M288.07,265l.9-.81a.5.5,0,0,0,.17-.37.51.51,0,0,0-.13-.33.49.49,0,0,0-.37-.16.46.46,0,0,0-.33.13l-.1.08a.06.06,0,0,1-.09,0,.08.08,0,0,1,0-.1l.1-.08a.63.63,0,0,1,.42-.17.6.6,0,0,1,.46.21.58.58,0,0,1,.17.42.64.64,0,0,1-.21.47l-.77.69h.91a.07.07,0,0,1,0,.14h-1.08l-.05,0A.09.09,0,0,1,288.07,265Z" style="fill:#263238"></path><path d="M289.74,264.93a.07.07,0,1,1,.1-.1.51.51,0,0,0,.87-.36.51.51,0,0,0-.15-.37.51.51,0,0,0-.72,0,.07.07,0,0,1-.1,0l0,0h0v0l.09-.77a.05.05,0,0,1,0-.05l0,0h.9a.07.07,0,1,1,0,.14h-.84l-.07.57a.76.76,0,0,1,.33-.08.67.67,0,0,1,.46.18.66.66,0,0,1,0,.93.7.7,0,0,1-.46.19A.66.66,0,0,1,289.74,264.93Z" style="fill:#263238"></path><path d="M291.35,263.67h0a.43.43,0,1,1,.85,0h0a.46.46,0,0,1-.43.5A.45.45,0,0,1,291.35,263.67Zm.71,0h0a.33.33,0,0,0-.29-.37c-.16,0-.27.17-.27.37h0c0,.22.13.38.28.38S292.06,263.88,292.06,263.67Zm-.45,1.37,1.34-1.83a.07.07,0,0,1,.06,0,.06.06,0,0,1,.06.06l0,0-1.33,1.82a.07.07,0,0,1-.06,0,.06.06,0,0,1-.06-.06Zm.86-.39h0a.43.43,0,1,1,.85,0h0a.46.46,0,0,1-.43.49A.45.45,0,0,1,292.47,264.65Zm.7,0h0c0-.22-.13-.38-.28-.38s-.28.17-.28.37h0a.33.33,0,0,0,.28.37C293.06,265,293.17,264.86,293.17,264.65Z" style="fill:#263238"></path><rect x="295.81" y="258.25" width="9.02" height="0.46" style="fill:#fff"></rect><path d="M305.79,258.48a1,1,0,1,1-1-1A1,1,0,0,1,305.79,258.48Z" style="fill:#fff"></path><path d="M310.81,257.64a2.49,2.49,0,0,1,.16,1.49,3.29,3.29,0,0,1-.68,1.49,1.74,1.74,0,0,1-1.28.69,1.14,1.14,0,0,1-1-.69,2.43,2.43,0,0,1-.15-1.49,3.15,3.15,0,0,1,.68-1.49,1.74,1.74,0,0,1,1.27-.7A1.14,1.14,0,0,1,310.81,257.64Zm-.53,1.49a1.93,1.93,0,0,0-.11-1.11.56.56,0,0,0-.51-.38.87.87,0,0,0-.66.38,2.37,2.37,0,0,0-.49,1.11,1.83,1.83,0,0,0,.1,1.1.6.6,0,0,0,.52.39.92.92,0,0,0,.65-.39A2.34,2.34,0,0,0,310.28,259.13Z" style="fill:#fff"></path><path d="M314.92,261a.44.44,0,0,1-.41.34h-2.22a.25.25,0,0,1-.23-.11.36.36,0,0,1,.1-.49l2.14-1.66a1,1,0,0,0,.37-.6.66.66,0,0,0-.66-.81.94.94,0,0,0-.58.21l-.23.17a.33.33,0,0,1-.48,0,.38.38,0,0,1,.11-.49l.22-.17a1.77,1.77,0,0,1,1.08-.39,1.26,1.26,0,0,1,1,.49,1.33,1.33,0,0,1,.21,1,1.86,1.86,0,0,1-.69,1.11l-1.36,1.06h1.32A.29.29,0,0,1,314.92,261Z" style="fill:#fff"></path><rect x="307.31" y="263.22" width="13.38" height="0.71" style="fill:#fff"></rect><rect x="307.31" y="264.98" width="7.68" height="0.71" style="fill:#fff"></rect><rect x="307.31" y="266.74" width="12.39" height="0.71" style="fill:#fff"></rect><rect x="307.31" y="268.51" width="16.26" height="0.71" style="fill:#fff"></rect><rect x="307.31" y="270.27" width="9.43" height="0.71" style="fill:#fff"></rect><rect x="337.25" y="252.93" width="47.25" height="22.27" style="fill:#008DB9"></rect><rect x="337.25" y="252.93" width="22.65" height="22.27" style="fill:#ebebeb"></rect><path d="M356.59,264.07a8,8,0,0,1-5.14,7.48,7.92,7.92,0,0,1-2.88.54,8,8,0,1,1,7-12A7.93,7.93,0,0,1,356.59,264.07Z" style="fill:#263238"></path><path d="M356.59,264.07a8,8,0,0,1-5.14,7.48l-2.88-7.48v-8a8,8,0,0,1,7,4A7.93,7.93,0,0,1,356.59,264.07Z" style="fill:#008DB9"></path><path d="M354.12,264.07a5.55,5.55,0,1,1-5.55-5.55A5.55,5.55,0,0,1,354.12,264.07Z" style="fill:#fff"></path><path d="M347,264.72h-1.09a.07.07,0,0,1,0-.1l1.11-1.38h0s.06,0,.09,0l0,0h0v1.32h.13a.07.07,0,0,1,.07.07.07.07,0,0,1-.07.06h-.13v.33a.07.07,0,0,1-.07.07.08.08,0,0,1-.07-.07Zm0-.13v-1.13l-.9,1.13Z" style="fill:#263238"></path><path d="M347.72,264.93a.07.07,0,0,1,0-.1.06.06,0,0,1,.09,0,.55.55,0,0,0,.37.15.51.51,0,0,0,.51-.51.51.51,0,0,0-.15-.37.51.51,0,0,0-.36-.15.55.55,0,0,0-.37.15.06.06,0,0,1-.09,0,0,0,0,0,1,0,0h0v0l.09-.77a.05.05,0,0,1,0-.05l0,0h.9a.07.07,0,0,1,0,.14h-.84l-.07.57a.73.73,0,0,1,.33-.08.67.67,0,0,1,.46.18.66.66,0,0,1,0,.93.7.7,0,0,1-.46.19A.66.66,0,0,1,347.72,264.93Z" style="fill:#263238"></path><path d="M349.33,263.67h0a.43.43,0,1,1,.85,0h0a.46.46,0,0,1-.43.5A.45.45,0,0,1,349.33,263.67Zm.71,0h0a.33.33,0,0,0-.29-.37c-.16,0-.27.17-.27.37h0c0,.22.12.38.28.38S350,263.88,350,263.67Zm-.45,1.37,1.34-1.83s0,0,.05,0a.06.06,0,0,1,.06.06.06.06,0,0,1,0,0l-1.33,1.82a.07.07,0,0,1-.06,0,.06.06,0,0,1-.06-.06Zm.86-.39h0a.45.45,0,0,1,.42-.49.44.44,0,0,1,.42.48h0a.43.43,0,1,1-.84,0Zm.7,0h0c0-.22-.13-.38-.28-.38s-.28.17-.28.37h0a.33.33,0,0,0,.28.37C351,265,351.15,264.86,351.15,264.65Z" style="fill:#263238"></path><rect x="353.69" y="258.25" width="9.02" height="0.46" style="fill:#fff"></rect><circle cx="362.71" cy="258.48" r="0.96" style="fill:#fff"></circle><path d="M368.69,257.64a2.42,2.42,0,0,1,.15,1.49,3.19,3.19,0,0,1-.68,1.49,1.72,1.72,0,0,1-1.27.69,1.13,1.13,0,0,1-1-.69,2.5,2.5,0,0,1-.16-1.49,3.25,3.25,0,0,1,.68-1.49,1.77,1.77,0,0,1,1.28-.7A1.15,1.15,0,0,1,368.69,257.64Zm-.53,1.49a1.93,1.93,0,0,0-.11-1.11c-.14-.27-.32-.39-.52-.38a.87.87,0,0,0-.65.38,2.37,2.37,0,0,0-.49,1.11,1.83,1.83,0,0,0,.1,1.1.59.59,0,0,0,.51.39.92.92,0,0,0,.66-.39A2.44,2.44,0,0,0,368.16,259.13Z" style="fill:#fff"></path><path d="M372.69,258.66a1.32,1.32,0,0,1,.26,1.09,1.92,1.92,0,0,1-.65,1.1,1.84,1.84,0,0,1-1.18.45,1.29,1.29,0,0,1-1-.45.37.37,0,0,1,.09-.5.35.35,0,0,1,.5,0,.69.69,0,0,0,.55.24,1,1,0,0,0,.64-.24,1.07,1.07,0,0,0,.35-.6.72.72,0,0,0-.14-.59.67.67,0,0,0-.55-.25.3.3,0,0,1-.24-.11h0a.36.36,0,0,1,.08-.5l.74-.65h-1a.28.28,0,0,1-.29-.35.43.43,0,0,1,.42-.35h1.83a.28.28,0,0,1,.29.35.36.36,0,0,1-.07.17.3.3,0,0,1-.08.08l-.93.81A1.3,1.3,0,0,1,372.69,258.66Z" style="fill:#fff"></path><rect x="365.19" y="263.22" width="12.78" height="0.71" style="fill:#fff"></rect><rect x="365.19" y="264.98" width="16.26" height="0.71" style="fill:#fff"></rect><rect x="365.19" y="266.74" width="9.77" height="0.71" style="fill:#fff"></rect><rect x="365.19" y="268.51" width="14.2" height="0.71" style="fill:#fff"></rect><rect x="365.19" y="270.27" width="5.74" height="0.71" style="fill:#fff"></rect><rect x="395.12" y="252.93" width="47.25" height="22.27" style="fill:#008DB9"></rect><rect x="395.12" y="252.93" width="22.65" height="22.27" style="fill:#ebebeb"></rect><path d="M414.47,264.07a8,8,0,1,1-1.06-4A8,8,0,0,1,414.47,264.07Z" style="fill:#263238"></path><path d="M414.47,264.07a8,8,0,0,1-13.23,6.09l5.21-6.09v-8a8,8,0,0,1,8,8Z" style="fill:#008DB9"></path><path d="M412,264.07a5.55,5.55,0,1,1-5.54-5.55A5.54,5.54,0,0,1,412,264.07Z" style="fill:#fff"></path><path d="M403.85,264.93a.09.09,0,0,1,0-.1.07.07,0,0,1,.1,0,.51.51,0,0,0,.36.15.51.51,0,0,0,.37-.15.51.51,0,0,0,.15-.36.51.51,0,0,0-.15-.37.51.51,0,0,0-.36-.15.51.51,0,0,0-.37.15.06.06,0,0,1-.09,0l0,0h0s0,0,0,0v0l.09-.77a.05.05,0,0,1,0-.05l0,0h.9a.07.07,0,1,1,0,.14h-.84l-.07.57a.73.73,0,0,1,.33-.08.67.67,0,0,1,.46.18.66.66,0,0,1,0,.93.66.66,0,0,1-.93,0Z" style="fill:#263238"></path><path d="M405.51,264.93a.07.07,0,0,1,.1-.1.51.51,0,0,0,.36.15.53.53,0,0,0,.37-.15.51.51,0,0,0,.15-.36.51.51,0,0,0-.15-.37A.51.51,0,0,0,406,264a.51.51,0,0,0-.37.15.07.07,0,0,1-.1,0v0h0s0,0,0,0v0l.09-.77a.05.05,0,0,1,0-.05l0,0h.9a.07.07,0,0,1,0,.14h-.84l-.07.57a.73.73,0,0,1,.33-.08.66.66,0,0,1,.46,1.11.66.66,0,0,1-.93,0Z" style="fill:#263238"></path><path d="M407.13,263.67h0a.43.43,0,1,1,.85,0h0a.46.46,0,0,1-.43.5A.45.45,0,0,1,407.13,263.67Zm.7,0h0a.33.33,0,0,0-.28-.37c-.16,0-.28.17-.28.37h0c0,.22.13.38.29.38S407.83,263.88,407.83,263.67Zm-.44,1.37,1.34-1.83a.05.05,0,0,1,0,0,.06.06,0,0,1,.06.06.06.06,0,0,1,0,0l-1.34,1.82a.05.05,0,0,1-.05,0,.06.06,0,0,1-.06-.06A0,0,0,0,1,407.39,265Zm.86-.39h0a.42.42,0,1,1,.84,0h0a.45.45,0,0,1-.42.49A.45.45,0,0,1,408.25,264.65Zm.7,0h0c0-.22-.13-.38-.28-.38s-.28.17-.28.37h0a.33.33,0,0,0,.28.37C408.83,265,409,264.86,409,264.65Z" style="fill:#263238"></path><rect x="411.57" y="258.25" width="9.02" height="0.46" style="fill:#fff"></rect><path d="M421.55,258.48a1,1,0,1,1-1-1A1,1,0,0,1,421.55,258.48Z" style="fill:#fff"></path><path d="M426.57,257.64a2.49,2.49,0,0,1,.15,1.49,3.19,3.19,0,0,1-.68,1.49,1.73,1.73,0,0,1-1.28.69,1.13,1.13,0,0,1-1-.69,2.42,2.42,0,0,1-.16-1.49,3.25,3.25,0,0,1,.68-1.49,1.76,1.76,0,0,1,1.28-.7A1.15,1.15,0,0,1,426.57,257.64Zm-.53,1.49a1.84,1.84,0,0,0-.12-1.11.56.56,0,0,0-.51-.38.87.87,0,0,0-.65.38,2.27,2.27,0,0,0-.49,1.11,1.75,1.75,0,0,0,.1,1.1.59.59,0,0,0,.51.39.92.92,0,0,0,.66-.39A2.55,2.55,0,0,0,426,259.13Z" style="fill:#fff"></path><path d="M431.23,260.16a.42.42,0,0,1-.4.34h-.06l-.08.47a.44.44,0,0,1-.41.34A.28.28,0,0,1,430,261l.09-.47h-2a.24.24,0,0,1-.2-.08.34.34,0,0,1,0-.48l2.81-2.86h0l0,0,0,0,0,0h0l0,0h.26l0,0,0,0h0v0l0,0s0,0,0,0a0,0,0,0,0,0,0v.06a0,0,0,0,1,0,0v0h0l-.44,2.52H431A.28.28,0,0,1,431.23,260.16Zm-1-.35.27-1.54L429,259.81Z" style="fill:#fff"></path><rect x="423.07" y="263.22" width="10.44" height="0.71" style="fill:#fff"></rect><rect x="423.07" y="264.98" width="16.26" height="0.71" style="fill:#fff"></rect><rect x="423.07" y="266.74" width="7.41" height="0.71" style="fill:#fff"></rect><rect x="423.07" y="268.51" width="13.28" height="0.71" style="fill:#fff"></rect><rect x="423.07" y="270.27" width="11.76" height="0.71" style="fill:#fff"></rect><rect x="227.97" y="295.33" width="8.04" height="40.88" style="fill:#008DB9"></rect><rect x="233.63" y="295.33" width="2.38" height="40.88" style="fill:#263238;opacity:0.1"></rect><rect x="241.8" y="302.13" width="8.04" height="34.09" style="fill:#008DB9"></rect><rect x="247.46" y="302.13" width="2.38" height="34.09" style="fill:#263238;opacity:0.1"></rect><rect x="255.63" y="314.52" width="8.04" height="21.69" style="fill:#008DB9"></rect><rect x="261.29" y="314.52" width="2.38" height="21.69" style="fill:#263238;opacity:0.1"></rect><rect x="269.45" y="319.06" width="8.04" height="17.16" style="fill:#008DB9"></rect><rect x="275.11" y="319.06" width="2.38" height="17.16" style="fill:#263238;opacity:0.1"></rect><rect x="283.28" y="307.23" width="8.04" height="28.99" style="fill:#008DB9"></rect><rect x="288.94" y="307.23" width="2.38" height="28.99" style="fill:#263238;opacity:0.1"></rect><rect x="297.11" y="294.54" width="8.04" height="41.67" style="fill:#008DB9"></rect><rect x="302.77" y="294.54" width="2.38" height="41.67" style="fill:#263238;opacity:0.1"></rect><rect x="310.97" y="290.21" width="8.04" height="46.01" style="fill:#008DB9"></rect><rect x="316.63" y="290.21" width="2.38" height="46.01" style="fill:#263238;opacity:0.1"></rect><rect x="324.84" y="287.07" width="8.04" height="49.15" style="fill:#008DB9"></rect><rect x="330.5" y="287.07" width="2.38" height="49.15" style="fill:#263238;opacity:0.1"></rect><path d="M223.31,286.8l.09,12.35,0,12.35.06,24.71-.2-.2c19.54-.06,39.08,0,58.62,0l29.31,0,29.31.12-29.31.12-29.31.05c-19.54,0-39.08.09-58.62,0h-.21v-.21l.07-24.71,0-12.35Z" style="fill:#ebebeb"></path><path d="M221.53,289.63a6.8,6.8,0,0,1,1.78-.23,6.33,6.33,0,0,1,1.77.23,6.33,6.33,0,0,1-1.77.23A6.4,6.4,0,0,1,221.53,289.63Z" style="fill:#ebebeb"></path><path d="M221.53,294.54a6.4,6.4,0,0,1,1.78-.23,6.33,6.33,0,0,1,1.77.23,6.33,6.33,0,0,1-1.77.23A6.4,6.4,0,0,1,221.53,294.54Z" style="fill:#ebebeb"></path><path d="M221.53,299.44a6.4,6.4,0,0,1,1.78-.23,6.33,6.33,0,0,1,1.77.23,6.33,6.33,0,0,1-1.77.23A6.4,6.4,0,0,1,221.53,299.44Z" style="fill:#ebebeb"></path><path d="M221.53,304.35a6.4,6.4,0,0,1,1.78-.23,6,6,0,0,1,1.77.23,6.32,6.32,0,0,1-1.77.22A6.78,6.78,0,0,1,221.53,304.35Z" style="fill:#ebebeb"></path><path d="M221.53,309.25a6.4,6.4,0,0,1,1.78-.23,6.33,6.33,0,0,1,1.77.23,6.33,6.33,0,0,1-1.77.23A6.4,6.4,0,0,1,221.53,309.25Z" style="fill:#ebebeb"></path><path d="M221.53,314.15a6.8,6.8,0,0,1,1.78-.23,6.33,6.33,0,0,1,1.77.23,6.33,6.33,0,0,1-1.77.23A6.4,6.4,0,0,1,221.53,314.15Z" style="fill:#ebebeb"></path><path d="M221.53,319.06a6.4,6.4,0,0,1,1.78-.23,6.33,6.33,0,0,1,1.77.23,6.33,6.33,0,0,1-1.77.23A6.8,6.8,0,0,1,221.53,319.06Z" style="fill:#ebebeb"></path><path d="M221.53,324a6.4,6.4,0,0,1,1.78-.23,6.33,6.33,0,0,1,1.77.23,6.33,6.33,0,0,1-1.77.23A6.4,6.4,0,0,1,221.53,324Z" style="fill:#ebebeb"></path><path d="M221.53,328.86a6.78,6.78,0,0,1,1.78-.22,6.32,6.32,0,0,1,1.77.22,6,6,0,0,1-1.77.23A6.4,6.4,0,0,1,221.53,328.86Z" style="fill:#ebebeb"></path><path d="M223.31,295.58a31.18,31.18,0,0,1,8-.07,26.14,26.14,0,0,1,7.7,2.06,19.75,19.75,0,0,1,3.47,2,26.19,26.19,0,0,1,3,2.64c1.9,1.86,3.72,3.81,5.55,5.73a60.3,60.3,0,0,0,5.76,5.44,22.62,22.62,0,0,0,6.83,3.81,29.74,29.74,0,0,0,7.73,1.44,34.35,34.35,0,0,0,3.93,0c.64-.06,1.28-.2,1.92-.31s1.27-.31,1.87-.56a31.53,31.53,0,0,0,7-3.63c2.19-1.46,4.29-3.09,6.35-4.76,4.11-3.35,8.08-6.9,12.27-10.18a75.9,75.9,0,0,1,13.37-8.7,35,35,0,0,1,15.4-3.71,35,35,0,0,0-15.25,4A74.56,74.56,0,0,0,305,299.63c-4.13,3.33-8.1,6.86-12.21,10.24-2.06,1.69-4.16,3.33-6.38,4.83a32.35,32.35,0,0,1-7.11,3.73c-.63.25-1.3.37-1.95.57a19.51,19.51,0,0,1-2,.31,33.85,33.85,0,0,1-4,0,30.33,30.33,0,0,1-7.89-1.5,23.05,23.05,0,0,1-7-3.94,55,55,0,0,1-5.77-5.54c-1.82-1.95-3.61-3.91-5.48-5.79a23.61,23.61,0,0,0-2.94-2.63,19.93,19.93,0,0,0-3.38-2A29.33,29.33,0,0,0,223.31,295.58Z" style="fill:#37474f"></path><path d="M226.86,295.51a1.78,1.78,0,1,1-1.78-1.77A1.78,1.78,0,0,1,226.86,295.51Z" style="fill:#fff"></path><path d="M225.08,297.52a2,2,0,1,1,2-2A2,2,0,0,1,225.08,297.52Zm0-3.55a1.55,1.55,0,1,0,1.55,1.54A1.55,1.55,0,0,0,225.08,294Z" style="fill:#37474f"></path><path d="M278.08,319.06a1.78,1.78,0,1,1-1.77-1.78A1.77,1.77,0,0,1,278.08,319.06Z" style="fill:#fff"></path><path d="M276.3,321.06a2,2,0,1,1,2-2A2,2,0,0,1,276.3,321.06Zm0-3.55a1.55,1.55,0,1,0,1.55,1.55A1.54,1.54,0,0,0,276.3,317.51Z" style="fill:#37474f"></path><path d="M334.66,286.8a1.78,1.78,0,1,1-1.78-1.78A1.78,1.78,0,0,1,334.66,286.8Z" style="fill:#fff"></path><path d="M332.88,288.8a2,2,0,1,1,2-2A2,2,0,0,1,332.88,288.8Zm0-3.55a1.55,1.55,0,1,0,1.55,1.55A1.54,1.54,0,0,0,332.88,285.25Z" style="fill:#37474f"></path><path d="M372,296.05h0a.26.26,0,0,1-.24-.26v-7.15a.26.26,0,0,1,.26-.26h1.44a3.84,3.84,0,0,1,0,7.67Zm1.42-.54a3.3,3.3,0,1,0,0-6.6h-1.16v6.6Z" style="fill:#dbdbdb"></path><path d="M383.05,294.06h-3.5l-.68,1.81a.27.27,0,0,1-.25.18h-.1a.28.28,0,0,1-.15-.35l2.66-7.12a.3.3,0,0,1,.27-.16.26.26,0,0,1,.26.16l2.66,7.12a.27.27,0,0,1-.14.35H384a.28.28,0,0,1-.25-.18Zm-3.3-.53h3.1l-1.54-4.12Z" style="fill:#dbdbdb"></path><path d="M387.22,292.36l-2.58-3.51a.3.3,0,0,1,.06-.38.26.26,0,0,1,.37,0l2.4,3.3,2.41-3.3a.26.26,0,0,1,.37,0,.26.26,0,0,1,.06.38l-2.57,3.49v3.45a.26.26,0,0,1-.26.26.26.26,0,0,1-.26-.26Z" style="fill:#dbdbdb"></path><path d="M375.64,309l-3.53,2.76h3.53a.27.27,0,0,1,0,.54h-4.31a.24.24,0,0,1-.22-.11.26.26,0,0,1,.05-.37l4.15-3.24a2.43,2.43,0,0,0,1-1.84,1.64,1.64,0,0,0-.29-.95,1.57,1.57,0,0,0-1.32-.62,2.42,2.42,0,0,0-1.45.51l-.42.35a.27.27,0,1,1-.34-.43l.43-.34a3,3,0,0,1,1.78-.63,2.08,2.08,0,0,1,2.15,2.11A3,3,0,0,1,375.64,309Z" style="fill:#263238"></path><path d="M380,304.9l-.77,4.38,5.45-4.64a.28.28,0,0,1,.37,0,.26.26,0,0,1,0,.38l-3.49,3,2.47,3.81a.28.28,0,0,1-.08.38.35.35,0,0,1-.14,0,.25.25,0,0,1-.23-.12l-2.43-3.76-2,1.73h0L378.7,312a.26.26,0,0,1-.27.22h0a.27.27,0,0,1-.22-.31l1.26-7.13a.26.26,0,0,1,.31-.22A.27.27,0,0,1,380,304.9Z" style="fill:#263238"></path><polygon points="370.7 327.58 370.37 326.98 374.63 324.63 378.3 325.77 385.13 320.9 392.63 325.21 401.93 318.64 402.33 319.2 392.67 326.02 385.17 321.71 378.42 326.52 374.7 325.38 370.7 327.58" style="fill:#008DB9"></polygon><polygon points="402.48 319.93 403.33 318.06 401.29 318.25 402.48 319.93" style="fill:#008DB9"></polygon><rect x="370.54" y="328.83" width="32.15" height="0.46" style="fill:#ebebeb"></rect><rect x="370.54" y="331.06" width="7.5" height="0.46" style="fill:#ebebeb"></rect><rect x="359.11" y="288.33" width="0.8" height="47.88" style="fill:#dbdbdb"></rect><path d="M429.62,288.57l2.74,6.53,1.95-4.62a.28.28,0,0,1,.25-.16.32.32,0,0,1,.28.16l1.94,4.62,2.74-6.53a.27.27,0,0,1,.36-.13.26.26,0,0,1,.13.35l-3,7.08a.32.32,0,0,1-.22.18h-.06a.2.2,0,0,1-.13-.05s0,0,0,0l-.05-.07a0,0,0,0,0,0,0l-1.95-4.63-2,4.63a.11.11,0,0,1,0,.06.13.13,0,0,1-.06.07h0a.21.21,0,0,1-.15.05.25.25,0,0,1-.17-.06l0,0h0a.26.26,0,0,1-.06-.13l-3-7a.26.26,0,0,1,.13-.35A.27.27,0,0,1,429.62,288.57Z" style="fill:#dbdbdb"></path><path d="M441.42,288.64a.26.26,0,0,1,.26-.26h3.95a.27.27,0,0,1,0,.53H442v3h3.21a.27.27,0,0,1,.26.27.27.27,0,0,1-.26.27H442v3h3.67a.26.26,0,0,1,.26.28.26.26,0,0,1-.26.26h-4a.26.26,0,0,1-.24-.26Z" style="fill:#dbdbdb"></path><path d="M447.92,288.64a.27.27,0,0,1,.27-.26h3.94a.27.27,0,1,1,0,.53h-3.67v3h3.21a.27.27,0,0,1,.26.27.27.27,0,0,1-.26.27h-3.21v3h3.67a.27.27,0,0,1,.27.28.26.26,0,0,1-.27.26h-4a.26.26,0,0,1-.24-.26Z" style="fill:#dbdbdb"></path><path d="M454.43,288.67a.27.27,0,1,1,.53,0v4.44l4.64-4.64a.29.29,0,0,1,.37,0,.27.27,0,0,1,0,.39L457,291.8l3,3.81a.28.28,0,0,1-.05.38.21.21,0,0,1-.17.06.22.22,0,0,1-.2-.1l-3-3.77L455,293.87v1.92a.27.27,0,0,1-.53,0Z" style="fill:#dbdbdb"></path><path d="M433.51,309,430,311.72h3.53a.28.28,0,0,1,.27.27.27.27,0,0,1-.27.27H429.2a.25.25,0,0,1-.22-.11.26.26,0,0,1,.06-.37l4.14-3.23a2.44,2.44,0,0,0,1-1.85,1.6,1.6,0,0,0-.3-.95,1.57,1.57,0,0,0-1.32-.62,2.39,2.39,0,0,0-1.44.51l-.43.35a.27.27,0,0,1-.38-.05.28.28,0,0,1,0-.38l.44-.34a2.93,2.93,0,0,1,1.77-.63,2.14,2.14,0,0,1,1.75.84,2.2,2.2,0,0,1,.4,1.27A2.94,2.94,0,0,1,433.51,309Z" style="fill:#263238"></path><path d="M441.24,305.08l-2.34,2a2.06,2.06,0,0,1,1.18.7,2.2,2.2,0,0,1,.44,1.84,3.09,3.09,0,0,1-1.09,1.85,3.13,3.13,0,0,1-2,.76h0a2.16,2.16,0,0,1-1.7-.76.28.28,0,0,1,.07-.39.27.27,0,0,1,.39,0,1.68,1.68,0,0,0,1.34.59,2.53,2.53,0,0,0,2.42-2,1.75,1.75,0,0,0-.34-1.44,1.69,1.69,0,0,0-1.35-.61.23.23,0,0,1-.2-.11h0a.3.3,0,0,1,.07-.39l2.26-2h-2.94a.23.23,0,0,1-.23-.28.34.34,0,0,1,.33-.27h3.58a.25.25,0,0,1,.18.39A.24.24,0,0,1,441.24,305.08Z" style="fill:#263238"></path><path d="M444.52,304.9l-.77,4.38,5.45-4.64a.29.29,0,0,1,.38,0,.27.27,0,0,1,0,.38l-3.48,3,2.46,3.82a.26.26,0,0,1-.07.37l-.15,0a.27.27,0,0,1-.23-.12l-2.43-3.76-2,1.73h0l-.34,1.93a.26.26,0,0,1-.26.22H443a.26.26,0,0,1-.21-.31l1.26-7.13a.26.26,0,0,1,.3-.22A.27.27,0,0,1,444.52,304.9Z" style="fill:#263238"></path><polygon points="428.69 327.48 428.13 327.09 432.41 320.95 436.23 322.31 443.05 319.54 450.55 323.64 459.7 320.46 459.93 321.1 450.49 324.39 443 320.29 436.25 323.04 432.67 321.77 428.69 327.48" style="fill:#008DB9"></polygon><polygon points="459.87 321.85 461.21 320.29 459.19 319.91 459.87 321.85" style="fill:#008DB9"></polygon><rect x="428.41" y="328.83" width="32.16" height="0.46" style="fill:#ebebeb"></rect><rect x="428.41" y="331.06" width="7.5" height="0.46" style="fill:#ebebeb"></rect><rect x="416.99" y="288.33" width="0.8" height="47.88" style="fill:#dbdbdb"></rect><path d="M493.37,289.47l-2.46,3.41a.24.24,0,0,1-.21.12h0a.25.25,0,0,1-.23-.12l-2.45-3.4v6.31a.27.27,0,0,1-.54,0v-7.11a.25.25,0,0,1,.11-.21s0,0,0,0a.28.28,0,0,1,.37.07l2.73,3.78,2.72-3.78a.29.29,0,0,1,.38-.07l.07.09a.39.39,0,0,1,0,.14v7.11a.27.27,0,0,1-.27.26.26.26,0,0,1-.26-.26Z" style="fill:#dbdbdb"></path><path d="M499.58,288.27a3.89,3.89,0,1,1-3.71,3.89A3.78,3.78,0,0,1,499.58,288.27Zm0,7.24a3.36,3.36,0,1,0-3.17-3.35A3.26,3.26,0,0,0,499.58,295.51Z" style="fill:#dbdbdb"></path><path d="M505.81,289.5v6.29a.27.27,0,0,1-.53,0v-7a.26.26,0,0,1,.47-.23L510.4,295v-6.24a.27.27,0,0,1,.54,0v7.07a.27.27,0,0,1-.27.26.24.24,0,0,1-.21-.1s0,0,0,0Z" style="fill:#dbdbdb"></path><path d="M515.58,288.91h-2.31a.27.27,0,1,1,0-.53h5.15a.27.27,0,0,1,0,.53h-2.31v6.88a.27.27,0,0,1-.53,0Z" style="fill:#dbdbdb"></path><path d="M525.19,292.47h-4v3.32a.27.27,0,0,1-.54,0v-7.15a.27.27,0,0,1,.54,0V292h4v-3.31a.27.27,0,0,1,.53,0v7.15a.27.27,0,0,1-.53,0Z" style="fill:#dbdbdb"></path><path d="M492.66,310.41a.27.27,0,0,1-.28.27h-.56l-.24,1.36a.27.27,0,0,1-.26.22h0a.25.25,0,0,1-.22-.31l.22-1.26h-4.16a.3.3,0,0,1-.19-.07.29.29,0,0,1,0-.39l5.45-5.55h0s0,0,0,0h.19l.1,0,0,0h0l0,0v.05a0,0,0,0,1,0,0s0,0,0,0v.11l-.93,5.24h.47A.27.27,0,0,1,492.66,310.41Zm-1.29-.26.79-4.49-4.4,4.49Z" style="fill:#263238"></path><path d="M500,304.88a.28.28,0,0,1-.28.28h-3.39l-.67,2.24a3,3,0,0,1,1.3-.32,2.21,2.21,0,0,1,1.74.78,2.28,2.28,0,0,1,.49,1.41,3.14,3.14,0,0,1-3.06,3,2.23,2.23,0,0,1-1.73-.77.28.28,0,1,1,.43-.36,1.61,1.61,0,0,0,1.3.59,2.64,2.64,0,0,0,2.51-2.47,1.59,1.59,0,0,0-.37-1.06,1.62,1.62,0,0,0-1.31-.58,2.48,2.48,0,0,0-1.59.62.28.28,0,0,1-.39,0,.3.3,0,0,1-.05-.16.13.13,0,0,1,0-.12l.93-3.12a.23.23,0,0,1,.14-.16.19.19,0,0,1,.14-.05h3.58A.28.28,0,0,1,500,304.88Z" style="fill:#263238"></path><path d="M506,306.74v.19a7.55,7.55,0,0,1-1.14,3.39,3.94,3.94,0,0,1-3.15,1.95h0a.27.27,0,0,1-.27-.26.27.27,0,0,1,.26-.27,3.46,3.46,0,0,0,2.72-1.71,5.84,5.84,0,0,0,.59-1.17,3,3,0,0,1-2,.8,2.18,2.18,0,0,1-1.56-.61,2.11,2.11,0,0,1-.61-1.52,3.15,3.15,0,0,1,0-.44,3.09,3.09,0,0,1,2.94-2.49,2.17,2.17,0,0,1,1.55.61A2.09,2.09,0,0,1,506,306.74Zm-.57.35a2.16,2.16,0,0,0,0-.35,1.55,1.55,0,0,0-1.63-1.6,2.53,2.53,0,0,0-2.4,2l-.27-.05.27.05a1.45,1.45,0,0,0,0,.35,1.56,1.56,0,0,0,1.64,1.6A2.57,2.57,0,0,0,505.47,307.09Z" style="fill:#263238"></path><path d="M510.16,304.9l-.76,4.38,5.44-4.64a.29.29,0,0,1,.38,0,.27.27,0,0,1,0,.38l-3.48,3,2.46,3.82a.26.26,0,0,1-.07.37l-.15,0a.27.27,0,0,1-.23-.12l-2.43-3.76-2,1.73h0L508.9,312a.26.26,0,0,1-.26.22h0a.26.26,0,0,1-.22-.31l1.26-7.13a.26.26,0,0,1,.3-.22A.27.27,0,0,1,510.16,304.9Z" style="fill:#263238"></path><polygon points="486.55 327.53 486.07 327.04 490.34 322.95 494.15 323.97 500.93 322.68 508.39 324.27 517.61 320.53 517.87 321.17 508.45 324.98 500.92 323.38 494.12 324.67 490.54 323.71 486.55 327.53" style="fill:#008DB9"></polygon><polygon points="517.85 321.91 519.11 320.29 517.08 320.01 517.85 321.91" style="fill:#008DB9"></polygon><rect x="486.31" y="328.83" width="32.16" height="0.46" style="fill:#ebebeb"></rect><rect x="486.31" y="331.06" width="7.5" height="0.46" style="fill:#ebebeb"></rect><rect x="474.89" y="288.33" width="0.8" height="47.88" style="fill:#dbdbdb"></rect><rect x="453" y="252.48" width="76.1" height="22.72" style="fill:#ebebeb"></rect><rect x="457.04" y="255.35" width="68.02" height="1.96" style="fill:#fff"></rect><rect x="457.04" y="255.35" width="34.77" height="1.96" style="fill:#008DB9"></rect><rect x="457.04" y="259.1" width="68.02" height="1.96" style="fill:#fff"></rect><rect x="457.04" y="259.1" width="62.39" height="1.96" style="fill:#008DB9"></rect><rect x="457.04" y="262.86" width="68.02" height="1.96" style="fill:#fff"></rect><rect x="457.04" y="262.86" width="20.12" height="1.96" style="fill:#008DB9"></rect><rect x="457.04" y="266.61" width="68.02" height="1.96" style="fill:#fff"></rect><rect x="457.04" y="266.61" width="53.45" height="1.96" style="fill:#008DB9"></rect><rect x="457.04" y="270.37" width="68.02" height="1.96" style="fill:#fff"></rect><rect x="457.04" y="270.37" width="39.3" height="1.96" style="fill:#008DB9"></rect></g><g id="freepik--chart-2--inject-26"><rect x="478.99" y="85.37" width="133.97" height="78.36" style="fill:#ebebeb"></rect><rect x="478.99" y="85.37" width="46.18" height="78.36" style="fill:#dbdbdb"></rect><path d="M486.12,96.6a.18.18,0,0,1,.25,0,2.54,2.54,0,0,0,1.67.71,2.29,2.29,0,0,0,1.27-.37,1.21,1.21,0,0,0,.61-.81.68.68,0,0,0-.31-.74,3.11,3.11,0,0,0-1.19-.45h0a2.87,2.87,0,0,1-1.2-.46.91.91,0,0,1-.39-1,1.59,1.59,0,0,1,.74-1,2.62,2.62,0,0,1,1.39-.39,2.58,2.58,0,0,1,1.59.63.17.17,0,0,1,0,.24.21.21,0,0,1-.26,0,2.27,2.27,0,0,0-1.4-.58,2.2,2.2,0,0,0-1.17.33,1.21,1.21,0,0,0-.56.75.65.65,0,0,0,.28.67,2.85,2.85,0,0,0,1.1.41h0a3.16,3.16,0,0,1,1.3.5,1,1,0,0,1,.42,1,1.69,1.69,0,0,1-.81,1.09,2.75,2.75,0,0,1-1.49.44,2.82,2.82,0,0,1-1.86-.79A.16.16,0,0,1,486.12,96.6Z" style="fill:#263238"></path><path d="M493.48,93.93a.18.18,0,0,1-.19.19h-1.06L491.71,97a.13.13,0,0,0,0,.06.2.2,0,0,0,.22.2.2.2,0,1,1,0,.39.6.6,0,0,1-.61-.59s0-.08,0-.12l.51-2.79h-.51a.19.19,0,0,1-.2-.19.2.2,0,0,1,.2-.2h.58l.25-1.51a.2.2,0,0,1,.23-.16.21.21,0,0,1,.16.22l-.25,1.45h1A.19.19,0,0,1,493.48,93.93Z" style="fill:#263238"></path><path d="M494.48,97.16a1.61,1.61,0,0,1-.43-1.14,1.46,1.46,0,0,1,0-.36,2.3,2.3,0,0,1,2.14-1.91,1.54,1.54,0,0,1,1.12.47,2,2,0,0,1,.23.32l.11-.63a.19.19,0,0,1,.21-.16.19.19,0,0,1,.16.22l-.62,3.5a.18.18,0,0,1-.19.16h0a.19.19,0,0,1-.15-.22l.09-.51a2.17,2.17,0,0,1-1.55.73A1.47,1.47,0,0,1,494.48,97.16ZM494.42,96a1.18,1.18,0,0,0,1.18,1.23,1.92,1.92,0,0,0,1.77-1.59,1.51,1.51,0,0,0,0-.3,1.16,1.16,0,0,0-1.17-1.23h0a1.94,1.94,0,0,0-1.76,1.59A1.6,1.6,0,0,0,494.42,96Z" style="fill:#263238"></path><path d="M501.34,93.93a.18.18,0,0,1-.19.19h-1.06L499.57,97a.13.13,0,0,0,0,.06.2.2,0,0,0,.22.2.2.2,0,1,1,0,.39.6.6,0,0,1-.61-.59s0-.08,0-.12l.51-2.79h-.51a.19.19,0,0,1-.2-.19.2.2,0,0,1,.2-.2h.58l.25-1.51a.2.2,0,0,1,.23-.16.21.21,0,0,1,.16.22l-.25,1.45h1A.19.19,0,0,1,501.34,93.93Z" style="fill:#263238"></path><path d="M501.59,97.42l.61-3.53a.22.22,0,0,1,.22-.16.21.21,0,0,1,.16.24L502,97.48a.19.19,0,0,1-.19.15h0A.19.19,0,0,1,501.59,97.42Zm1-4.27h0a.19.19,0,0,1-.15-.23l0-.18a.19.19,0,0,1,.37.07l0,.18A.2.2,0,0,1,502.56,93.15Z" style="fill:#263238"></path><path d="M503.54,96.81a.2.2,0,0,1,.28,0,1.69,1.69,0,0,0,1.08.46,1.58,1.58,0,0,0,.81-.23.76.76,0,0,0,.37-.5.4.4,0,0,0-.19-.43,1.94,1.94,0,0,0-.77-.29h0a1.89,1.89,0,0,1-.84-.31.7.7,0,0,1-.29-.71,1.23,1.23,0,0,1,.55-.76,1.9,1.9,0,0,1,1-.28,1.77,1.77,0,0,1,1.1.44.18.18,0,0,1,0,.26.2.2,0,0,1-.27.06,1.5,1.5,0,0,0-.91-.38,1.46,1.46,0,0,0-.74.21.75.75,0,0,0-.34.45.38.38,0,0,0,.17.39,1.92,1.92,0,0,0,.71.26h0a2,2,0,0,1,.91.34.71.71,0,0,1,.3.75,1.2,1.2,0,0,1-.58.8,1.9,1.9,0,0,1-1.05.31,1.94,1.94,0,0,1-1.3-.55A.19.19,0,0,1,503.54,96.81Z" style="fill:#263238"></path><path d="M509.78,93.93a.19.19,0,0,1-.2.19h-1.06L508,97V97a.19.19,0,0,0,.21.2.2.2,0,1,1,0,.39.6.6,0,0,1-.43-.17.59.59,0,0,1-.17-.42v-.12l.51-2.79h-.51a.18.18,0,0,1-.19-.19.19.19,0,0,1,.19-.2h.58l.25-1.51a.2.2,0,0,1,.23-.16.2.2,0,0,1,.16.22l-.25,1.45h1A.2.2,0,0,1,509.78,93.93Z" style="fill:#263238"></path><path d="M510,97.42l.61-3.53a.22.22,0,0,1,.23-.16A.21.21,0,0,1,511,94l-.62,3.51a.19.19,0,0,1-.18.15h0A.19.19,0,0,1,510,97.42Zm1-4.27h0a.2.2,0,0,1-.15-.23l0-.18a.2.2,0,0,1,.22-.15.18.18,0,0,1,.15.22l0,.18A.19.19,0,0,1,511,93.15Z" style="fill:#263238"></path><path d="M512,95.65a2.4,2.4,0,0,1,2.29-1.92,1.77,1.77,0,0,1,1.19.43.2.2,0,0,1,0,.27.18.18,0,0,1-.26,0,1.38,1.38,0,0,0-.94-.33,2,2,0,0,0-1.92,1.59,1.27,1.27,0,0,0,0,.27,1.25,1.25,0,0,0,1.32,1.26,2,2,0,0,0,1.09-.35A.19.19,0,0,1,515,97a.19.19,0,0,1,0,.26,2.38,2.38,0,0,1-1.3.41,1.7,1.7,0,0,1-1.22-.47A1.6,1.6,0,0,1,512,96,1.23,1.23,0,0,1,512,95.65Z" style="fill:#263238"></path><path d="M486.8,106.48a2.28,2.28,0,0,1-.69-1.67,2.56,2.56,0,0,1,0-.47,3.44,3.44,0,0,1,3.31-2.75,2.53,2.53,0,0,1,1.69.61.2.2,0,0,1-.27.29,2.1,2.1,0,0,0-1.42-.51,3,3,0,0,0-2.92,2.42,2,2,0,0,0,0,.41,1.92,1.92,0,0,0,2.05,2,3,3,0,0,0,1.58-.48l.28-1.6h-1.47a.19.19,0,0,1-.19-.19.19.19,0,0,1,.19-.2h1.73a.19.19,0,0,1,.16.22l-.33,1.89a.11.11,0,0,1,0,.06,0,0,0,0,1,0,0h0a.16.16,0,0,1-.06.08,3.34,3.34,0,0,1-1.86.59A2.47,2.47,0,0,1,486.8,106.48Z" style="fill:#263238"></path><path d="M492.05,106.94l.31-1.75h0l.31-1.73a.19.19,0,0,1,.22-.16.19.19,0,0,1,.15.22l-.14.79.06-.07a2.23,2.23,0,0,1,1.68-.94.18.18,0,0,1,.19.19.19.19,0,0,1-.19.19,1.75,1.75,0,0,0-1.26.64,4.14,4.14,0,0,0-.63.92s0,0,0,0l-.31,1.72a.18.18,0,0,1-.19.16h0A.18.18,0,0,1,492.05,106.94Z" style="fill:#263238"></path><path d="M495.52,106.7a1.68,1.68,0,0,1-.42-1.15,1.34,1.34,0,0,1,0-.35,2.3,2.3,0,0,1,2.14-1.91,1.5,1.5,0,0,1,1.12.47,2.49,2.49,0,0,1,.23.31l.11-.62a.18.18,0,0,1,.21-.16.19.19,0,0,1,.16.22l-.62,3.5a.19.19,0,0,1-.19.16h0a.2.2,0,0,1-.15-.23l.09-.5a2.17,2.17,0,0,1-1.55.73A1.54,1.54,0,0,1,495.52,106.7Zm0-1.15a1.17,1.17,0,0,0,1.18,1.24,1.94,1.94,0,0,0,1.77-1.59c0-.11,0-.2,0-.3a1.16,1.16,0,0,0-1.17-1.23h0a1.94,1.94,0,0,0-1.76,1.59A1.5,1.5,0,0,0,495.47,105.55Z" style="fill:#263238"></path><path d="M499.56,108.56l.6-3.37.31-1.74a.19.19,0,0,1,.22-.16.19.19,0,0,1,.16.23l-.09.49a2.21,2.21,0,0,1,1.55-.72,1.54,1.54,0,0,1,1.15.47,1.63,1.63,0,0,1,.45,1.15,2.14,2.14,0,0,1,0,.34,2.29,2.29,0,0,1-2.15,1.88,1.58,1.58,0,0,1-1.15-.46,1.28,1.28,0,0,1-.24-.31l-.4,2.27a.18.18,0,0,1-.19.16h0A.21.21,0,0,1,499.56,108.56Zm1-3.31a1.42,1.42,0,0,0,0,.29,1.16,1.16,0,0,0,1.21,1.21,1.94,1.94,0,0,0,1.77-1.56c0-.1,0-.19,0-.28a1.17,1.17,0,0,0-1.21-1.23h0A1.94,1.94,0,0,0,500.54,105.25Z" style="fill:#263238"></path><path d="M504.8,107l.91-5.17a.19.19,0,0,1,.23-.16.2.2,0,0,1,.16.22l-.34,2a2,2,0,0,1,1.29-.54,1.4,1.4,0,0,1,1,.4,1.37,1.37,0,0,1,.39,1c0,.08,0,.18,0,.28L508,107a.21.21,0,0,1-.2.16h0a.2.2,0,0,1-.15-.23l.39-2.09c0-.08,0-.15,0-.21a1,1,0,0,0-1-1,1.59,1.59,0,0,0-1.49,1.27l-.38,2.09h0s0,0,0,0h0a0,0,0,0,0,0,0h0v0h0s0,0,0,0H505l-.09-.05a.21.21,0,0,1-.07-.14A.06.06,0,0,1,504.8,107Z" style="fill:#263238"></path><path d="M532.4,103.31c12.18-.11,24.36-.08,36.54-.13s24.36,0,36.54.13c-12.18.11-24.36.08-36.54.12S544.58,103.42,532.4,103.31Z" style="fill:#fff"></path><path d="M532.4,113.54c12.18-.11,24.36-.08,36.54-.12s24.36,0,36.54.12c-12.18.11-24.36.08-36.54.12S544.58,113.65,532.4,113.54Z" style="fill:#fff"></path><path d="M532.4,123.77c12.18-.11,24.36-.08,36.54-.12s24.36,0,36.54.12c-12.18.11-24.36.08-36.54.13S544.58,123.88,532.4,123.77Z" style="fill:#fff"></path><path d="M532.4,134c12.18-.11,24.36-.08,36.54-.12s24.36,0,36.54.12c-12.18.11-24.36.08-36.54.13S544.58,134.11,532.4,134Z" style="fill:#fff"></path><path d="M532.4,144.23c12.18-.11,24.36-.08,36.54-.12s24.36,0,36.54.12c-12.18.11-24.36.08-36.54.13S544.58,144.34,532.4,144.23Z" style="fill:#fff"></path><path d="M547.11,96.66c.11,9.56.08,19.12.13,28.68s0,19.11-.13,28.67c-.1-9.56-.08-19.12-.12-28.67S547,106.22,547.11,96.66Z" style="fill:#fff"></path><path d="M559.75,96.66c.11,9.56.08,19.12.13,28.68s0,19.11-.13,28.67c-.11-9.56-.08-19.12-.12-28.67S559.64,106.22,559.75,96.66Z" style="fill:#fff"></path><path d="M572.39,96.66c.11,9.56.08,19.12.12,28.68s0,19.11-.12,28.67c-.11-9.56-.08-19.12-.13-28.67S572.28,106.22,572.39,96.66Z" style="fill:#fff"></path><path d="M585,96.66c.11,9.56.08,19.12.13,28.68s0,19.11-.13,28.67c-.1-9.56-.08-19.12-.12-28.67S584.92,106.22,585,96.66Z" style="fill:#fff"></path><path d="M597.66,96.66c.11,9.56.08,19.12.13,28.68s0,19.11-.13,28.67c-.11-9.56-.08-19.12-.12-28.67S597.55,106.22,597.66,96.66Z" style="fill:#fff"></path><path d="M534.24,136.81c2.23,0,3.56-10.39,6.72-10.39s3.49,7.58,6.15,7.58,2.58-13.32,6.16-13.32,2.74,5.41,6.48,5.41,2.33-12.55,6.24-12.55,2.32,17.29,6.4,17.29c2.57,0,3.57-5.49,6.65-5.49,2,0,3.24,2.74,5.9,2.74s3.24-10.56,6.57-10.56,3.7,6.25,6.15,6.25,3.33-10.23,7.82-10.23V154H534.24Z" style="fill:#008DB9;opacity:0.5"></path><path d="M534.24,137.31v-1c.68,0,1.61-2.43,2.29-4.2,1.17-3,2.37-6.19,4.43-6.19s3,2.3,3.83,4.34c.68,1.59,1.38,3.24,2.32,3.24s1.56-3.2,2.08-5.53c.87-3.83,1.76-7.79,4.08-7.79,2.07,0,2.88,1.56,3.6,2.93s1.29,2.48,2.88,2.48,2-2.93,2.55-5.77c.64-3.33,1.3-6.78,3.69-6.78s3,4.34,3.61,8.94c.52,3.72,1.16,8.35,2.79,8.35,1,0,1.76-1.15,2.6-2.35,1-1.48,2.18-3.14,4-3.14a4.72,4.72,0,0,1,2.84,1.34,5,5,0,0,0,3.06,1.4c.92,0,1.76-2.51,2.44-4.53,1-3,2-6,4.13-6s3.12,2,4,3.75c.67,1.29,1.29,2.5,2.12,2.5s1.5-1.94,2.2-3.66c1.2-2.93,2.7-6.57,5.62-6.57v1c-2.25,0-3.55,3.16-4.69,5.95-1,2.39-1.75,4.28-3.13,4.28s-2.2-1.47-3-3S593,118,591.51,118s-2.34,2.84-3.18,5.35c-.94,2.8-1.75,5.21-3.39,5.21a5.88,5.88,0,0,1-3.67-1.61,3.91,3.91,0,0,0-2.23-1.13c-1.35,0-2.3,1.37-3.23,2.71s-1.93,2.78-3.42,2.78c-2.5,0-3.12-4.48-3.78-9.21-.5-3.6-1.13-8.08-2.62-8.08s-2.17,3.17-2.71,6c-.65,3.38-1.27,6.58-3.53,6.58s-3-1.61-3.77-3-1.25-2.39-2.71-2.39-2.4,3.89-3.1,7c-.8,3.52-1.42,6.31-3.06,6.31s-2.4-1.87-3.24-3.85-1.59-3.73-2.91-3.73-2.55,3.08-3.5,5.55C536.42,135.17,535.61,137.31,534.24,137.31Z" style="fill:#008DB9"></path><path d="M534.24,97.28c.08,9.46.15,18.91.16,28.37l.08,28.36-.24-.23,35.62.06,17.81,0,17.81.13-17.81.13-17.81.05-35.62.06H534V154l.08-28.36C534.09,116.19,534.16,106.74,534.24,97.28Z" style="fill:#fff"></path><rect x="486.09" y="116.59" width="4.17" height="4.17" style="fill:#008DB9"></rect><rect x="495.27" y="116.59" width="14.79" height="1.16" style="fill:#a6a6a6"></rect><rect x="495.27" y="119.6" width="22.13" height="1.16" style="fill:#a6a6a6"></rect><rect x="495.27" y="122.61" width="16.13" height="1.16" style="fill:#a6a6a6"></rect></g><g id="freepik--chart-1--inject-26"><rect x="82.27" y="167.32" width="133.97" height="78.36" style="fill:#ebebeb"></rect><rect x="82.27" y="167.32" width="72.06" height="78.36" style="fill:#dbdbdb"></rect><rect x="163.3" y="178.82" width="4.17" height="4.17" style="fill:#263238"></rect><rect x="172.47" y="178.82" width="27.75" height="1.16" style="fill:#a6a6a6"></rect><rect x="172.47" y="181.83" width="22.13" height="1.16" style="fill:#a6a6a6"></rect><rect x="172.47" y="184.84" width="14.23" height="1.16" style="fill:#a6a6a6"></rect><rect x="163.3" y="190.87" width="4.17" height="4.17" style="fill:#455a64"></rect><rect x="172.47" y="190.87" width="18.48" height="1.16" style="fill:#a6a6a6"></rect><rect x="172.47" y="193.88" width="30.56" height="1.16" style="fill:#a6a6a6"></rect><rect x="172.47" y="196.89" width="33.81" height="1.16" style="fill:#a6a6a6"></rect><rect x="163.3" y="202.92" width="4.17" height="4.17" style="fill:#fff"></rect><rect x="172.47" y="202.92" width="22.13" height="1.16" style="fill:#a6a6a6"></rect><rect x="172.47" y="205.93" width="33.81" height="1.16" style="fill:#a6a6a6"></rect><rect x="172.47" y="208.94" width="12.02" height="1.16" style="fill:#a6a6a6"></rect><rect x="163.3" y="214.97" width="4.17" height="4.17" style="fill:#37474f"></rect><rect x="172.47" y="214.97" width="24.71" height="1.16" style="fill:#a6a6a6"></rect><rect x="172.47" y="217.98" width="16.13" height="1.16" style="fill:#a6a6a6"></rect><rect x="172.47" y="220.98" width="33.81" height="1.16" style="fill:#a6a6a6"></rect><rect x="163.3" y="227.01" width="4.17" height="4.17" style="fill:#008DB9"></rect><rect x="172.47" y="227.01" width="29.57" height="1.16" style="fill:#a6a6a6"></rect><rect x="172.47" y="230.02" width="22.13" height="1.16" style="fill:#a6a6a6"></rect><rect x="172.47" y="233.03" width="16.13" height="1.16" style="fill:#a6a6a6"></rect><path d="M134.69,217.19c.21-.31.4-.64.59-1a9.56,9.56,0,0,1-.58,1Z" style="fill:#455a64"></path><path d="M135.28,216.22a19.53,19.53,0,0,0,2.09-5.3A18.79,18.79,0,0,1,135.28,216.22Z" style="fill:#455a64"></path><path d="M145.91,208.61c0,.14,0,.29,0,.43a3.22,3.22,0,0,0,0-.43Z" style="fill:#455a64"></path><path d="M146,206.49c0,.3,0,.59,0,.88s0,.83-.08,1.24a3.22,3.22,0,0,1,0,.43,3.13,3.13,0,0,1,0,.43.59.59,0,0,1,0,.14c0,.31-.06.63-.12.94a2.91,2.91,0,0,1,0,.31c-.06.41-.13.81-.22,1.22s-.15.72-.25,1.07c0,.17-.08.35-.13.52s-.14.55-.22.81-.13.43-.21.63c-.2.63-.43,1.26-.68,1.87-.09.21-.18.42-.28.63-.15.37-.32.72-.49,1.07a8.6,8.6,0,0,1-.44.85q-.27.53-.57,1l-.43.71-7-4.07a9.56,9.56,0,0,0,.58-1,18.79,18.79,0,0,0,2.09-5.3,11,11,0,0,0,.23-1.14c.07-.39.12-.78.16-1.17s.08-.82.09-1.24,0-.58,0-.87,0-.44,0-.65a5.3,5.3,0,0,0,0-.57c0-.06,0-.14,0-.2a10.17,10.17,0,0,0-.11-1.11,3.4,3.4,0,0,0-.08-.57q-.1-.65-.24-1.26a18.52,18.52,0,0,0-.69-2.34c-.07-.19-.15-.38-.22-.56s-.15-.37-.23-.56l-.24-.55-.2-.39c-.12-.25-.26-.51-.4-.76a9.18,9.18,0,0,0-.57-.95c-.21-.34-.42-.66-.66-1s-.47-.64-.72-1a19.35,19.35,0,0,0-2.5-2.54,16.59,16.59,0,0,0-1.91-1.42l4.07-7a20.83,20.83,0,0,1,1.75,1.2l1,.79,0,0c.34.28.68.57,1,.88s.58.54.87.82a.81.81,0,0,1,.12.14c.3.28.58.57.85.87l.21.23.69.82c.28.33.56.69.82,1.05s.51.67.74,1a1.88,1.88,0,0,1,.12.18c.18.27.35.53.51.8.06.08.11.17.17.26.22.37.42.73.62,1.1a25.18,25.18,0,0,1,1.13,2.34.43.43,0,0,1,.05.12c.17.4.34.81.48,1.22s.29.79.41,1.19l.05.16q.16.51.3,1c.05.15.08.32.12.48.2.79.36,1.58.49,2.4v.07c.07.41.12.83.16,1.25a1.1,1.1,0,0,1,0,.18c0,.42.07.85.1,1.27v.17C146,205.63,146,206.06,146,206.49Z" style="fill:#455a64"></path><path d="M129.05,190.14a16.59,16.59,0,0,1,1.91,1.42A20.55,20.55,0,0,0,129.05,190.14Z" style="fill:#a6a6a6"></path><path d="M133.46,194.1a21.41,21.41,0,0,0-2.5-2.54A19.35,19.35,0,0,1,133.46,194.1Z" style="fill:#a6a6a6"></path><path d="M133.63,183.44l-.51-.33v0Z" style="fill:#a6a6a6"></path><path d="M134.87,184.31c-.4-.31-.82-.59-1.24-.87C134.06,183.72,134.47,184,134.87,184.31Z" style="fill:#a6a6a6"></path><path d="M136.7,199.8a18.52,18.52,0,0,1,.69,2.34A22.55,22.55,0,0,0,136.7,199.8Z" style="fill:#a6a6a6"></path><path d="M137.86,205.85c0,.21,0,.43,0,.65s0,.58,0,.87h0c0-.29,0-.58,0-.88S137.87,206.06,137.86,205.85Z" style="fill:#a6a6a6"></path><path d="M132.07,182.45,128,189.5a19.41,19.41,0,0,0-9.1-2.57V178.8A27.57,27.57,0,0,1,132.07,182.45Z" style="fill:#263238"></path><path d="M94.38,192.51l.23-.37-.22.38Z" style="fill:#008DB9"></path><path d="M94.61,192.14a26.35,26.35,0,0,1,4.11-5.22A27.73,27.73,0,0,0,94.61,192.14Z" style="fill:#008DB9"></path><path d="M98.72,186.92a23.61,23.61,0,0,1,2-1.79C100,185.7,99.35,186.29,98.72,186.92Z" style="fill:#008DB9"></path><path d="M100.68,185.13a27.25,27.25,0,0,1,6.84-4.15A28,28,0,0,0,100.68,185.13Z" style="fill:#008DB9"></path><path d="M107.52,181a26.43,26.43,0,0,1,3.85-1.31A29.56,29.56,0,0,0,107.52,181Z" style="fill:#008DB9"></path><path d="M117.68,178.8v0a27.82,27.82,0,0,0-6.3.85A27.82,27.82,0,0,1,117.68,178.8Z" style="fill:#008DB9"></path><path d="M117.68,178.82v8.11l-.38,0c-.3,0-.61,0-.91.06h-.09a18,18,0,0,0-2,.3c-.32.06-.64.13-.95.21l-.71.2-.23.08c-.3.09-.6.19-.89.3l-.06,0c-.28.1-.56.21-.83.33a19.41,19.41,0,0,0-2.53,1.29,16.13,16.13,0,0,0-1.39.94l-.36.26c-.13.09-.25.19-.38.3s-.46.38-.69.58c0,0,0,0-.07.06-.27.25-.54.5-.8.76l-.15.15c-.24.24-.48.5-.7.76l-.11.13c-.25.28-.49.57-.71.86s-.49.65-.71,1a0,0,0,0,1,0,0c-.23.34-.44.67-.64,1s-.41.71-.59,1.08a.43.43,0,0,1,0,.07c-.14.27-.27.54-.39.83l-.06.13-.24.56c-.07.17-.13.35-.2.52s-.21.61-.31.92-.2.67-.28,1-.14.56-.19.85-.1.49-.14.75a1.65,1.65,0,0,0,0,.38c0,.15,0,.29-.07.44s-.05.44-.06.67,0,.3,0,.45a8.51,8.51,0,0,0,0,.88v0H90.62a27.3,27.3,0,0,1,3.19-12.56c.17-.36.37-.72.58-1.07l.22-.38a27.73,27.73,0,0,1,4.11-5.22c.63-.63,1.29-1.22,2-1.79a28,28,0,0,1,6.84-4.15,29.56,29.56,0,0,1,3.85-1.31h0A27.82,27.82,0,0,1,117.68,178.82Z" style="fill:#008DB9"></path><path d="M93.79,193.58h0a27.3,27.3,0,0,0-3.19,12.56h0A27.46,27.46,0,0,1,93.79,193.58Z" style="fill:#c7c7c7"></path><path d="M107.39,222.75l-4.07,7a27.6,27.6,0,0,1-12.7-22.41h8.13A19.54,19.54,0,0,0,107.39,222.75Z" style="fill:#37474f"></path><path d="M141,222.28a27.67,27.67,0,0,1-36.67,8.15l4.07-7A19.55,19.55,0,0,0,134,218.2Z" style="fill:#fff"></path><path d="M108.34,206.72l-3.53,2.76h3.53a.28.28,0,0,1,.28.26.28.28,0,0,1-.28.28H104a.26.26,0,0,1-.22-.11.27.27,0,0,1,.06-.37L108,206.3a2.41,2.41,0,0,0,1-1.84,1.55,1.55,0,0,0-1.61-1.58,2.41,2.41,0,0,0-1.45.52l-.43.35a.27.27,0,0,1-.38-.06.27.27,0,0,1,0-.37l.44-.34a2.87,2.87,0,0,1,1.78-.63,2.06,2.06,0,0,1,2.14,2.11A3,3,0,0,1,108.34,206.72Z" style="fill:#263238"></path><path d="M115.36,203.22a3.7,3.7,0,0,1,.55,2.06,6.47,6.47,0,0,1-.09,1l-.26-.05.26.05a5.59,5.59,0,0,1-1.21,2.65,2.83,2.83,0,0,1-2.07,1.14h0a1.87,1.87,0,0,1-1.55-.88,3.62,3.62,0,0,1-.55-2.05,6.41,6.41,0,0,1,.08-.95,5.69,5.69,0,0,1,1.21-2.65,2.85,2.85,0,0,1,2.07-1.14A1.89,1.89,0,0,1,115.36,203.22Zm0,2.06a3.1,3.1,0,0,0-.46-1.75,1.31,1.31,0,0,0-1.12-.64,2.3,2.3,0,0,0-1.66,1,5.12,5.12,0,0,0-1.09,2.4,5.19,5.19,0,0,0-.08.86,3.2,3.2,0,0,0,.46,1.76,1.33,1.33,0,0,0,1.12.63,2.34,2.34,0,0,0,1.67-1,5.12,5.12,0,0,0,1.08-2.39A4.47,4.47,0,0,0,115.37,205.28Z" style="fill:#263238"></path><path d="M123.15,203.22a3.69,3.69,0,0,1,.54,2.06,6.43,6.43,0,0,1-.08,1l-.27-.05.27.05a5.69,5.69,0,0,1-1.21,2.65,2.83,2.83,0,0,1-2.07,1.14h0a1.88,1.88,0,0,1-1.56-.88,3.7,3.7,0,0,1-.55-2.05,6.47,6.47,0,0,1,.09-.95,5.69,5.69,0,0,1,1.21-2.65,2.83,2.83,0,0,1,2.07-1.14A1.91,1.91,0,0,1,123.15,203.22Zm0,2.06a3.18,3.18,0,0,0-.46-1.75,1.32,1.32,0,0,0-1.12-.64,2.34,2.34,0,0,0-1.67,1,5.11,5.11,0,0,0-1.08,2.4,4.3,4.3,0,0,0-.08.86,3.2,3.2,0,0,0,.46,1.76,1.33,1.33,0,0,0,1.12.63,2.34,2.34,0,0,0,1.67-1,5.12,5.12,0,0,0,1.08-2.39A4.47,4.47,0,0,0,123.16,205.28Z" style="fill:#263238"></path><path d="M128.24,202.65l-.77,4.39,5.45-4.64a.27.27,0,0,1,.37,0,.27.27,0,0,1,0,.39l-3.49,3,2.47,3.81a.28.28,0,0,1-.08.38.35.35,0,0,1-.14,0,.25.25,0,0,1-.23-.12l-2.44-3.76-2,1.73h0l-.34,1.93a.28.28,0,0,1-.27.22h0a.28.28,0,0,1-.22-.31l1.26-7.13a.26.26,0,0,1,.31-.22A.27.27,0,0,1,128.24,202.65Z" style="fill:#263238"></path></g></svg>