<svg id="Capa_1" enable-background="new 0 0 512 512" height="512" viewBox="0 0 512 512" width="512" xmlns="http://www.w3.org/2000/svg"><g><g><g clip-rule="evenodd" fill-rule="evenodd"><path d="m53.501 7.5v452h299.999v-60h60v-392zm232.499 226v-112.498h30v112.498zm15-142.498c-8.284 0-15-6.715-15-15 0-8.284 6.716-15 15-15s15 6.716 15 15c0 8.285-6.716 15-15 15z" fill="#e5ecf5"/><path d="m286 121.002h30v112.498h-30z" fill="#6e91ef"/><circle cx="301" cy="76.002" fill="#6e91ef" r="15"/><path d="m413.5 52.5v347.001l-60 59.999h-255v45h359.999v-452z" fill="#b0c5e0"/><path d="m413.5 399.501h-60v59.999z" fill="#b0c5e0"/><path d="m53.501 7.5h22.5v452h-22.5z" fill="#b0c5e0"/></g><g><path d="m391 75h-15v-15h15zm0-30h-15v-15h15z" fill="#fff"/></g></g><g><path d="m121.001 226h105v15h-105z"/><path d="m121.001 113.502h105v15h-105z"/><path d="m121.001 188.501h105v15h-105z"/><path d="m121.001 151.001h105v15h-105z"/><path d="m121 289.749h101.249v15h-101.249z"/><path d="m237.249 289.749h101.249v15h-101.249z"/><path d="m237.249 364.749h101.249v15h-101.249z"/><path d="m121 327.249h217.498v15h-217.498z"/><path d="m121 364.749h101.249v15h-101.249z"/><path d="m390.999 497h15v15h-15z"/><path d="m420.999 45v-45h-374.998v45h15v-30h344.998v377.001h-59.999v59.999h-284.999v-392h-15v407h45v45h284.999v-15h-270v-30h250.606l64.393-64.393v-342.607h30v437h-30v15h45v-467zm-25.606 362.001-34.393 34.393v-34.393z"/><path d="m323.5 76.002c0-12.406-10.094-22.499-22.5-22.499s-22.5 10.093-22.5 22.499 10.094 22.5 22.5 22.5 22.5-10.094 22.5-22.5zm-30 0c0-4.135 3.364-7.499 7.5-7.499s7.5 3.364 7.5 7.499c0 4.136-3.364 7.5-7.5 7.5s-7.5-3.364-7.5-7.5z"/><path d="m263.5 226v15h74.999v-15h-14.999v-112.498h-60v15h15v97.498zm30-97.498h15v97.498h-15z"/></g></g></svg>